<svg width="800" height="1400" viewBox="0 0 800 1400" fill="none" xmlns="http://www.w3.org/2000/svg">
<rect width="800" height="1400" fill="white"/>
<path d="M539.814 899.781L560.363 886.637L610.532 917.368L539.814 960.5V899.781Z" fill="#D9D9D9"/>
<path d="M560.363 886.635L560.363 860.347L610.532 832.95V917.368L560.363 886.635Z" fill="#D9D9D9"/>
<path d="M560.363 860.349L539.814 847.205L524.633 790L610.532 832.95L560.363 860.349Z" fill="#D9D9D9"/>
<path d="M539.814 899.781L519.264 886.637L466.133 917.368L539.814 960.5V899.781Z" fill="#D9D9D9"/>
<path d="M519.264 886.637L519.264 860.349L466.133 826.655L466.133 917.368L519.264 886.637Z" fill="#D9D9D9"/>
<path d="M539.814 847.205L519.264 860.349L466.133 826.655L524.633 790L539.814 847.205Z" fill="#D9D9D9"/>
<path d="M601.832 783.112L633.489 765.525L686.806 789.961L610.533 832.726L601.832 783.112Z" fill="#383838"/>
<path d="M633.489 765.525V730.35L686.806 706.839V789.961L633.489 765.525Z" fill="#383838"/>
<path d="M633.489 730.35L601.832 712.763L605.72 665L686.806 706.839L633.489 730.35Z" fill="#383838"/>
<path d="M601.832 783.112L570.268 765.524L524.634 789.776L610.533 832.726L601.832 783.112Z" fill="#383838"/>
<path d="M570.268 765.524L570.082 730.35L524.634 706.654V789.776L570.268 765.524Z" fill="#383838"/>
<path d="M601.832 712.763L570.082 730.35L524.634 706.654L605.72 665L601.832 712.763Z" fill="#383838"/>
<path d="M601.832 794.034L643.301 771.078L686.806 789.961L610.533 832.726L601.832 794.034Z" fill="#A8A8A8"/>
<path d="M643.301 771.078V724.611L686.806 706.839V789.961L643.301 771.078Z" fill="#A8A8A8"/>
<path d="M643.301 724.611L601.832 703.507L605.72 665L686.806 706.839L643.301 724.611Z" fill="#A8A8A8"/>
<path d="M601.832 794.034L561.474 771.819L524.634 789.776L610.533 832.726L601.832 794.034Z" fill="#A8A8A8"/>
<path d="M561.474 771.819V724.611L524.634 706.654V789.776L561.474 771.819Z" fill="#A8A8A8"/>
<path d="M601.832 703.507L561.474 724.611L524.634 706.654L605.72 665L601.832 703.507Z" fill="#A8A8A8"/>
<path d="M195.661 783.112L164.004 765.525L110.687 789.961L186.96 832.726L195.661 783.112Z" fill="#383838"/>
<path d="M164.004 765.525V730.35L110.687 706.839V789.961L164.004 765.525Z" fill="#383838"/>
<path d="M164.004 730.35L195.661 712.763L191.773 665L110.687 706.839L164.004 730.35Z" fill="#383838"/>
<path d="M195.661 783.112L227.225 765.524L272.859 789.776L186.96 832.726L195.661 783.112Z" fill="#383838"/>
<path d="M227.225 765.524L227.41 730.35L272.859 706.654V789.776L227.225 765.524Z" fill="#383838"/>
<path d="M195.661 712.763L227.41 730.35L272.859 706.654L191.773 665L195.661 712.763Z" fill="#383838"/>
<path d="M195.661 794.034L154.192 771.078L110.687 789.961L186.96 832.726L195.661 794.034Z" fill="#A8A8A8"/>
<path d="M154.192 771.078V724.611L110.687 706.839V789.961L154.192 771.078Z" fill="#A8A8A8"/>
<path d="M154.192 724.611L195.661 703.507L191.773 665L110.687 706.839L154.192 724.611Z" fill="#A8A8A8"/>
<path d="M195.661 794.034L236.018 771.819L272.859 789.776L186.96 832.726L195.661 794.034Z" fill="#A8A8A8"/>
<path d="M236.018 771.819V724.611L272.859 706.654V789.776L236.018 771.819Z" fill="#A8A8A8"/>
<path d="M195.661 703.507L236.018 724.611L272.859 706.654L191.773 665L195.661 703.507Z" fill="#A8A8A8"/>
<path d="M257.679 899.781L237.129 886.637L186.96 917.368L259.16 962.724L257.679 899.781Z" fill="#D9D9D9"/>
<path d="M237.129 886.635L237.129 860.347L186.96 832.95V917.368L237.129 886.635Z" fill="#D9D9D9"/>
<path d="M237.129 860.349L257.679 847.205L272.859 790L186.96 832.95L237.129 860.349Z" fill="#D9D9D9"/>
<path d="M257.679 899.781L278.228 886.637L331.36 917.368L259.16 962.724L257.679 899.781Z" fill="#D9D9D9"/>
<path d="M278.228 886.637L278.228 860.349L331.359 826.655L331.36 917.368L278.228 886.637Z" fill="#D9D9D9"/>
<path d="M257.679 847.205L278.228 860.349L331.359 826.655L272.859 790L257.679 847.205Z" fill="#D9D9D9"/>
<path d="M257.679 911.259L227.318 892.931L186.96 917.368L257.679 961.86V911.259Z" fill="#444444"/>
<path d="M227.318 892.931V856.276L186.96 832.95V917.368L227.318 892.931Z" fill="#444444"/>
<path d="M227.318 856.276L257.679 837.208L272.859 790L186.96 832.95L227.318 856.276Z" fill="#444444"/>
<path d="M257.679 911.259L285.633 892.931L331.36 917.368L257.679 961.86V911.259Z" fill="#444444"/>
<path d="M285.633 892.931V856.276L331.359 826.655L331.36 917.368L285.633 892.931Z" fill="#444444"/>
<path d="M257.679 837.208L285.633 856.276L331.359 826.655L272.859 790L257.679 837.208Z" fill="#444444"/>
<path d="M539.814 911.259L570.175 892.931L610.532 917.368L539.814 958.697V911.259Z" fill="#444444"/>
<path d="M570.175 892.931V856.276L610.532 832.95V917.368L570.175 892.931Z" fill="#444444"/>
<path d="M570.175 856.276L539.814 837.208L524.633 790L610.532 832.95L570.175 856.276Z" fill="#444444"/>
<path d="M539.814 911.259L511.86 892.931L466.133 917.368L539.814 958.697V911.259Z" fill="#444444"/>
<path d="M511.86 892.931V856.276L466.133 826.655L466.133 917.368L511.86 892.931Z" fill="#444444"/>
<path d="M539.814 837.208L511.86 856.276L466.133 826.655L524.633 790L539.814 837.208Z" fill="#444444"/>
<path d="M200.273 661.684L200.273 707.781L167.135 727.219L129.924 706.3V660.573L162.877 641.875L200.273 661.684Z" fill="#D9D9D9"/>
<path d="M597.226 661.684V707.781L630.364 727.219L667.575 706.3V660.573L634.622 641.875L597.226 661.684Z" fill="#D9D9D9"/>
<path d="M57 376.852L124.387 336.679L193.254 376.852V444.794L259 488V556L193.254 592.896V664.171L110.687 706.75L57 681.573V376.852Z" fill="#D9D9D9"/>
<path d="M588.873 299.946L666.071 258.477L743.64 299.946V692.417L687 726.5L588.873 679.273V528.949L525 490V411.977L588.873 377.515V299.946Z" fill="#D9D9D9"/>
<path d="M339.69 976.667L374.309 995.735L388.194 986.849V982.036L398.746 987.589L398.773 1133.91L308.219 1084.21V980.555L330.619 964.078L339.69 976.667Z" fill="#D9D9D9"/>
<path d="M368.755 874.846H398.746V987.589L340.246 957.043L308.219 980.555L293.408 940.197L325.435 912.613L330.989 899.098L368.755 874.846Z" fill="#D9D9D9"/>
<path d="M457.829 976.667L423.21 995.735L409.325 986.849V982.036L398.773 987.589L398.746 1133.91L489.301 1084.21V980.555L466.9 964.078L457.829 976.667Z" fill="#D9D9D9"/>
<path d="M428.764 874.846H398.773V987.589L457.274 957.043L489.301 980.555L504.111 940.197L472.084 912.613L466.53 899.098L428.764 874.846Z" fill="#D9D9D9"/>
<path d="M109.606 994.894L174.539 1106.7L155.933 1117.5L91 1005.7L94.8215 1003.56L100.303 1000.3L109.606 994.894Z" fill="#828282"/>
<path d="M297.302 949.446L307.028 966.193L217.462 1018.21L207.736 1001.46L297.302 949.446Z" fill="#828282"/>
<path d="M167.389 932L257.788 1087.65L187.26 1128.61L96.8609 972.96L111.266 964.703L132.125 952.48L167.389 932Z" fill="#828282"/>
<path d="M168.225 1090.87L200.377 1072.21L220.673 1107.18L188.521 1125.84L168.225 1090.87Z" fill="#D9D9D9"/>
<path d="M202.353 1071.09L234.506 1052.43L254.801 1087.4L222.649 1106.06L202.353 1071.09Z" fill="#D9D9D9"/>
<path d="M100.225 973.866L132.377 955.206L152.673 990.178L120.521 1008.84L100.225 973.866Z" fill="#D9D9D9"/>
<path d="M134.353 954.086L166.506 935.426L186.801 970.398L154.649 989.057L134.353 954.086Z" fill="#D9D9D9"/>
<path d="M688.422 994.894L623.489 1106.7L642.096 1117.5L707.028 1005.7L703.207 1003.56L697.725 1000.3L688.422 994.894Z" fill="#828282"/>
<path d="M500.726 949.446L491 966.193L580.566 1018.21L590.292 1001.46L500.726 949.446Z" fill="#828282"/>
<path d="M630.639 932L540.241 1087.65L610.769 1128.61L701.167 972.96L686.763 964.703L665.903 952.48L630.639 932Z" fill="#828282"/>
<path d="M629.801 1090.87L597.649 1072.21L577.353 1107.18L609.505 1125.84L629.801 1090.87Z" fill="#D9D9D9"/>
<path d="M595.673 1071.09L563.521 1052.43L543.225 1087.4L575.377 1106.06L595.673 1071.09Z" fill="#D9D9D9"/>
<path d="M697.801 973.866L665.649 955.206L645.353 990.178L677.505 1008.84L697.801 973.866Z" fill="#D9D9D9"/>
<path d="M663.673 954.086L631.521 935.426L611.225 970.398L643.377 989.057L663.673 954.086Z" fill="#D9D9D9"/>
<path d="M62.9999 379H187V681H62.9999V379Z" fill="#A8A8A8"/>
<path d="M175 555H222V563H175V555Z" fill="#A8A8A8"/>
<path d="M175 482H222V490H175V482Z" fill="#A8A8A8"/>
<path d="M599 301H735V671H599V301Z" fill="#A8A8A8"/>
<path d="M612 484H565V492H612V484Z" fill="#A8A8A8"/>
<path d="M612 411H565V419H612V411Z" fill="#A8A8A8"/>
<path d="M616.041 475V473.368L625.353 464.248C626.206 463.416 626.846 462.691 627.273 462.072C627.7 461.432 627.988 460.835 628.137 460.28C628.286 459.725 628.361 459.203 628.361 458.712C628.361 457.411 627.913 456.387 627.017 455.64C626.142 454.893 624.841 454.52 623.113 454.52C621.79 454.52 620.617 454.723 619.593 455.128C618.59 455.533 617.726 456.163 617.001 457.016L615.369 455.608C616.244 454.584 617.364 453.795 618.729 453.24C620.094 452.685 621.62 452.408 623.305 452.408C624.82 452.408 626.132 452.653 627.241 453.144C628.35 453.613 629.204 454.307 629.801 455.224C630.42 456.141 630.729 457.219 630.729 458.456C630.729 459.181 630.622 459.896 630.409 460.6C630.217 461.304 629.854 462.051 629.321 462.84C628.809 463.608 628.052 464.483 627.049 465.464L618.505 473.848L617.865 472.952H631.753V475H616.041Z" fill="black"/>
<path d="M632.262 469.112V467.448L644.134 452.6H646.694L634.918 467.448L633.67 467.064H651.686V469.112H632.262ZM644.902 475V469.112L644.966 467.064V461.88H647.206V475H644.902Z" fill="black"/>
<path d="M655.614 475V453.56L656.638 454.648H650.334V452.6H657.918V475H655.614Z" fill="black"/>
<path d="M662.248 467.32V465.336H670.632V467.32H662.248Z" fill="black"/>
<path d="M672.14 475V473.368L681.452 464.248C682.305 463.416 682.945 462.691 683.372 462.072C683.798 461.432 684.087 460.835 684.236 460.28C684.385 459.725 684.46 459.203 684.46 458.712C684.46 457.411 684.012 456.387 683.116 455.64C682.241 454.893 680.94 454.52 679.212 454.52C677.889 454.52 676.716 454.723 675.692 455.128C674.689 455.533 673.825 456.163 673.1 457.016L671.468 455.608C672.343 454.584 673.462 453.795 674.828 453.24C676.193 452.685 677.718 452.408 679.404 452.408C680.918 452.408 682.231 452.653 683.34 453.144C684.449 453.613 685.303 454.307 685.9 455.224C686.519 456.141 686.828 457.219 686.828 458.456C686.828 459.181 686.721 459.896 686.508 460.6C686.316 461.304 685.953 462.051 685.42 462.84C684.908 463.608 684.15 464.483 683.148 465.464L674.604 473.848L673.964 472.952H687.852V475H672.14Z" fill="black"/>
<path d="M696.535 475.192C694.935 475.192 693.41 474.936 691.959 474.424C690.509 473.891 689.357 473.187 688.503 472.312L689.623 470.488C690.327 471.235 691.287 471.853 692.503 472.344C693.741 472.835 695.074 473.08 696.503 473.08C698.402 473.08 699.842 472.664 700.823 471.832C701.826 470.979 702.327 469.869 702.327 468.504C702.327 467.544 702.093 466.723 701.623 466.04C701.175 465.336 700.407 464.792 699.319 464.408C698.231 464.024 696.738 463.832 694.839 463.832H690.071L691.223 452.6H703.479V454.648H692.151L693.335 453.528L692.343 462.936L691.159 461.784H695.351C697.613 461.784 699.426 462.061 700.791 462.616C702.157 463.171 703.138 463.949 703.735 464.952C704.354 465.933 704.663 467.085 704.663 468.408C704.663 469.667 704.365 470.819 703.767 471.864C703.17 472.888 702.274 473.699 701.079 474.296C699.885 474.893 698.37 475.192 696.535 475.192Z" fill="black"/>
<path d="M710.212 475V453.56L711.236 454.648H704.932V452.6H712.516V475H710.212Z" fill="black"/>
</svg>
