<svg width="1400" height="1400" viewBox="0 0 1400 1400" fill="none" xmlns="http://www.w3.org/2000/svg">
<rect width="1400" height="1400" fill="white"/>
<path d="M907.217 1002.32L937.743 982.8L1012.27 1028.44L907.217 1092.49V1002.32Z" fill="#D9D9D9"/>
<path d="M937.743 982.798L937.743 943.761L1012.27 903.077V1028.44L937.743 982.798Z" fill="#D9D9D9"/>
<path d="M937.743 943.763L907.217 924.245L884.667 839.297L1012.27 903.077L937.743 943.763Z" fill="#D9D9D9"/>
<path d="M907.217 1002.32L876.691 982.8L797.764 1028.44L907.217 1092.49V1002.32Z" fill="#D9D9D9"/>
<path d="M876.691 982.8L876.691 943.764L797.764 893.73L797.764 1028.44L876.691 982.8Z" fill="#D9D9D9"/>
<path d="M907.217 924.245L876.691 943.764L797.764 893.73L884.667 839.297L907.217 924.245Z" fill="#D9D9D9"/>
<path d="M999.345 829.068L1046.37 802.952L1125.57 839.24L1012.27 902.744L999.345 829.068Z" fill="#383838"/>
<path d="M1046.37 802.952V750.719L1125.57 715.805V839.24L1046.37 802.952Z" fill="#383838"/>
<path d="M1046.37 750.719L999.345 724.602L1005.12 653.676L1125.57 715.805L1046.37 750.719Z" fill="#383838"/>
<path d="M999.345 829.068L952.456 802.951L884.667 838.965L1012.27 902.744L999.345 829.068Z" fill="#383838"/>
<path d="M952.456 802.951L952.181 750.718L884.667 715.53V838.965L952.456 802.951Z" fill="#383838"/>
<path d="M999.345 724.602L952.181 750.718L884.667 715.53L1005.12 653.676L999.345 724.602Z" fill="#383838"/>
<path d="M999.345 845.288L1060.95 811.199L1125.57 839.24L1012.27 902.744L999.345 845.288Z" fill="#A8A8A8"/>
<path d="M1060.95 811.199V742.197L1125.57 715.805V839.24L1060.95 811.199Z" fill="#A8A8A8"/>
<path d="M1060.95 742.197L999.345 710.857L1005.12 653.676L1125.57 715.805L1060.95 742.197Z" fill="#A8A8A8"/>
<path d="M999.345 845.288L939.393 812.299L884.667 838.965L1012.27 902.744L999.345 845.288Z" fill="#A8A8A8"/>
<path d="M939.393 812.299V742.197L884.667 715.53V838.965L939.393 812.299Z" fill="#A8A8A8"/>
<path d="M999.345 710.857L939.393 742.197L884.667 715.53L1005.12 653.676L999.345 710.857Z" fill="#A8A8A8"/>
<path d="M395.98 829.068L348.954 802.952L269.752 839.24L383.054 902.744L395.98 829.068Z" fill="#383838"/>
<path d="M348.954 802.952V750.719L269.752 715.805V839.24L348.954 802.952Z" fill="#383838"/>
<path d="M348.954 750.719L395.98 724.602L390.205 653.676L269.752 715.805L348.954 750.719Z" fill="#383838"/>
<path d="M395.98 829.068L442.868 802.951L510.657 838.965L383.054 902.744L395.98 829.068Z" fill="#383838"/>
<path d="M442.868 802.951L443.143 750.718L510.657 715.53V838.965L442.868 802.951Z" fill="#383838"/>
<path d="M395.98 724.602L443.143 750.718L510.657 715.53L390.205 653.676L395.98 724.602Z" fill="#383838"/>
<path d="M395.98 845.288L334.378 811.199L269.752 839.24L383.054 902.744L395.98 845.288Z" fill="#A8A8A8"/>
<path d="M334.378 811.199V742.197L269.752 715.805V839.24L334.378 811.199Z" fill="#A8A8A8"/>
<path d="M334.378 742.197L395.98 710.857L390.205 653.676L269.752 715.805L334.378 742.197Z" fill="#A8A8A8"/>
<path d="M395.98 845.288L455.931 812.299L510.657 838.965L383.054 902.744L395.98 845.288Z" fill="#A8A8A8"/>
<path d="M455.931 812.299V742.197L510.657 715.53V838.965L455.931 812.299Z" fill="#A8A8A8"/>
<path d="M395.98 710.857L455.931 742.197L510.657 715.53L390.205 653.676L395.98 710.857Z" fill="#A8A8A8"/>
<path d="M488.107 1002.32L457.581 982.8L383.054 1028.44L490.307 1095.79L488.107 1002.32Z" fill="#D9D9D9"/>
<path d="M457.581 982.798L457.581 943.761L383.054 903.077V1028.44L457.581 982.798Z" fill="#D9D9D9"/>
<path d="M457.581 943.763L488.107 924.245L510.657 839.297L383.054 903.077L457.581 943.763Z" fill="#D9D9D9"/>
<path d="M488.107 1002.32L518.633 982.8L597.56 1028.44L490.307 1095.79L488.107 1002.32Z" fill="#D9D9D9"/>
<path d="M518.633 982.8L518.633 943.764L597.56 893.73L597.56 1028.44L518.633 982.8Z" fill="#D9D9D9"/>
<path d="M488.107 924.245L518.633 943.764L597.56 893.73L510.657 839.297L488.107 924.245Z" fill="#D9D9D9"/>
<path d="M488.107 1019.36L443.006 992.148L383.054 1028.44L488.107 1094.5V1019.36Z" fill="#444444"/>
<path d="M443.006 992.148V937.715L383.054 903.077V1028.44L443.006 992.148Z" fill="#444444"/>
<path d="M443.006 937.715L488.107 909.4L510.657 839.297L383.054 903.077L443.006 937.715Z" fill="#444444"/>
<path d="M488.107 1019.36L529.633 992.148L597.56 1028.44L488.107 1094.5V1019.36Z" fill="#444444"/>
<path d="M529.633 992.148V937.715L597.56 893.73L597.56 1028.44L529.633 992.148Z" fill="#444444"/>
<path d="M488.107 909.4L529.633 937.715L597.56 893.73L510.657 839.297L488.107 909.4Z" fill="#444444"/>
<path d="M907.218 1019.36L952.319 992.148L1012.27 1028.44L907.218 1089.81V1019.36Z" fill="#444444"/>
<path d="M952.319 992.148V937.715L1012.27 903.077V1028.44L952.319 992.148Z" fill="#444444"/>
<path d="M952.319 937.715L907.218 909.4L884.667 839.297L1012.27 903.077L952.319 937.715Z" fill="#444444"/>
<path d="M907.218 1019.36L865.692 992.148L797.764 1028.44L907.218 1089.81V1019.36Z" fill="#444444"/>
<path d="M865.692 992.148V937.715L797.764 893.73L797.764 1028.44L865.692 992.148Z" fill="#444444"/>
<path d="M907.218 909.4L865.692 937.715L797.764 893.73L884.667 839.297L907.218 909.4Z" fill="#444444"/>
<path d="M402.831 648.751L402.831 717.204L353.604 746.07L298.328 715.005V647.102L347.279 619.336L402.831 648.751Z" fill="#D9D9D9"/>
<path d="M992.503 648.751V717.204L1041.73 746.07L1097.01 715.005V647.102L1048.05 619.336L992.503 648.751Z" fill="#D9D9D9"/>
<path d="M190 225.783L290.102 166.128L392.405 225.783V326.675L490.07 390.835V491.813L392.405 546.604V652.444L269.752 715.674L190 678.286V225.783Z" fill="#D9D9D9"/>
<path d="M980.094 111.58L1094.77 50L1210 111.58V694.39L1125.86 745.002L980.094 674.871V451.644L885.212 393.805V277.944L980.094 226.767V111.58Z" fill="#D9D9D9"/>
<path d="M609.935 1116.49L661.361 1144.81L681.987 1131.61V1124.47L697.662 1132.71L697.702 1350L563.184 1276.19V1122.27L596.46 1097.8L609.935 1116.49Z" fill="#D9D9D9"/>
<path d="M653.111 965.292H697.662V1132.71L610.76 1087.35L563.184 1122.27L541.183 1062.34L588.759 1021.37L597.01 1001.31L653.111 965.292Z" fill="#D9D9D9"/>
<path d="M785.429 1116.49L734.003 1144.81L713.378 1131.61V1124.47L697.702 1132.71L697.662 1350L832.18 1276.19V1122.27L798.905 1097.8L785.429 1116.49Z" fill="#D9D9D9"/>
<path d="M742.253 965.292H697.702V1132.71L784.604 1087.35L832.18 1122.27L854.181 1062.34L806.605 1021.37L798.355 1001.31L742.253 965.292Z" fill="#D9D9D9"/>
<path d="M268.146 1143.56L364.603 1309.59L336.964 1325.63L240.507 1159.61L246.184 1156.43L254.327 1151.58L268.146 1143.56Z" fill="#828282"/>
<path d="M546.967 1076.07L561.416 1100.94L428.366 1178.18L413.918 1153.31L546.967 1076.07Z" fill="#828282"/>
<path d="M353.982 1050.16L488.269 1281.31L383.5 1342.13L249.213 1110.99L270.611 1098.73L301.598 1080.58L353.982 1050.16Z" fill="#828282"/>
<path d="M355.224 1286.08L402.986 1258.37L433.135 1310.3L385.374 1338.01L355.224 1286.08Z" fill="#D9D9D9"/>
<path d="M405.922 1256.7L453.684 1228.99L483.833 1280.93L436.071 1308.63L405.922 1256.7Z" fill="#D9D9D9"/>
<path d="M254.211 1112.33L301.972 1084.62L332.122 1136.56L284.36 1164.27L254.211 1112.33Z" fill="#D9D9D9"/>
<path d="M304.908 1082.96L352.67 1055.25L382.819 1107.18L335.058 1134.89L304.908 1082.96Z" fill="#D9D9D9"/>
<path d="M1127.97 1143.56L1031.52 1309.59L1059.16 1325.63L1155.61 1159.61L1149.94 1156.43L1141.79 1151.58L1127.97 1143.56Z" fill="#828282"/>
<path d="M849.153 1076.07L834.705 1100.94L967.755 1178.18L982.203 1153.31L849.153 1076.07Z" fill="#828282"/>
<path d="M1042.14 1050.16L907.852 1281.31L1012.62 1342.13L1146.91 1110.99L1125.51 1098.73L1094.52 1080.58L1042.14 1050.16Z" fill="#828282"/>
<path d="M1040.89 1286.08L993.131 1258.37L962.982 1310.3L1010.74 1338.01L1040.89 1286.08Z" fill="#D9D9D9"/>
<path d="M990.196 1256.7L942.434 1228.99L912.285 1280.93L960.046 1308.63L990.196 1256.7Z" fill="#D9D9D9"/>
<path d="M1141.91 1112.33L1094.15 1084.62L1064 1136.56L1111.76 1164.27L1141.91 1112.33Z" fill="#D9D9D9"/>
<path d="M1091.21 1082.96L1043.45 1055.25L1013.3 1107.18L1061.06 1134.89L1091.21 1082.96Z" fill="#D9D9D9"/>
<path d="M198.913 228.973H383.114V677.435H198.913V228.973Z" fill="#A8A8A8"/>
<path d="M365.288 490.328H435.107V502.208H365.288V490.328Z" fill="#A8A8A8"/>
<path d="M365.288 381.925H435.107V393.805H365.288V381.925Z" fill="#A8A8A8"/>
<path d="M995.138 113.145H1197.17V662.585H995.138V113.145Z" fill="#A8A8A8"/>
<path d="M1014.45 384.895H944.631V396.775H1014.45V384.895Z" fill="#A8A8A8"/>
<path d="M1014.45 276.492H944.631V288.372H1014.45V276.492Z" fill="#A8A8A8"/>
<path d="M1006.11 362.787V360.316L1023.75 338.267H1027.55L1010.05 360.316L1008.2 359.746H1034.96V362.787H1006.11ZM1024.89 371.53V362.787L1024.98 359.746V352.048H1028.31V371.53H1024.89Z" fill="black"/>
<path d="M1045.44 371.816C1043.04 371.816 1040.75 371.435 1038.6 370.675C1036.48 369.883 1034.76 368.838 1033.47 367.539L1035.13 364.83C1036.21 365.939 1037.65 366.858 1039.46 367.586C1041.29 368.315 1043.29 368.679 1045.44 368.679C1048.2 368.679 1050.31 368.077 1051.77 366.874C1053.26 365.67 1054 364.054 1054 362.027C1054 359.999 1053.27 358.383 1051.81 357.18C1050.39 355.976 1048.12 355.374 1045.02 355.374H1042.64V352.855L1052.91 339.978L1053.38 341.308H1034.84V338.267H1056.24V340.69L1045.97 353.568L1044.3 352.475H1045.59C1049.58 352.475 1052.56 353.362 1054.52 355.136C1056.52 356.91 1057.52 359.191 1057.52 361.979C1057.52 363.848 1057.07 365.527 1056.19 367.016C1055.3 368.505 1053.95 369.677 1052.15 370.533C1050.37 371.388 1048.14 371.816 1045.44 371.816Z" fill="black"/>
<path d="M1065.68 371.53L1080.04 339.788L1081.08 341.308H1060.5L1062.26 339.645V347.533H1058.89V338.267H1083.32V340.69L1069.39 371.53H1065.68Z" fill="black"/>
<path d="M1083.94 360.126V357.18H1096.39V360.126H1083.94Z" fill="black"/>
<path d="M1099.61 362.787V360.316L1117.25 338.267H1121.05L1103.56 360.316L1101.7 359.746H1128.46V362.787H1099.61ZM1118.39 371.53V362.787L1118.48 359.746V352.048H1121.81V371.53H1118.39Z" fill="black"/>
<path d="M1140.12 371.816C1137.74 371.816 1135.48 371.435 1133.32 370.675C1131.17 369.883 1129.46 368.838 1128.19 367.539L1129.85 364.83C1130.9 365.939 1132.32 366.858 1134.13 367.586C1135.97 368.315 1137.95 368.679 1140.07 368.679C1142.89 368.679 1145.03 368.062 1146.49 366.826C1147.98 365.559 1148.72 363.912 1148.72 361.884C1148.72 360.458 1148.37 359.239 1147.68 358.225C1147.01 357.18 1145.87 356.372 1144.25 355.802C1142.64 355.231 1140.42 354.946 1137.6 354.946H1130.52L1132.23 338.267H1150.43V341.308H1133.61L1135.37 339.645L1133.89 353.616L1132.13 351.905H1138.36C1141.72 351.905 1144.41 352.317 1146.44 353.14C1148.47 353.964 1149.93 355.12 1150.81 356.609C1151.73 358.067 1152.19 359.777 1152.19 361.741C1152.19 363.611 1151.75 365.321 1150.86 366.874C1149.97 368.394 1148.64 369.598 1146.87 370.485C1145.09 371.372 1142.84 371.816 1140.12 371.816Z" fill="black"/>
<path d="M1167.9 371.816C1165.33 371.816 1163.05 371.15 1161.05 369.82C1159.06 368.458 1157.49 366.525 1156.35 364.022C1155.21 361.488 1154.64 358.447 1154.64 354.899C1154.64 351.351 1155.21 348.325 1156.35 345.823C1157.49 343.288 1159.06 341.356 1161.05 340.025C1163.05 338.663 1165.33 337.982 1167.9 337.982C1170.47 337.982 1172.75 338.663 1174.74 340.025C1176.74 341.356 1178.31 343.288 1179.45 345.823C1180.62 348.325 1181.21 351.351 1181.21 354.899C1181.21 358.447 1180.62 361.488 1179.45 364.022C1178.31 366.525 1176.74 368.458 1174.74 369.82C1172.75 371.15 1170.47 371.816 1167.9 371.816ZM1167.9 368.679C1169.86 368.679 1171.58 368.157 1173.03 367.111C1174.49 366.034 1175.63 364.482 1176.46 362.454C1177.28 360.395 1177.69 357.877 1177.69 354.899C1177.69 351.921 1177.28 349.418 1176.46 347.391C1175.63 345.332 1174.49 343.779 1173.03 342.734C1171.58 341.657 1169.86 341.118 1167.9 341.118C1166 341.118 1164.3 341.657 1162.81 342.734C1161.32 343.779 1160.17 345.332 1159.34 347.391C1158.52 349.418 1158.11 351.921 1158.11 354.899C1158.11 357.877 1158.52 360.395 1159.34 362.454C1160.17 364.482 1161.32 366.034 1162.81 367.111C1164.3 368.157 1166 368.679 1167.9 368.679Z" fill="black"/>
</svg>
