<svg width="800" height="1400" viewBox="0 0 800 1400" fill="none" xmlns="http://www.w3.org/2000/svg">
<rect width="800" height="1400" fill="white"/>
<path d="M539.814 899.781L560.363 886.637L610.532 917.368L539.814 960.5V899.781Z" fill="#D9D9D9"/>
<path d="M560.363 886.635L560.363 860.347L610.532 832.95V917.368L560.363 886.635Z" fill="#D9D9D9"/>
<path d="M560.363 860.349L539.814 847.205L524.633 790L610.532 832.95L560.363 860.349Z" fill="#D9D9D9"/>
<path d="M539.814 899.781L519.264 886.637L466.133 917.368L539.814 960.5V899.781Z" fill="#D9D9D9"/>
<path d="M519.264 886.637L519.264 860.349L466.133 826.655L466.133 917.368L519.264 886.637Z" fill="#D9D9D9"/>
<path d="M539.814 847.205L519.264 860.349L466.133 826.655L524.633 790L539.814 847.205Z" fill="#D9D9D9"/>
<path d="M601.832 783.112L633.489 765.525L686.806 789.961L610.533 832.726L601.832 783.112Z" fill="#383838"/>
<path d="M633.489 765.525V730.35L686.806 706.839V789.961L633.489 765.525Z" fill="#383838"/>
<path d="M633.489 730.35L601.832 712.763L605.72 665L686.806 706.839L633.489 730.35Z" fill="#383838"/>
<path d="M601.832 783.112L570.268 765.524L524.634 789.776L610.533 832.726L601.832 783.112Z" fill="#383838"/>
<path d="M570.268 765.524L570.082 730.35L524.634 706.654V789.776L570.268 765.524Z" fill="#383838"/>
<path d="M601.832 712.763L570.082 730.35L524.634 706.654L605.72 665L601.832 712.763Z" fill="#383838"/>
<path d="M601.832 794.034L643.301 771.078L686.806 789.961L610.533 832.726L601.832 794.034Z" fill="#A8A8A8"/>
<path d="M643.301 771.078V724.611L686.806 706.839V789.961L643.301 771.078Z" fill="#A8A8A8"/>
<path d="M643.301 724.611L601.832 703.507L605.72 665L686.806 706.839L643.301 724.611Z" fill="#A8A8A8"/>
<path d="M601.832 794.034L561.474 771.819L524.634 789.776L610.533 832.726L601.832 794.034Z" fill="#A8A8A8"/>
<path d="M561.474 771.819V724.611L524.634 706.654V789.776L561.474 771.819Z" fill="#A8A8A8"/>
<path d="M601.832 703.507L561.474 724.611L524.634 706.654L605.72 665L601.832 703.507Z" fill="#A8A8A8"/>
<path d="M195.661 783.112L164.004 765.525L110.687 789.961L186.96 832.726L195.661 783.112Z" fill="#383838"/>
<path d="M164.004 765.525V730.35L110.687 706.839V789.961L164.004 765.525Z" fill="#383838"/>
<path d="M164.004 730.35L195.661 712.763L191.773 665L110.687 706.839L164.004 730.35Z" fill="#383838"/>
<path d="M195.661 783.112L227.225 765.524L272.859 789.776L186.96 832.726L195.661 783.112Z" fill="#383838"/>
<path d="M227.225 765.524L227.41 730.35L272.859 706.654V789.776L227.225 765.524Z" fill="#383838"/>
<path d="M195.661 712.763L227.41 730.35L272.859 706.654L191.773 665L195.661 712.763Z" fill="#383838"/>
<path d="M195.661 794.034L154.192 771.078L110.687 789.961L186.96 832.726L195.661 794.034Z" fill="#A8A8A8"/>
<path d="M154.192 771.078V724.611L110.687 706.839V789.961L154.192 771.078Z" fill="#A8A8A8"/>
<path d="M154.192 724.611L195.661 703.507L191.773 665L110.687 706.839L154.192 724.611Z" fill="#A8A8A8"/>
<path d="M195.661 794.034L236.018 771.819L272.859 789.776L186.96 832.726L195.661 794.034Z" fill="#A8A8A8"/>
<path d="M236.018 771.819V724.611L272.859 706.654V789.776L236.018 771.819Z" fill="#A8A8A8"/>
<path d="M195.661 703.507L236.018 724.611L272.859 706.654L191.773 665L195.661 703.507Z" fill="#A8A8A8"/>
<path d="M257.679 899.781L237.129 886.637L186.96 917.368L259.16 962.724L257.679 899.781Z" fill="#D9D9D9"/>
<path d="M237.129 886.635L237.129 860.347L186.96 832.95V917.368L237.129 886.635Z" fill="#D9D9D9"/>
<path d="M237.129 860.349L257.679 847.205L272.859 790L186.96 832.95L237.129 860.349Z" fill="#D9D9D9"/>
<path d="M257.679 899.781L278.228 886.637L331.36 917.368L259.16 962.724L257.679 899.781Z" fill="#D9D9D9"/>
<path d="M278.228 886.637L278.228 860.349L331.359 826.655L331.36 917.368L278.228 886.637Z" fill="#D9D9D9"/>
<path d="M257.679 847.205L278.228 860.349L331.359 826.655L272.859 790L257.679 847.205Z" fill="#D9D9D9"/>
<path d="M257.679 911.259L227.318 892.931L186.96 917.368L257.679 961.86V911.259Z" fill="#444444"/>
<path d="M227.318 892.931V856.276L186.96 832.95V917.368L227.318 892.931Z" fill="#444444"/>
<path d="M227.318 856.276L257.679 837.208L272.859 790L186.96 832.95L227.318 856.276Z" fill="#444444"/>
<path d="M257.679 911.259L285.633 892.931L331.36 917.368L257.679 961.86V911.259Z" fill="#444444"/>
<path d="M285.633 892.931V856.276L331.359 826.655L331.36 917.368L285.633 892.931Z" fill="#444444"/>
<path d="M257.679 837.208L285.633 856.276L331.359 826.655L272.859 790L257.679 837.208Z" fill="#444444"/>
<path d="M539.814 911.259L570.175 892.931L610.532 917.368L539.814 958.697V911.259Z" fill="#444444"/>
<path d="M570.175 892.931V856.276L610.532 832.95V917.368L570.175 892.931Z" fill="#444444"/>
<path d="M570.175 856.276L539.814 837.208L524.633 790L610.532 832.95L570.175 856.276Z" fill="#444444"/>
<path d="M539.814 911.259L511.86 892.931L466.133 917.368L539.814 958.697V911.259Z" fill="#444444"/>
<path d="M511.86 892.931V856.276L466.133 826.655L466.133 917.368L511.86 892.931Z" fill="#444444"/>
<path d="M539.814 837.208L511.86 856.276L466.133 826.655L524.633 790L539.814 837.208Z" fill="#444444"/>
<path d="M200.273 661.684L200.273 707.781L167.135 727.219L129.924 706.3V660.573L162.877 641.875L200.273 661.684Z" fill="#D9D9D9"/>
<path d="M597.226 661.684V707.781L630.364 727.219L667.575 706.3V660.573L634.622 641.875L597.226 661.684Z" fill="#D9D9D9"/>
<path d="M57 376.852L124.387 336.679L193.254 376.852V444.794L259 488V556L193.254 592.896V664.171L110.687 706.75L57 681.573V376.852Z" fill="#D9D9D9"/>
<path d="M588.873 299.946L666.071 258.477L743.64 299.946V692.417L687 726.5L588.873 679.273V528.949L525 490V411.977L588.873 377.515V299.946Z" fill="#D9D9D9"/>
<path d="M339.69 976.667L374.309 995.735L388.194 986.849V982.036L398.746 987.589L398.773 1133.91L308.219 1084.21V980.555L330.619 964.078L339.69 976.667Z" fill="#D9D9D9"/>
<path d="M368.755 874.846H398.746V987.589L340.246 957.043L308.219 980.555L293.408 940.197L325.435 912.613L330.989 899.098L368.755 874.846Z" fill="#D9D9D9"/>
<path d="M457.829 976.667L423.21 995.735L409.325 986.849V982.036L398.773 987.589L398.746 1133.91L489.301 1084.21V980.555L466.9 964.078L457.829 976.667Z" fill="#D9D9D9"/>
<path d="M428.764 874.846H398.773V987.589L457.274 957.043L489.301 980.555L504.111 940.197L472.084 912.613L466.53 899.098L428.764 874.846Z" fill="#D9D9D9"/>
<path d="M109.606 994.894L174.539 1106.7L155.933 1117.5L91 1005.7L94.8215 1003.56L100.303 1000.3L109.606 994.894Z" fill="#828282"/>
<path d="M297.302 949.446L307.028 966.193L217.462 1018.21L207.736 1001.46L297.302 949.446Z" fill="#828282"/>
<path d="M167.389 932L257.788 1087.65L187.26 1128.61L96.8609 972.96L111.266 964.703L132.125 952.48L167.389 932Z" fill="#828282"/>
<path d="M168.225 1090.87L200.377 1072.21L220.673 1107.18L188.521 1125.84L168.225 1090.87Z" fill="#D9D9D9"/>
<path d="M202.353 1071.09L234.506 1052.43L254.801 1087.4L222.649 1106.06L202.353 1071.09Z" fill="#D9D9D9"/>
<path d="M100.225 973.866L132.377 955.206L152.673 990.178L120.521 1008.84L100.225 973.866Z" fill="#D9D9D9"/>
<path d="M134.353 954.086L166.506 935.426L186.801 970.398L154.649 989.057L134.353 954.086Z" fill="#D9D9D9"/>
<path d="M688.422 994.894L623.489 1106.7L642.096 1117.5L707.028 1005.7L703.207 1003.56L697.725 1000.3L688.422 994.894Z" fill="#828282"/>
<path d="M500.726 949.446L491 966.193L580.566 1018.21L590.292 1001.46L500.726 949.446Z" fill="#828282"/>
<path d="M630.639 932L540.241 1087.65L610.769 1128.61L701.167 972.96L686.763 964.703L665.903 952.48L630.639 932Z" fill="#828282"/>
<path d="M629.801 1090.87L597.649 1072.21L577.353 1107.18L609.505 1125.84L629.801 1090.87Z" fill="#D9D9D9"/>
<path d="M595.673 1071.09L563.521 1052.43L543.225 1087.4L575.377 1106.06L595.673 1071.09Z" fill="#D9D9D9"/>
<path d="M697.801 973.866L665.649 955.206L645.353 990.178L677.505 1008.84L697.801 973.866Z" fill="#D9D9D9"/>
<path d="M663.673 954.086L631.521 935.426L611.225 970.398L643.377 989.057L663.673 954.086Z" fill="#D9D9D9"/>
<path d="M62.9999 379H187V681H62.9999V379Z" fill="#A8A8A8"/>
<path d="M175 555H222V563H175V555Z" fill="#A8A8A8"/>
<path d="M175 482H222V490H175V482Z" fill="#A8A8A8"/>
<path d="M599 301H735V671H599V301Z" fill="#A8A8A8"/>
<path d="M612 484H565V492H612V484Z" fill="#A8A8A8"/>
<path d="M612 411H565V419H612V411Z" fill="#A8A8A8"/>
<path d="M616.357 475.192C614.757 475.192 613.232 474.936 611.781 474.424C610.331 473.891 609.179 473.187 608.325 472.312L609.445 470.488C610.149 471.235 611.109 471.853 612.325 472.344C613.563 472.835 614.896 473.08 616.325 473.08C618.224 473.08 619.664 472.664 620.645 471.832C621.648 470.979 622.149 469.869 622.149 468.504C622.149 467.544 621.915 466.723 621.445 466.04C620.997 465.336 620.229 464.792 619.141 464.408C618.053 464.024 616.56 463.832 614.661 463.832H609.893L611.045 452.6H623.301V454.648H611.973L613.157 453.528L612.165 462.936L610.981 461.784H615.173C617.435 461.784 619.248 462.061 620.613 462.616C621.978 463.171 622.96 463.949 623.557 464.952C624.176 465.933 624.485 467.085 624.485 468.408C624.485 469.667 624.187 470.819 623.589 471.864C622.992 472.888 622.096 473.699 620.901 474.296C619.707 474.893 618.192 475.192 616.357 475.192Z" fill="black"/>
<path d="M625.746 469.112V467.448L637.618 452.6H640.178L628.402 467.448L627.154 467.064H645.17V469.112H625.746ZM638.386 475V469.112L638.45 467.064V461.88H640.69V475H638.386Z" fill="black"/>
<path d="M645.528 475V473.368L654.84 464.248C655.693 463.416 656.333 462.691 656.76 462.072C657.187 461.432 657.475 460.835 657.624 460.28C657.773 459.725 657.848 459.203 657.848 458.712C657.848 457.411 657.4 456.387 656.504 455.64C655.629 454.893 654.328 454.52 652.6 454.52C651.277 454.52 650.104 454.723 649.08 455.128C648.077 455.533 647.213 456.163 646.488 457.016L644.856 455.608C645.731 454.584 646.851 453.795 648.216 453.24C649.581 452.685 651.107 452.408 652.792 452.408C654.307 452.408 655.619 452.653 656.728 453.144C657.837 453.613 658.691 454.307 659.288 455.224C659.907 456.141 660.216 457.219 660.216 458.456C660.216 459.181 660.109 459.896 659.896 460.6C659.704 461.304 659.341 462.051 658.808 462.84C658.296 463.608 657.539 464.483 656.536 465.464L647.992 473.848L647.352 472.952H661.24V475H645.528Z" fill="black"/>
<path d="M662.857 467.32V465.336H671.241V467.32H662.857Z" fill="black"/>
<path d="M680.612 475.192C679.012 475.192 677.487 474.936 676.036 474.424C674.586 473.891 673.434 473.187 672.58 472.312L673.7 470.488C674.404 471.235 675.364 471.853 676.58 472.344C677.818 472.835 679.151 473.08 680.58 473.08C682.479 473.08 683.919 472.664 684.9 471.832C685.903 470.979 686.404 469.869 686.404 468.504C686.404 467.544 686.17 466.723 685.7 466.04C685.252 465.336 684.484 464.792 683.396 464.408C682.308 464.024 680.815 463.832 678.916 463.832H674.148L675.3 452.6H687.556V454.648H676.228L677.412 453.528L676.42 462.936L675.236 461.784H679.428C681.689 461.784 683.503 462.061 684.868 462.616C686.233 463.171 687.215 463.949 687.812 464.952C688.431 465.933 688.74 467.085 688.74 468.408C688.74 469.667 688.442 470.819 687.844 471.864C687.247 472.888 686.351 473.699 685.156 474.296C683.962 474.893 682.447 475.192 680.612 475.192Z" fill="black"/>
<path d="M697.301 475.192C695.701 475.192 694.176 474.936 692.725 474.424C691.274 473.891 690.122 473.187 689.269 472.312L690.389 470.488C691.093 471.235 692.053 471.853 693.269 472.344C694.506 472.835 695.84 473.08 697.269 473.08C699.168 473.08 700.608 472.664 701.589 471.832C702.592 470.979 703.093 469.869 703.093 468.504C703.093 467.544 702.858 466.723 702.389 466.04C701.941 465.336 701.173 464.792 700.085 464.408C698.997 464.024 697.504 463.832 695.605 463.832H690.837L691.989 452.6H704.245V454.648H692.917L694.101 453.528L693.109 462.936L691.925 461.784H696.117C698.378 461.784 700.192 462.061 701.557 462.616C702.922 463.171 703.904 463.949 704.501 464.952C705.12 465.933 705.429 467.085 705.429 468.408C705.429 469.667 705.13 470.819 704.533 471.864C703.936 472.888 703.04 473.699 701.845 474.296C700.65 474.893 699.136 475.192 697.301 475.192Z" fill="black"/>
<path d="M713.99 475.192C712.39 475.192 710.864 474.936 709.414 474.424C707.963 473.891 706.811 473.187 705.958 472.312L707.078 470.488C707.782 471.235 708.742 471.853 709.958 472.344C711.195 472.835 712.528 473.08 713.958 473.08C715.856 473.08 717.296 472.664 718.278 471.832C719.28 470.979 719.782 469.869 719.782 468.504C719.782 467.544 719.547 466.723 719.078 466.04C718.63 465.336 717.862 464.792 716.774 464.408C715.686 464.024 714.192 463.832 712.294 463.832H707.526L708.678 452.6H720.934V454.648H709.606L710.79 453.528L709.798 462.936L708.614 461.784H712.806C715.067 461.784 716.88 462.061 718.246 462.616C719.611 463.171 720.592 463.949 721.19 464.952C721.808 465.933 722.118 467.085 722.118 468.408C722.118 469.667 721.819 470.819 721.222 471.864C720.624 472.888 719.728 473.699 718.534 474.296C717.339 474.893 715.824 475.192 713.99 475.192Z" fill="black"/>
</svg>
