<svg width="800" height="1400" viewBox="0 0 800 1400" fill="none" xmlns="http://www.w3.org/2000/svg">
<rect width="800" height="1400" fill="white"/>
<path d="M539.814 899.781L560.363 886.637L610.532 917.368L539.814 960.5V899.781Z" fill="#D9D9D9"/>
<path d="M560.363 886.635L560.363 860.347L610.532 832.95V917.368L560.363 886.635Z" fill="#D9D9D9"/>
<path d="M560.363 860.349L539.814 847.205L524.633 790L610.532 832.95L560.363 860.349Z" fill="#D9D9D9"/>
<path d="M539.814 899.781L519.264 886.637L466.133 917.368L539.814 960.5V899.781Z" fill="#D9D9D9"/>
<path d="M519.264 886.637L519.264 860.349L466.133 826.655L466.133 917.368L519.264 886.637Z" fill="#D9D9D9"/>
<path d="M539.814 847.205L519.264 860.349L466.133 826.655L524.633 790L539.814 847.205Z" fill="#D9D9D9"/>
<path d="M601.832 783.112L633.489 765.525L686.806 789.961L610.533 832.726L601.832 783.112Z" fill="#383838"/>
<path d="M633.489 765.525V730.35L686.806 706.839V789.961L633.489 765.525Z" fill="#383838"/>
<path d="M633.489 730.35L601.832 712.763L605.72 665L686.806 706.839L633.489 730.35Z" fill="#383838"/>
<path d="M601.832 783.112L570.268 765.524L524.634 789.776L610.533 832.726L601.832 783.112Z" fill="#383838"/>
<path d="M570.268 765.524L570.082 730.35L524.634 706.654V789.776L570.268 765.524Z" fill="#383838"/>
<path d="M601.832 712.763L570.082 730.35L524.634 706.654L605.72 665L601.832 712.763Z" fill="#383838"/>
<path d="M601.832 794.034L643.301 771.078L686.806 789.961L610.533 832.726L601.832 794.034Z" fill="#A8A8A8"/>
<path d="M643.301 771.078V724.611L686.806 706.839V789.961L643.301 771.078Z" fill="#A8A8A8"/>
<path d="M643.301 724.611L601.832 703.507L605.72 665L686.806 706.839L643.301 724.611Z" fill="#A8A8A8"/>
<path d="M601.832 794.034L561.474 771.819L524.634 789.776L610.533 832.726L601.832 794.034Z" fill="#A8A8A8"/>
<path d="M561.474 771.819V724.611L524.634 706.654V789.776L561.474 771.819Z" fill="#A8A8A8"/>
<path d="M601.832 703.507L561.474 724.611L524.634 706.654L605.72 665L601.832 703.507Z" fill="#A8A8A8"/>
<path d="M195.661 783.112L164.004 765.525L110.687 789.961L186.96 832.726L195.661 783.112Z" fill="#383838"/>
<path d="M164.004 765.525V730.35L110.687 706.839V789.961L164.004 765.525Z" fill="#383838"/>
<path d="M164.004 730.35L195.661 712.763L191.773 665L110.687 706.839L164.004 730.35Z" fill="#383838"/>
<path d="M195.661 783.112L227.225 765.524L272.859 789.776L186.96 832.726L195.661 783.112Z" fill="#383838"/>
<path d="M227.225 765.524L227.41 730.35L272.859 706.654V789.776L227.225 765.524Z" fill="#383838"/>
<path d="M195.661 712.763L227.41 730.35L272.859 706.654L191.773 665L195.661 712.763Z" fill="#383838"/>
<path d="M195.661 794.034L154.192 771.078L110.687 789.961L186.96 832.726L195.661 794.034Z" fill="#A8A8A8"/>
<path d="M154.192 771.078V724.611L110.687 706.839V789.961L154.192 771.078Z" fill="#A8A8A8"/>
<path d="M154.192 724.611L195.661 703.507L191.773 665L110.687 706.839L154.192 724.611Z" fill="#A8A8A8"/>
<path d="M195.661 794.034L236.018 771.819L272.859 789.776L186.96 832.726L195.661 794.034Z" fill="#A8A8A8"/>
<path d="M236.018 771.819V724.611L272.859 706.654V789.776L236.018 771.819Z" fill="#A8A8A8"/>
<path d="M195.661 703.507L236.018 724.611L272.859 706.654L191.773 665L195.661 703.507Z" fill="#A8A8A8"/>
<path d="M257.679 899.781L237.129 886.637L186.96 917.368L259.16 962.724L257.679 899.781Z" fill="#D9D9D9"/>
<path d="M237.129 886.635L237.129 860.347L186.96 832.95V917.368L237.129 886.635Z" fill="#D9D9D9"/>
<path d="M237.129 860.349L257.679 847.205L272.859 790L186.96 832.95L237.129 860.349Z" fill="#D9D9D9"/>
<path d="M257.679 899.781L278.228 886.637L331.36 917.368L259.16 962.724L257.679 899.781Z" fill="#D9D9D9"/>
<path d="M278.228 886.637L278.228 860.349L331.359 826.655L331.36 917.368L278.228 886.637Z" fill="#D9D9D9"/>
<path d="M257.679 847.205L278.228 860.349L331.359 826.655L272.859 790L257.679 847.205Z" fill="#D9D9D9"/>
<path d="M257.679 911.259L227.318 892.931L186.96 917.368L257.679 961.86V911.259Z" fill="#444444"/>
<path d="M227.318 892.931V856.276L186.96 832.95V917.368L227.318 892.931Z" fill="#444444"/>
<path d="M227.318 856.276L257.679 837.208L272.859 790L186.96 832.95L227.318 856.276Z" fill="#444444"/>
<path d="M257.679 911.259L285.633 892.931L331.36 917.368L257.679 961.86V911.259Z" fill="#444444"/>
<path d="M285.633 892.931V856.276L331.359 826.655L331.36 917.368L285.633 892.931Z" fill="#444444"/>
<path d="M257.679 837.208L285.633 856.276L331.359 826.655L272.859 790L257.679 837.208Z" fill="#444444"/>
<path d="M539.814 911.259L570.175 892.931L610.532 917.368L539.814 958.697V911.259Z" fill="#444444"/>
<path d="M570.175 892.931V856.276L610.532 832.95V917.368L570.175 892.931Z" fill="#444444"/>
<path d="M570.175 856.276L539.814 837.208L524.633 790L610.532 832.95L570.175 856.276Z" fill="#444444"/>
<path d="M539.814 911.259L511.86 892.931L466.133 917.368L539.814 958.697V911.259Z" fill="#444444"/>
<path d="M511.86 892.931V856.276L466.133 826.655L466.133 917.368L511.86 892.931Z" fill="#444444"/>
<path d="M539.814 837.208L511.86 856.276L466.133 826.655L524.633 790L539.814 837.208Z" fill="#444444"/>
<path d="M200.273 661.684L200.273 707.781L167.135 727.219L129.924 706.3V660.573L162.877 641.875L200.273 661.684Z" fill="#D9D9D9"/>
<path d="M597.226 661.684V707.781L630.364 727.219L667.575 706.3V660.573L634.622 641.875L597.226 661.684Z" fill="#D9D9D9"/>
<path d="M57 376.852L124.387 336.679L193.254 376.852V444.794L259 488V556L193.254 592.896V664.171L110.687 706.75L57 681.573V376.852Z" fill="#D9D9D9"/>
<path d="M588.873 299.946L666.071 258.477L743.64 299.946V692.417L687 726.5L588.873 679.273V528.949L525 490V411.977L588.873 377.515V299.946Z" fill="#D9D9D9"/>
<path d="M339.69 976.667L374.309 995.735L388.194 986.849V982.036L398.746 987.589L398.773 1133.91L308.219 1084.21V980.555L330.619 964.078L339.69 976.667Z" fill="#D9D9D9"/>
<path d="M368.755 874.846H398.746V987.589L340.246 957.043L308.219 980.555L293.408 940.197L325.435 912.613L330.989 899.098L368.755 874.846Z" fill="#D9D9D9"/>
<path d="M457.829 976.667L423.21 995.735L409.325 986.849V982.036L398.773 987.589L398.746 1133.91L489.301 1084.21V980.555L466.9 964.078L457.829 976.667Z" fill="#D9D9D9"/>
<path d="M428.764 874.846H398.773V987.589L457.274 957.043L489.301 980.555L504.111 940.197L472.084 912.613L466.53 899.098L428.764 874.846Z" fill="#D9D9D9"/>
<path d="M109.606 994.894L174.539 1106.7L155.933 1117.5L91 1005.7L94.8215 1003.56L100.303 1000.3L109.606 994.894Z" fill="#828282"/>
<path d="M297.302 949.446L307.028 966.193L217.462 1018.21L207.736 1001.46L297.302 949.446Z" fill="#828282"/>
<path d="M167.389 932L257.788 1087.65L187.26 1128.61L96.8609 972.96L111.266 964.703L132.125 952.48L167.389 932Z" fill="#828282"/>
<path d="M168.225 1090.87L200.377 1072.21L220.673 1107.18L188.521 1125.84L168.225 1090.87Z" fill="#D9D9D9"/>
<path d="M202.353 1071.09L234.506 1052.43L254.801 1087.4L222.649 1106.06L202.353 1071.09Z" fill="#D9D9D9"/>
<path d="M100.225 973.866L132.377 955.206L152.673 990.178L120.521 1008.84L100.225 973.866Z" fill="#D9D9D9"/>
<path d="M134.353 954.086L166.506 935.426L186.801 970.398L154.649 989.057L134.353 954.086Z" fill="#D9D9D9"/>
<path d="M688.422 994.894L623.489 1106.7L642.096 1117.5L707.028 1005.7L703.207 1003.56L697.725 1000.3L688.422 994.894Z" fill="#828282"/>
<path d="M500.726 949.446L491 966.193L580.566 1018.21L590.292 1001.46L500.726 949.446Z" fill="#828282"/>
<path d="M630.639 932L540.241 1087.65L610.769 1128.61L701.167 972.96L686.763 964.703L665.903 952.48L630.639 932Z" fill="#828282"/>
<path d="M629.801 1090.87L597.649 1072.21L577.353 1107.18L609.505 1125.84L629.801 1090.87Z" fill="#D9D9D9"/>
<path d="M595.673 1071.09L563.521 1052.43L543.225 1087.4L575.377 1106.06L595.673 1071.09Z" fill="#D9D9D9"/>
<path d="M697.801 973.866L665.649 955.206L645.353 990.178L677.505 1008.84L697.801 973.866Z" fill="#D9D9D9"/>
<path d="M663.673 954.086L631.521 935.426L611.225 970.398L643.377 989.057L663.673 954.086Z" fill="#D9D9D9"/>
<path d="M62.9999 379H187V681H62.9999V379Z" fill="#A8A8A8"/>
<path d="M175 555H222V563H175V555Z" fill="#A8A8A8"/>
<path d="M175 482H222V490H175V482Z" fill="#A8A8A8"/>
<path d="M599 301H735V671H599V301Z" fill="#A8A8A8"/>
<path d="M612 484H565V492H612V484Z" fill="#A8A8A8"/>
<path d="M612 411H565V419H612V411Z" fill="#A8A8A8"/>
<path d="M606.386 469.112V467.448L618.258 452.6H620.818L609.042 467.448L607.794 467.064H625.81V469.112H606.386ZM619.026 475V469.112L619.09 467.064V461.88H621.33V475H619.026Z" fill="black"/>
<path d="M632.865 475.192C631.244 475.192 629.708 474.936 628.257 474.424C626.828 473.891 625.676 473.187 624.801 472.312L625.921 470.488C626.646 471.235 627.617 471.853 628.833 472.344C630.07 472.835 631.414 473.08 632.865 473.08C634.721 473.08 636.14 472.675 637.121 471.864C638.124 471.053 638.625 469.965 638.625 468.6C638.625 467.235 638.134 466.147 637.153 465.336C636.193 464.525 634.668 464.12 632.577 464.12H630.977V462.424L637.889 453.752L638.209 454.648H625.729V452.6H640.129V454.232L633.217 462.904L632.097 462.168H632.961C635.649 462.168 637.654 462.765 638.977 463.96C640.321 465.155 640.993 466.691 640.993 468.568C640.993 469.827 640.694 470.957 640.097 471.96C639.5 472.963 638.593 473.752 637.377 474.328C636.182 474.904 634.678 475.192 632.865 475.192Z" fill="black"/>
<path d="M646.489 475L656.153 453.624L656.857 454.648H643.001L644.185 453.528V458.84H641.913V452.6H658.361V454.232L648.985 475H646.489Z" fill="black"/>
<path d="M658.779 467.32V465.336H667.163V467.32H658.779Z" fill="black"/>
<path d="M669.328 469.112V467.448L681.2 452.6H683.76L671.984 467.448L670.736 467.064H688.752V469.112H669.328ZM681.968 475V469.112L682.032 467.064V461.88H684.272V475H681.968Z" fill="black"/>
<path d="M696.598 475.192C694.998 475.192 693.472 474.936 692.022 474.424C690.571 473.891 689.419 473.187 688.566 472.312L689.686 470.488C690.39 471.235 691.35 471.853 692.566 472.344C693.803 472.835 695.136 473.08 696.566 473.08C698.464 473.08 699.904 472.664 700.886 471.832C701.888 470.979 702.39 469.869 702.39 468.504C702.39 467.544 702.155 466.723 701.686 466.04C701.238 465.336 700.47 464.792 699.382 464.408C698.294 464.024 696.8 463.832 694.902 463.832H690.134L691.286 452.6H703.542V454.648H692.214L693.398 453.528L692.406 462.936L691.222 461.784H695.414C697.675 461.784 699.488 462.061 700.854 462.616C702.219 463.171 703.2 463.949 703.798 464.952C704.416 465.933 704.726 467.085 704.726 468.408C704.726 469.667 704.427 470.819 703.83 471.864C703.233 472.888 702.337 473.699 701.142 474.296C699.947 474.893 698.433 475.192 696.598 475.192Z" fill="black"/>
<path d="M715.299 475.192C713.571 475.192 712.035 474.744 710.691 473.848C709.347 472.931 708.291 471.629 707.523 469.944C706.755 468.237 706.371 466.189 706.371 463.8C706.371 461.411 706.755 459.373 707.523 457.688C708.291 455.981 709.347 454.68 710.691 453.784C712.035 452.867 713.571 452.408 715.299 452.408C717.027 452.408 718.563 452.867 719.907 453.784C721.251 454.68 722.307 455.981 723.075 457.688C723.864 459.373 724.259 461.411 724.259 463.8C724.259 466.189 723.864 468.237 723.075 469.944C722.307 471.629 721.251 472.931 719.907 473.848C718.563 474.744 717.027 475.192 715.299 475.192ZM715.299 473.08C716.621 473.08 717.773 472.728 718.755 472.024C719.736 471.299 720.504 470.253 721.059 468.888C721.614 467.501 721.891 465.805 721.891 463.8C721.891 461.795 721.614 460.109 721.059 458.744C720.504 457.357 719.736 456.312 718.755 455.608C717.773 454.883 716.621 454.52 715.299 454.52C714.019 454.52 712.877 454.883 711.875 455.608C710.872 456.312 710.093 457.357 709.539 458.744C708.984 460.109 708.707 461.795 708.707 463.8C708.707 465.805 708.984 467.501 709.539 468.888C710.093 470.253 710.872 471.299 711.875 472.024C712.877 472.728 714.019 473.08 715.299 473.08Z" fill="black"/>
</svg>
