<svg width="1400" height="1400" viewBox="0 0 1400 1400" fill="none" xmlns="http://www.w3.org/2000/svg">
<rect width="1400" height="1400" fill="white"/>
<path d="M907.217 1002.32L937.743 982.8L1012.27 1028.44L907.217 1092.49V1002.32Z" fill="#D9D9D9"/>
<path d="M937.743 982.798L937.743 943.761L1012.27 903.077V1028.44L937.743 982.798Z" fill="#D9D9D9"/>
<path d="M937.743 943.763L907.217 924.245L884.667 839.297L1012.27 903.077L937.743 943.763Z" fill="#D9D9D9"/>
<path d="M907.217 1002.32L876.691 982.8L797.764 1028.44L907.217 1092.49V1002.32Z" fill="#D9D9D9"/>
<path d="M876.691 982.8L876.691 943.764L797.764 893.73L797.764 1028.44L876.691 982.8Z" fill="#D9D9D9"/>
<path d="M907.217 924.245L876.691 943.764L797.764 893.73L884.667 839.297L907.217 924.245Z" fill="#D9D9D9"/>
<path d="M999.345 829.068L1046.37 802.952L1125.57 839.24L1012.27 902.744L999.345 829.068Z" fill="#383838"/>
<path d="M1046.37 802.952V750.719L1125.57 715.805V839.24L1046.37 802.952Z" fill="#383838"/>
<path d="M1046.37 750.719L999.345 724.602L1005.12 653.676L1125.57 715.805L1046.37 750.719Z" fill="#383838"/>
<path d="M999.345 829.068L952.456 802.951L884.667 838.965L1012.27 902.744L999.345 829.068Z" fill="#383838"/>
<path d="M952.456 802.951L952.181 750.718L884.667 715.53V838.965L952.456 802.951Z" fill="#383838"/>
<path d="M999.345 724.602L952.181 750.718L884.667 715.53L1005.12 653.676L999.345 724.602Z" fill="#383838"/>
<path d="M999.345 845.288L1060.95 811.199L1125.57 839.24L1012.27 902.744L999.345 845.288Z" fill="#A8A8A8"/>
<path d="M1060.95 811.199V742.197L1125.57 715.805V839.24L1060.95 811.199Z" fill="#A8A8A8"/>
<path d="M1060.95 742.197L999.345 710.857L1005.12 653.676L1125.57 715.805L1060.95 742.197Z" fill="#A8A8A8"/>
<path d="M999.345 845.288L939.393 812.299L884.667 838.965L1012.27 902.744L999.345 845.288Z" fill="#A8A8A8"/>
<path d="M939.393 812.299V742.197L884.667 715.53V838.965L939.393 812.299Z" fill="#A8A8A8"/>
<path d="M999.345 710.857L939.393 742.197L884.667 715.53L1005.12 653.676L999.345 710.857Z" fill="#A8A8A8"/>
<path d="M395.98 829.068L348.954 802.952L269.752 839.24L383.054 902.744L395.98 829.068Z" fill="#383838"/>
<path d="M348.954 802.952V750.719L269.752 715.805V839.24L348.954 802.952Z" fill="#383838"/>
<path d="M348.954 750.719L395.98 724.602L390.205 653.676L269.752 715.805L348.954 750.719Z" fill="#383838"/>
<path d="M395.98 829.068L442.868 802.951L510.657 838.965L383.054 902.744L395.98 829.068Z" fill="#383838"/>
<path d="M442.868 802.951L443.143 750.718L510.657 715.53V838.965L442.868 802.951Z" fill="#383838"/>
<path d="M395.98 724.602L443.143 750.718L510.657 715.53L390.205 653.676L395.98 724.602Z" fill="#383838"/>
<path d="M395.98 845.288L334.378 811.199L269.752 839.24L383.054 902.744L395.98 845.288Z" fill="#A8A8A8"/>
<path d="M334.378 811.199V742.197L269.752 715.805V839.24L334.378 811.199Z" fill="#A8A8A8"/>
<path d="M334.378 742.197L395.98 710.857L390.205 653.676L269.752 715.805L334.378 742.197Z" fill="#A8A8A8"/>
<path d="M395.98 845.288L455.931 812.299L510.657 838.965L383.054 902.744L395.98 845.288Z" fill="#A8A8A8"/>
<path d="M455.931 812.299V742.197L510.657 715.53V838.965L455.931 812.299Z" fill="#A8A8A8"/>
<path d="M395.98 710.857L455.931 742.197L510.657 715.53L390.205 653.676L395.98 710.857Z" fill="#A8A8A8"/>
<path d="M488.107 1002.32L457.581 982.8L383.054 1028.44L490.307 1095.79L488.107 1002.32Z" fill="#D9D9D9"/>
<path d="M457.581 982.798L457.581 943.761L383.054 903.077V1028.44L457.581 982.798Z" fill="#D9D9D9"/>
<path d="M457.581 943.763L488.107 924.245L510.657 839.297L383.054 903.077L457.581 943.763Z" fill="#D9D9D9"/>
<path d="M488.107 1002.32L518.633 982.8L597.56 1028.44L490.307 1095.79L488.107 1002.32Z" fill="#D9D9D9"/>
<path d="M518.633 982.8L518.633 943.764L597.56 893.73L597.56 1028.44L518.633 982.8Z" fill="#D9D9D9"/>
<path d="M488.107 924.245L518.633 943.764L597.56 893.73L510.657 839.297L488.107 924.245Z" fill="#D9D9D9"/>
<path d="M488.107 1019.36L443.006 992.148L383.054 1028.44L488.107 1094.5V1019.36Z" fill="#444444"/>
<path d="M443.006 992.148V937.715L383.054 903.077V1028.44L443.006 992.148Z" fill="#444444"/>
<path d="M443.006 937.715L488.107 909.4L510.657 839.297L383.054 903.077L443.006 937.715Z" fill="#444444"/>
<path d="M488.107 1019.36L529.633 992.148L597.56 1028.44L488.107 1094.5V1019.36Z" fill="#444444"/>
<path d="M529.633 992.148V937.715L597.56 893.73L597.56 1028.44L529.633 992.148Z" fill="#444444"/>
<path d="M488.107 909.4L529.633 937.715L597.56 893.73L510.657 839.297L488.107 909.4Z" fill="#444444"/>
<path d="M907.218 1019.36L952.319 992.148L1012.27 1028.44L907.218 1089.81V1019.36Z" fill="#444444"/>
<path d="M952.319 992.148V937.715L1012.27 903.077V1028.44L952.319 992.148Z" fill="#444444"/>
<path d="M952.319 937.715L907.218 909.4L884.667 839.297L1012.27 903.077L952.319 937.715Z" fill="#444444"/>
<path d="M907.218 1019.36L865.692 992.148L797.764 1028.44L907.218 1089.81V1019.36Z" fill="#444444"/>
<path d="M865.692 992.148V937.715L797.764 893.73L797.764 1028.44L865.692 992.148Z" fill="#444444"/>
<path d="M907.218 909.4L865.692 937.715L797.764 893.73L884.667 839.297L907.218 909.4Z" fill="#444444"/>
<path d="M402.831 648.751L402.831 717.204L353.604 746.07L298.328 715.005V647.102L347.279 619.336L402.831 648.751Z" fill="#D9D9D9"/>
<path d="M992.503 648.751V717.204L1041.73 746.07L1097.01 715.005V647.102L1048.05 619.336L992.503 648.751Z" fill="#D9D9D9"/>
<path d="M190 225.783L290.102 166.128L392.405 225.783V326.675L490.07 390.835V491.813L392.405 546.604V652.444L269.752 715.674L190 678.286V225.783Z" fill="#D9D9D9"/>
<path d="M980.094 111.58L1094.77 50L1210 111.58V694.39L1125.86 745.002L980.094 674.871V451.644L885.212 393.805V277.944L980.094 226.767V111.58Z" fill="#D9D9D9"/>
<path d="M609.935 1116.49L661.361 1144.81L681.987 1131.61V1124.47L697.662 1132.71L697.702 1350L563.184 1276.19V1122.27L596.46 1097.8L609.935 1116.49Z" fill="#D9D9D9"/>
<path d="M653.111 965.292H697.662V1132.71L610.76 1087.35L563.184 1122.27L541.183 1062.34L588.759 1021.37L597.01 1001.31L653.111 965.292Z" fill="#D9D9D9"/>
<path d="M785.429 1116.49L734.003 1144.81L713.378 1131.61V1124.47L697.702 1132.71L697.662 1350L832.18 1276.19V1122.27L798.905 1097.8L785.429 1116.49Z" fill="#D9D9D9"/>
<path d="M742.253 965.292H697.702V1132.71L784.604 1087.35L832.18 1122.27L854.181 1062.34L806.605 1021.37L798.355 1001.31L742.253 965.292Z" fill="#D9D9D9"/>
<path d="M268.146 1143.56L364.603 1309.59L336.964 1325.63L240.507 1159.61L246.184 1156.43L254.327 1151.58L268.146 1143.56Z" fill="#828282"/>
<path d="M546.967 1076.07L561.416 1100.94L428.366 1178.18L413.918 1153.31L546.967 1076.07Z" fill="#828282"/>
<path d="M353.982 1050.16L488.269 1281.31L383.5 1342.13L249.213 1110.99L270.611 1098.73L301.598 1080.58L353.982 1050.16Z" fill="#828282"/>
<path d="M355.224 1286.08L402.986 1258.37L433.135 1310.3L385.374 1338.01L355.224 1286.08Z" fill="#D9D9D9"/>
<path d="M405.922 1256.7L453.684 1228.99L483.833 1280.93L436.071 1308.63L405.922 1256.7Z" fill="#D9D9D9"/>
<path d="M254.211 1112.33L301.972 1084.62L332.122 1136.56L284.36 1164.27L254.211 1112.33Z" fill="#D9D9D9"/>
<path d="M304.908 1082.96L352.67 1055.25L382.819 1107.18L335.058 1134.89L304.908 1082.96Z" fill="#D9D9D9"/>
<path d="M1127.97 1143.56L1031.52 1309.59L1059.16 1325.63L1155.61 1159.61L1149.94 1156.43L1141.79 1151.58L1127.97 1143.56Z" fill="#828282"/>
<path d="M849.153 1076.07L834.705 1100.94L967.755 1178.18L982.203 1153.31L849.153 1076.07Z" fill="#828282"/>
<path d="M1042.14 1050.16L907.852 1281.31L1012.62 1342.13L1146.91 1110.99L1125.51 1098.73L1094.52 1080.58L1042.14 1050.16Z" fill="#828282"/>
<path d="M1040.89 1286.08L993.131 1258.37L962.982 1310.3L1010.74 1338.01L1040.89 1286.08Z" fill="#D9D9D9"/>
<path d="M990.196 1256.7L942.434 1228.99L912.285 1280.93L960.046 1308.63L990.196 1256.7Z" fill="#D9D9D9"/>
<path d="M1141.91 1112.33L1094.15 1084.62L1064 1136.56L1111.76 1164.27L1141.91 1112.33Z" fill="#D9D9D9"/>
<path d="M1091.21 1082.96L1043.45 1055.25L1013.3 1107.18L1061.06 1134.89L1091.21 1082.96Z" fill="#D9D9D9"/>
<path d="M198.913 228.973H383.114V677.435H198.913V228.973Z" fill="#A8A8A8"/>
<path d="M365.288 490.328H435.107V502.208H365.288V490.328Z" fill="#A8A8A8"/>
<path d="M365.288 381.925H435.107V393.805H365.288V381.925Z" fill="#A8A8A8"/>
<path d="M995.138 113.145H1197.17V662.585H995.138V113.145Z" fill="#A8A8A8"/>
<path d="M1014.45 384.895H944.631V396.775H1014.45V384.895Z" fill="#A8A8A8"/>
<path d="M1014.45 276.492H944.631V288.372H1014.45V276.492Z" fill="#A8A8A8"/>
<path d="M1020.58 371.816C1017.63 371.816 1015.14 371.166 1013.11 369.867C1011.09 368.537 1009.55 366.636 1008.5 364.165C1007.46 361.662 1006.94 358.669 1006.94 355.184C1006.94 351.414 1007.57 348.262 1008.84 345.727C1010.14 343.161 1011.93 341.229 1014.21 339.93C1016.49 338.631 1019.14 337.982 1022.15 337.982C1023.64 337.982 1025.06 338.124 1026.42 338.41C1027.79 338.695 1028.99 339.154 1030.04 339.788L1028.66 342.544C1027.8 341.973 1026.82 341.577 1025.71 341.356C1024.6 341.102 1023.43 340.976 1022.19 340.976C1018.61 340.976 1015.75 342.116 1013.59 344.397C1011.47 346.678 1010.41 350.083 1010.41 354.614C1010.41 355.311 1010.44 356.182 1010.5 357.227C1010.6 358.241 1010.79 359.255 1011.07 360.268L1009.88 359.366C1010.23 357.718 1010.91 356.324 1011.93 355.184C1012.94 354.012 1014.21 353.125 1015.73 352.523C1017.25 351.921 1018.91 351.62 1020.72 351.62C1022.94 351.62 1024.89 352.032 1026.57 352.855C1028.25 353.679 1029.56 354.835 1030.51 356.324C1031.46 357.813 1031.94 359.571 1031.94 361.599C1031.94 363.658 1031.45 365.464 1030.47 367.016C1029.48 368.537 1028.12 369.725 1026.38 370.58C1024.67 371.404 1022.73 371.816 1020.58 371.816ZM1020.44 368.917C1022.02 368.917 1023.41 368.632 1024.62 368.062C1025.85 367.46 1026.82 366.62 1027.52 365.543C1028.22 364.434 1028.56 363.151 1028.56 361.694C1028.56 359.508 1027.8 357.766 1026.28 356.467C1024.79 355.168 1022.76 354.519 1020.2 354.519C1018.49 354.519 1017 354.835 1015.73 355.469C1014.46 356.103 1013.46 356.974 1012.73 358.082C1012.01 359.16 1011.64 360.395 1011.64 361.789C1011.64 362.993 1011.97 364.149 1012.64 365.258C1013.3 366.335 1014.29 367.222 1015.59 367.919C1016.92 368.584 1018.53 368.917 1020.44 368.917Z" fill="black"/>
<path d="M1033.43 362.787V360.316L1051.07 338.267H1054.87L1037.38 360.316L1035.52 359.746H1062.28V362.787H1033.43ZM1052.21 371.53V362.787L1052.3 359.746V352.048H1055.63V371.53H1052.21Z" fill="black"/>
<path d="M1062.82 371.53V369.107L1076.65 355.564C1077.92 354.328 1078.87 353.251 1079.5 352.333C1080.13 351.382 1080.56 350.495 1080.78 349.672C1081.01 348.848 1081.12 348.072 1081.12 347.343C1081.12 345.411 1080.45 343.89 1079.12 342.781C1077.82 341.673 1075.89 341.118 1073.32 341.118C1071.36 341.118 1069.61 341.419 1068.09 342.021C1066.6 342.623 1065.32 343.557 1064.24 344.825L1061.82 342.734C1063.12 341.213 1064.78 340.041 1066.81 339.217C1068.84 338.394 1071.1 337.982 1073.61 337.982C1075.86 337.982 1077.81 338.346 1079.45 339.075C1081.1 339.772 1082.37 340.801 1083.26 342.164C1084.18 343.526 1084.64 345.126 1084.64 346.963C1084.64 348.04 1084.48 349.101 1084.16 350.147C1083.87 351.192 1083.34 352.301 1082.54 353.473C1081.78 354.614 1080.66 355.912 1079.17 357.37L1066.48 369.82L1065.53 368.489H1086.16V371.53H1062.82Z" fill="black"/>
<path d="M1088.56 360.126V357.18H1101.01V360.126H1088.56Z" fill="black"/>
<path d="M1118.44 371.816C1115.5 371.816 1113.01 371.166 1110.98 369.867C1108.95 368.537 1107.41 366.636 1106.37 364.165C1105.32 361.662 1104.8 358.669 1104.8 355.184C1104.8 351.414 1105.43 348.262 1106.7 345.727C1108 343.161 1109.79 341.229 1112.07 339.93C1114.35 338.631 1117 337.982 1120.01 337.982C1121.5 337.982 1122.93 338.124 1124.29 338.41C1125.65 338.695 1126.86 339.154 1127.9 339.788L1126.52 342.544C1125.67 341.973 1124.69 341.577 1123.58 341.356C1122.47 341.102 1121.29 340.976 1120.06 340.976C1116.48 340.976 1113.61 342.116 1111.45 344.397C1109.33 346.678 1108.27 350.083 1108.27 354.614C1108.27 355.311 1108.3 356.182 1108.36 357.227C1108.46 358.241 1108.65 359.255 1108.94 360.268L1107.75 359.366C1108.1 357.718 1108.78 356.324 1109.79 355.184C1110.8 354.012 1112.07 353.125 1113.59 352.523C1115.11 351.921 1116.78 351.62 1118.58 351.62C1120.8 351.62 1122.75 352.032 1124.43 352.855C1126.11 353.679 1127.43 354.835 1128.38 356.324C1129.33 357.813 1129.8 359.571 1129.8 361.599C1129.8 363.658 1129.31 365.464 1128.33 367.016C1127.35 368.537 1125.98 369.725 1124.24 370.58C1122.53 371.404 1120.6 371.816 1118.44 371.816ZM1118.3 368.917C1119.88 368.917 1121.28 368.632 1122.48 368.062C1123.72 367.46 1124.69 366.62 1125.38 365.543C1126.08 364.434 1126.43 363.151 1126.43 361.694C1126.43 359.508 1125.67 357.766 1124.15 356.467C1122.66 355.168 1120.63 354.519 1118.06 354.519C1116.35 354.519 1114.86 354.835 1113.59 355.469C1112.33 356.103 1111.33 356.974 1110.6 358.082C1109.87 359.16 1109.51 360.395 1109.51 361.789C1109.51 362.993 1109.84 364.149 1110.5 365.258C1111.17 366.335 1112.15 367.222 1113.45 367.919C1114.78 368.584 1116.4 368.917 1118.3 368.917Z" fill="black"/>
<path d="M1142.37 371.816C1139.99 371.816 1137.73 371.435 1135.57 370.675C1133.42 369.883 1131.71 368.838 1130.44 367.539L1132.1 364.83C1133.15 365.939 1134.57 366.858 1136.38 367.586C1138.22 368.315 1140.2 368.679 1142.32 368.679C1145.14 368.679 1147.28 368.062 1148.74 366.826C1150.23 365.559 1150.97 363.912 1150.97 361.884C1150.97 360.458 1150.63 359.239 1149.93 358.225C1149.26 357.18 1148.12 356.372 1146.51 355.802C1144.89 355.231 1142.67 354.946 1139.85 354.946H1132.77L1134.48 338.267H1152.69V341.308H1135.86L1137.62 339.645L1136.14 353.616L1134.38 351.905H1140.61C1143.97 351.905 1146.66 352.317 1148.69 353.14C1150.72 353.964 1152.18 355.12 1153.07 356.609C1153.99 358.067 1154.44 359.777 1154.44 361.741C1154.44 363.611 1154 365.321 1153.11 366.874C1152.23 368.394 1150.9 369.598 1149.12 370.485C1147.35 371.372 1145.1 371.816 1142.37 371.816Z" fill="black"/>
<path d="M1170.53 371.816C1167.58 371.816 1165.1 371.166 1163.07 369.867C1161.04 368.537 1159.5 366.636 1158.46 364.165C1157.41 361.662 1156.89 358.669 1156.89 355.184C1156.89 351.414 1157.52 348.262 1158.79 345.727C1160.09 343.161 1161.88 341.229 1164.16 339.93C1166.44 338.631 1169.09 337.982 1172.1 337.982C1173.59 337.982 1175.02 338.124 1176.38 338.41C1177.74 338.695 1178.94 339.154 1179.99 339.788L1178.61 342.544C1177.76 341.973 1176.77 341.577 1175.67 341.356C1174.56 341.102 1173.38 340.976 1172.15 340.976C1168.57 340.976 1165.7 342.116 1163.54 344.397C1161.42 346.678 1160.36 350.083 1160.36 354.614C1160.36 355.311 1160.39 356.182 1160.45 357.227C1160.55 358.241 1160.74 359.255 1161.02 360.268L1159.84 359.366C1160.18 357.718 1160.87 356.324 1161.88 355.184C1162.89 354.012 1164.16 353.125 1165.68 352.523C1167.2 351.921 1168.87 351.62 1170.67 351.62C1172.89 351.62 1174.84 352.032 1176.52 352.855C1178.2 353.679 1179.52 354.835 1180.47 356.324C1181.42 357.813 1181.89 359.571 1181.89 361.599C1181.89 363.658 1181.4 365.464 1180.42 367.016C1179.44 368.537 1178.07 369.725 1176.33 370.58C1174.62 371.404 1172.69 371.816 1170.53 371.816ZM1170.39 368.917C1171.97 368.917 1173.37 368.632 1174.57 368.062C1175.81 367.46 1176.77 366.62 1177.47 365.543C1178.17 364.434 1178.52 363.151 1178.52 361.694C1178.52 359.508 1177.76 357.766 1176.24 356.467C1174.75 355.168 1172.72 354.519 1170.15 354.519C1168.44 354.519 1166.95 354.835 1165.68 355.469C1164.41 356.103 1163.42 356.974 1162.69 358.082C1161.96 359.16 1161.59 360.395 1161.59 361.789C1161.59 362.993 1161.93 364.149 1162.59 365.258C1163.26 366.335 1164.24 367.222 1165.54 367.919C1166.87 368.584 1168.49 368.917 1170.39 368.917Z" fill="black"/>
</svg>
