<svg width="800" height="1400" viewBox="0 0 800 1400" fill="none" xmlns="http://www.w3.org/2000/svg">
<rect width="800" height="1400" fill="white"/>
<path d="M539.814 899.781L560.363 886.637L610.532 917.368L539.814 960.5V899.781Z" fill="#D9D9D9"/>
<path d="M560.363 886.635L560.363 860.347L610.532 832.95V917.368L560.363 886.635Z" fill="#D9D9D9"/>
<path d="M560.363 860.349L539.814 847.205L524.633 790L610.532 832.95L560.363 860.349Z" fill="#D9D9D9"/>
<path d="M539.814 899.781L519.264 886.637L466.133 917.368L539.814 960.5V899.781Z" fill="#D9D9D9"/>
<path d="M519.264 886.637L519.264 860.349L466.133 826.655L466.133 917.368L519.264 886.637Z" fill="#D9D9D9"/>
<path d="M539.814 847.205L519.264 860.349L466.133 826.655L524.633 790L539.814 847.205Z" fill="#D9D9D9"/>
<path d="M601.832 783.112L633.489 765.525L686.806 789.961L610.533 832.726L601.832 783.112Z" fill="#383838"/>
<path d="M633.489 765.525V730.35L686.806 706.839V789.961L633.489 765.525Z" fill="#383838"/>
<path d="M633.489 730.35L601.832 712.763L605.72 665L686.806 706.839L633.489 730.35Z" fill="#383838"/>
<path d="M601.832 783.112L570.268 765.524L524.634 789.776L610.533 832.726L601.832 783.112Z" fill="#383838"/>
<path d="M570.268 765.524L570.082 730.35L524.634 706.654V789.776L570.268 765.524Z" fill="#383838"/>
<path d="M601.832 712.763L570.082 730.35L524.634 706.654L605.72 665L601.832 712.763Z" fill="#383838"/>
<path d="M601.832 794.034L643.301 771.078L686.806 789.961L610.533 832.726L601.832 794.034Z" fill="#A8A8A8"/>
<path d="M643.301 771.078V724.611L686.806 706.839V789.961L643.301 771.078Z" fill="#A8A8A8"/>
<path d="M643.301 724.611L601.832 703.507L605.72 665L686.806 706.839L643.301 724.611Z" fill="#A8A8A8"/>
<path d="M601.832 794.034L561.474 771.819L524.634 789.776L610.533 832.726L601.832 794.034Z" fill="#A8A8A8"/>
<path d="M561.474 771.819V724.611L524.634 706.654V789.776L561.474 771.819Z" fill="#A8A8A8"/>
<path d="M601.832 703.507L561.474 724.611L524.634 706.654L605.72 665L601.832 703.507Z" fill="#A8A8A8"/>
<path d="M195.661 783.112L164.004 765.525L110.687 789.961L186.96 832.726L195.661 783.112Z" fill="#383838"/>
<path d="M164.004 765.525V730.35L110.687 706.839V789.961L164.004 765.525Z" fill="#383838"/>
<path d="M164.004 730.35L195.661 712.763L191.773 665L110.687 706.839L164.004 730.35Z" fill="#383838"/>
<path d="M195.661 783.112L227.225 765.524L272.859 789.776L186.96 832.726L195.661 783.112Z" fill="#383838"/>
<path d="M227.225 765.524L227.41 730.35L272.859 706.654V789.776L227.225 765.524Z" fill="#383838"/>
<path d="M195.661 712.763L227.41 730.35L272.859 706.654L191.773 665L195.661 712.763Z" fill="#383838"/>
<path d="M195.661 794.034L154.192 771.078L110.687 789.961L186.96 832.726L195.661 794.034Z" fill="#A8A8A8"/>
<path d="M154.192 771.078V724.611L110.687 706.839V789.961L154.192 771.078Z" fill="#A8A8A8"/>
<path d="M154.192 724.611L195.661 703.507L191.773 665L110.687 706.839L154.192 724.611Z" fill="#A8A8A8"/>
<path d="M195.661 794.034L236.018 771.819L272.859 789.776L186.96 832.726L195.661 794.034Z" fill="#A8A8A8"/>
<path d="M236.018 771.819V724.611L272.859 706.654V789.776L236.018 771.819Z" fill="#A8A8A8"/>
<path d="M195.661 703.507L236.018 724.611L272.859 706.654L191.773 665L195.661 703.507Z" fill="#A8A8A8"/>
<path d="M257.679 899.781L237.129 886.637L186.96 917.368L259.16 962.724L257.679 899.781Z" fill="#D9D9D9"/>
<path d="M237.129 886.635L237.129 860.347L186.96 832.95V917.368L237.129 886.635Z" fill="#D9D9D9"/>
<path d="M237.129 860.349L257.679 847.205L272.859 790L186.96 832.95L237.129 860.349Z" fill="#D9D9D9"/>
<path d="M257.679 899.781L278.228 886.637L331.36 917.368L259.16 962.724L257.679 899.781Z" fill="#D9D9D9"/>
<path d="M278.228 886.637L278.228 860.349L331.359 826.655L331.36 917.368L278.228 886.637Z" fill="#D9D9D9"/>
<path d="M257.679 847.205L278.228 860.349L331.359 826.655L272.859 790L257.679 847.205Z" fill="#D9D9D9"/>
<path d="M257.679 911.259L227.318 892.931L186.96 917.368L257.679 961.86V911.259Z" fill="#444444"/>
<path d="M227.318 892.931V856.276L186.96 832.95V917.368L227.318 892.931Z" fill="#444444"/>
<path d="M227.318 856.276L257.679 837.208L272.859 790L186.96 832.95L227.318 856.276Z" fill="#444444"/>
<path d="M257.679 911.259L285.633 892.931L331.36 917.368L257.679 961.86V911.259Z" fill="#444444"/>
<path d="M285.633 892.931V856.276L331.359 826.655L331.36 917.368L285.633 892.931Z" fill="#444444"/>
<path d="M257.679 837.208L285.633 856.276L331.359 826.655L272.859 790L257.679 837.208Z" fill="#444444"/>
<path d="M539.814 911.259L570.175 892.931L610.532 917.368L539.814 958.697V911.259Z" fill="#444444"/>
<path d="M570.175 892.931V856.276L610.532 832.95V917.368L570.175 892.931Z" fill="#444444"/>
<path d="M570.175 856.276L539.814 837.208L524.633 790L610.532 832.95L570.175 856.276Z" fill="#444444"/>
<path d="M539.814 911.259L511.86 892.931L466.133 917.368L539.814 958.697V911.259Z" fill="#444444"/>
<path d="M511.86 892.931V856.276L466.133 826.655L466.133 917.368L511.86 892.931Z" fill="#444444"/>
<path d="M539.814 837.208L511.86 856.276L466.133 826.655L524.633 790L539.814 837.208Z" fill="#444444"/>
<path d="M200.273 661.684L200.273 707.781L167.135 727.219L129.924 706.3V660.573L162.877 641.875L200.273 661.684Z" fill="#D9D9D9"/>
<path d="M597.226 661.684V707.781L630.364 727.219L667.575 706.3V660.573L634.622 641.875L597.226 661.684Z" fill="#D9D9D9"/>
<path d="M57 376.852L124.387 336.679L193.254 376.852V444.794L259 488V556L193.254 592.896V664.171L110.687 706.75L57 681.573V376.852Z" fill="#D9D9D9"/>
<path d="M588.873 299.946L666.071 258.477L743.64 299.946V692.417L687 726.5L588.873 679.273V528.949L525 490V411.977L588.873 377.515V299.946Z" fill="#D9D9D9"/>
<path d="M339.69 976.667L374.309 995.735L388.194 986.849V982.036L398.746 987.589L398.773 1133.91L308.219 1084.21V980.555L330.619 964.078L339.69 976.667Z" fill="#D9D9D9"/>
<path d="M368.755 874.846H398.746V987.589L340.246 957.043L308.219 980.555L293.408 940.197L325.435 912.613L330.989 899.098L368.755 874.846Z" fill="#D9D9D9"/>
<path d="M457.829 976.667L423.21 995.735L409.325 986.849V982.036L398.773 987.589L398.746 1133.91L489.301 1084.21V980.555L466.9 964.078L457.829 976.667Z" fill="#D9D9D9"/>
<path d="M428.764 874.846H398.773V987.589L457.274 957.043L489.301 980.555L504.111 940.197L472.084 912.613L466.53 899.098L428.764 874.846Z" fill="#D9D9D9"/>
<path d="M109.606 994.894L174.539 1106.7L155.933 1117.5L91 1005.7L94.8215 1003.56L100.303 1000.3L109.606 994.894Z" fill="#828282"/>
<path d="M297.302 949.446L307.028 966.193L217.462 1018.21L207.736 1001.46L297.302 949.446Z" fill="#828282"/>
<path d="M167.389 932L257.788 1087.65L187.26 1128.61L96.8609 972.96L111.266 964.703L132.125 952.48L167.389 932Z" fill="#828282"/>
<path d="M168.225 1090.87L200.377 1072.21L220.673 1107.18L188.521 1125.84L168.225 1090.87Z" fill="#D9D9D9"/>
<path d="M202.353 1071.09L234.506 1052.43L254.801 1087.4L222.649 1106.06L202.353 1071.09Z" fill="#D9D9D9"/>
<path d="M100.225 973.866L132.377 955.206L152.673 990.178L120.521 1008.84L100.225 973.866Z" fill="#D9D9D9"/>
<path d="M134.353 954.086L166.506 935.426L186.801 970.398L154.649 989.057L134.353 954.086Z" fill="#D9D9D9"/>
<path d="M688.422 994.894L623.489 1106.7L642.096 1117.5L707.028 1005.7L703.207 1003.56L697.725 1000.3L688.422 994.894Z" fill="#828282"/>
<path d="M500.726 949.446L491 966.193L580.566 1018.21L590.292 1001.46L500.726 949.446Z" fill="#828282"/>
<path d="M630.639 932L540.241 1087.65L610.769 1128.61L701.167 972.96L686.763 964.703L665.903 952.48L630.639 932Z" fill="#828282"/>
<path d="M629.801 1090.87L597.649 1072.21L577.353 1107.18L609.505 1125.84L629.801 1090.87Z" fill="#D9D9D9"/>
<path d="M595.673 1071.09L563.521 1052.43L543.225 1087.4L575.377 1106.06L595.673 1071.09Z" fill="#D9D9D9"/>
<path d="M697.801 973.866L665.649 955.206L645.353 990.178L677.505 1008.84L697.801 973.866Z" fill="#D9D9D9"/>
<path d="M663.673 954.086L631.521 935.426L611.225 970.398L643.377 989.057L663.673 954.086Z" fill="#D9D9D9"/>
<path d="M62.9999 379H187V681H62.9999V379Z" fill="#A8A8A8"/>
<path d="M175 555H222V563H175V555Z" fill="#A8A8A8"/>
<path d="M175 482H222V490H175V482Z" fill="#A8A8A8"/>
<path d="M599 301H735V671H599V301Z" fill="#A8A8A8"/>
<path d="M612 484H565V492H612V484Z" fill="#A8A8A8"/>
<path d="M612 411H565V419H612V411Z" fill="#A8A8A8"/>
<path d="M616.125 475.192C614.141 475.192 612.467 474.755 611.101 473.88C609.736 472.984 608.701 471.704 607.997 470.04C607.293 468.355 606.941 466.339 606.941 463.992C606.941 461.453 607.368 459.331 608.221 457.624C609.096 455.896 610.301 454.595 611.837 453.72C613.373 452.845 615.155 452.408 617.181 452.408C618.184 452.408 619.144 452.504 620.061 452.696C620.979 452.888 621.789 453.197 622.493 453.624L621.565 455.48C620.989 455.096 620.328 454.829 619.581 454.68C618.835 454.509 618.045 454.424 617.213 454.424C614.803 454.424 612.872 455.192 611.421 456.728C609.992 458.264 609.277 460.557 609.277 463.608C609.277 464.077 609.299 464.664 609.341 465.368C609.405 466.051 609.533 466.733 609.725 467.416L608.925 466.808C609.16 465.699 609.619 464.76 610.301 463.992C610.984 463.203 611.837 462.605 612.861 462.2C613.885 461.795 615.005 461.592 616.221 461.592C617.715 461.592 619.027 461.869 620.157 462.424C621.288 462.979 622.173 463.757 622.813 464.76C623.453 465.763 623.773 466.947 623.773 468.312C623.773 469.699 623.443 470.915 622.781 471.96C622.12 472.984 621.203 473.784 620.029 474.36C618.877 474.915 617.576 475.192 616.125 475.192ZM616.029 473.24C617.096 473.24 618.035 473.048 618.845 472.664C619.677 472.259 620.328 471.693 620.797 470.968C621.267 470.221 621.501 469.357 621.501 468.376C621.501 466.904 620.989 465.731 619.965 464.856C618.963 463.981 617.597 463.544 615.869 463.544C614.717 463.544 613.715 463.757 612.861 464.184C612.008 464.611 611.336 465.197 610.845 465.944C610.355 466.669 610.109 467.501 610.109 468.44C610.109 469.251 610.333 470.029 610.781 470.776C611.229 471.501 611.891 472.099 612.765 472.568C613.661 473.016 614.749 473.24 616.029 473.24Z" fill="black"/>
<path d="M624.777 469.112V467.448L636.649 452.6H639.209L627.433 467.448L626.185 467.064H644.201V469.112H624.777ZM637.417 475V469.112L637.481 467.064V461.88H639.721V475H637.417Z" fill="black"/>
<path d="M644.559 475V473.368L653.871 464.248C654.725 463.416 655.365 462.691 655.791 462.072C656.218 461.432 656.506 460.835 656.655 460.28C656.805 459.725 656.879 459.203 656.879 458.712C656.879 457.411 656.431 456.387 655.535 455.64C654.661 454.893 653.359 454.52 651.631 454.52C650.308 454.52 649.135 454.723 648.111 455.128C647.109 455.533 646.244 456.163 645.519 457.016L643.887 455.608C644.762 454.584 645.882 453.795 647.247 453.24C648.613 452.685 650.138 452.408 651.823 452.408C653.338 452.408 654.65 452.653 655.759 453.144C656.869 453.613 657.722 454.307 658.319 455.224C658.938 456.141 659.247 457.219 659.247 458.456C659.247 459.181 659.141 459.896 658.927 460.6C658.735 461.304 658.373 462.051 657.839 462.84C657.327 463.608 656.57 464.483 655.567 465.464L647.023 473.848L646.383 472.952H660.271V475H644.559Z" fill="black"/>
<path d="M661.889 467.32V465.336H670.273V467.32H661.889Z" fill="black"/>
<path d="M682.005 475.192C680.021 475.192 678.347 474.755 676.981 473.88C675.616 472.984 674.581 471.704 673.877 470.04C673.173 468.355 672.821 466.339 672.821 463.992C672.821 461.453 673.248 459.331 674.101 457.624C674.976 455.896 676.181 454.595 677.717 453.72C679.253 452.845 681.035 452.408 683.061 452.408C684.064 452.408 685.024 452.504 685.941 452.696C686.859 452.888 687.669 453.197 688.373 453.624L687.445 455.48C686.869 455.096 686.208 454.829 685.461 454.68C684.715 454.509 683.925 454.424 683.093 454.424C680.683 454.424 678.752 455.192 677.301 456.728C675.872 458.264 675.157 460.557 675.157 463.608C675.157 464.077 675.179 464.664 675.221 465.368C675.285 466.051 675.413 466.733 675.605 467.416L674.805 466.808C675.04 465.699 675.499 464.76 676.181 463.992C676.864 463.203 677.717 462.605 678.741 462.2C679.765 461.795 680.885 461.592 682.101 461.592C683.595 461.592 684.907 461.869 686.037 462.424C687.168 462.979 688.053 463.757 688.693 464.76C689.333 465.763 689.653 466.947 689.653 468.312C689.653 469.699 689.323 470.915 688.661 471.96C688 472.984 687.083 473.784 685.909 474.36C684.757 474.915 683.456 475.192 682.005 475.192ZM681.909 473.24C682.976 473.24 683.915 473.048 684.725 472.664C685.557 472.259 686.208 471.693 686.677 470.968C687.147 470.221 687.381 469.357 687.381 468.376C687.381 466.904 686.869 465.731 685.845 464.856C684.843 463.981 683.477 463.544 681.749 463.544C680.597 463.544 679.595 463.757 678.741 464.184C677.888 464.611 677.216 465.197 676.725 465.944C676.235 466.669 675.989 467.501 675.989 468.44C675.989 469.251 676.213 470.029 676.661 470.776C677.109 471.501 677.771 472.099 678.645 472.568C679.541 473.016 680.629 473.24 681.909 473.24Z" fill="black"/>
<path d="M698.113 475.192C696.513 475.192 694.988 474.936 693.537 474.424C692.087 473.891 690.935 473.187 690.081 472.312L691.201 470.488C691.905 471.235 692.865 471.853 694.081 472.344C695.319 472.835 696.652 473.08 698.081 473.08C699.98 473.08 701.42 472.664 702.401 471.832C703.404 470.979 703.905 469.869 703.905 468.504C703.905 467.544 703.671 466.723 703.201 466.04C702.753 465.336 701.985 464.792 700.897 464.408C699.809 464.024 698.316 463.832 696.417 463.832H691.649L692.801 452.6H705.057V454.648H693.729L694.913 453.528L693.921 462.936L692.737 461.784H696.929C699.191 461.784 701.004 462.061 702.369 462.616C703.735 463.171 704.716 463.949 705.313 464.952C705.932 465.933 706.241 467.085 706.241 468.408C706.241 469.667 705.943 470.819 705.345 471.864C704.748 472.888 703.852 473.699 702.657 474.296C701.463 474.893 699.948 475.192 698.113 475.192Z" fill="black"/>
<path d="M717.07 475.192C715.086 475.192 713.412 474.755 712.046 473.88C710.681 472.984 709.646 471.704 708.942 470.04C708.238 468.355 707.886 466.339 707.886 463.992C707.886 461.453 708.313 459.331 709.166 457.624C710.041 455.896 711.246 454.595 712.782 453.72C714.318 452.845 716.1 452.408 718.126 452.408C719.129 452.408 720.089 452.504 721.006 452.696C721.924 452.888 722.734 453.197 723.438 453.624L722.51 455.48C721.934 455.096 721.273 454.829 720.526 454.68C719.78 454.509 718.99 454.424 718.158 454.424C715.748 454.424 713.817 455.192 712.366 456.728C710.937 458.264 710.222 460.557 710.222 463.608C710.222 464.077 710.244 464.664 710.286 465.368C710.35 466.051 710.478 466.733 710.67 467.416L709.87 466.808C710.105 465.699 710.564 464.76 711.246 463.992C711.929 463.203 712.782 462.605 713.806 462.2C714.83 461.795 715.95 461.592 717.166 461.592C718.66 461.592 719.972 461.869 721.102 462.424C722.233 462.979 723.118 463.757 723.758 464.76C724.398 465.763 724.718 466.947 724.718 468.312C724.718 469.699 724.388 470.915 723.726 471.96C723.065 472.984 722.148 473.784 720.974 474.36C719.822 474.915 718.521 475.192 717.07 475.192ZM716.974 473.24C718.041 473.24 718.98 473.048 719.79 472.664C720.622 472.259 721.273 471.693 721.742 470.968C722.212 470.221 722.446 469.357 722.446 468.376C722.446 466.904 721.934 465.731 720.91 464.856C719.908 463.981 718.542 463.544 716.814 463.544C715.662 463.544 714.66 463.757 713.806 464.184C712.953 464.611 712.281 465.197 711.79 465.944C711.3 466.669 711.054 467.501 711.054 468.44C711.054 469.251 711.278 470.029 711.726 470.776C712.174 471.501 712.836 472.099 713.71 472.568C714.606 473.016 715.694 473.24 716.974 473.24Z" fill="black"/>
</svg>
