<svg width="687" height="876" viewBox="0 0 687 876" fill="none" xmlns="http://www.w3.org/2000/svg">
<g opacity="0.8">
<path d="M482.814 641.781L503.363 628.637L553.532 659.368L482.814 702.5V641.781Z" fill="#D9D9D9"/>
<path d="M503.363 628.635L503.363 602.347L553.532 574.95V659.368L503.363 628.635Z" fill="#D9D9D9"/>
<path d="M503.363 602.349L482.814 589.205L467.633 532L553.532 574.95L503.363 602.349Z" fill="#D9D9D9"/>
<path d="M482.814 641.781L462.264 628.637L409.133 659.368L482.814 702.5V641.781Z" fill="#D9D9D9"/>
<path d="M462.264 628.637L462.264 602.349L409.133 568.655L409.133 659.368L462.264 628.637Z" fill="#D9D9D9"/>
<path d="M482.814 589.205L462.264 602.349L409.133 568.655L467.633 532L482.814 589.205Z" fill="#D9D9D9"/>
<path d="M544.832 525.112L576.489 507.525L629.805 531.961L553.533 574.726L544.832 525.112Z" fill="#383838"/>
<path d="M576.489 507.525V472.35L629.805 448.839V531.961L576.489 507.525Z" fill="#383838"/>
<path d="M576.489 472.35L544.832 454.763L548.719 407L629.805 448.839L576.489 472.35Z" fill="#383838"/>
<path d="M544.832 525.112L513.267 507.524L467.633 531.776L553.533 574.726L544.832 525.112Z" fill="#383838"/>
<path d="M513.267 507.524L513.082 472.35L467.633 448.654V531.776L513.267 507.524Z" fill="#383838"/>
<path d="M544.832 454.763L513.082 472.35L467.633 448.654L548.719 407L544.832 454.763Z" fill="#383838"/>
<path d="M544.832 536.034L586.3 513.078L629.805 531.961L553.533 574.726L544.832 536.034Z" fill="#A8A8A8"/>
<path d="M586.3 513.078V466.611L629.805 448.839V531.961L586.3 513.078Z" fill="#A8A8A8"/>
<path d="M586.3 466.611L544.832 445.507L548.719 407L629.805 448.839L586.3 466.611Z" fill="#A8A8A8"/>
<path d="M544.832 536.034L504.474 513.819L467.633 531.776L553.533 574.726L544.832 536.034Z" fill="#A8A8A8"/>
<path d="M504.474 513.819V466.611L467.633 448.654V531.776L504.474 513.819Z" fill="#A8A8A8"/>
<path d="M544.832 445.507L504.474 466.611L467.633 448.654L548.719 407L544.832 445.507Z" fill="#A8A8A8"/>
<path d="M138.661 525.112L107.004 507.525L53.6869 531.961L129.96 574.726L138.661 525.112Z" fill="#383838"/>
<path d="M107.004 507.525V472.35L53.6869 448.839V531.961L107.004 507.525Z" fill="#383838"/>
<path d="M107.004 472.35L138.661 454.763L134.773 407L53.6869 448.839L107.004 472.35Z" fill="#383838"/>
<path d="M138.661 525.112L170.225 507.524L215.859 531.776L129.96 574.726L138.661 525.112Z" fill="#383838"/>
<path d="M170.225 507.524L170.41 472.35L215.859 448.654V531.776L170.225 507.524Z" fill="#383838"/>
<path d="M138.661 454.763L170.41 472.35L215.859 448.654L134.773 407L138.661 454.763Z" fill="#383838"/>
<path d="M138.661 536.034L97.1919 513.078L53.6869 531.961L129.96 574.726L138.661 536.034Z" fill="#A8A8A8"/>
<path d="M97.1919 513.078V466.611L53.6869 448.839V531.961L97.1919 513.078Z" fill="#A8A8A8"/>
<path d="M97.1919 466.611L138.661 445.507L134.773 407L53.6869 448.839L97.1919 466.611Z" fill="#A8A8A8"/>
<path d="M138.661 536.034L179.018 513.819L215.859 531.776L129.96 574.726L138.661 536.034Z" fill="#A8A8A8"/>
<path d="M179.018 513.819V466.611L215.859 448.654V531.776L179.018 513.819Z" fill="#A8A8A8"/>
<path d="M138.661 445.507L179.018 466.611L215.859 448.654L134.773 407L138.661 445.507Z" fill="#A8A8A8"/>
<path d="M200.679 641.781L180.129 628.637L129.96 659.368L202.16 704.724L200.679 641.781Z" fill="#D9D9D9"/>
<path d="M180.129 628.635L180.129 602.347L129.96 574.95V659.368L180.129 628.635Z" fill="#D9D9D9"/>
<path d="M180.129 602.349L200.679 589.205L215.859 532L129.96 574.95L180.129 602.349Z" fill="#D9D9D9"/>
<path d="M200.679 641.781L221.228 628.637L274.36 659.368L202.16 704.724L200.679 641.781Z" fill="#D9D9D9"/>
<path d="M221.228 628.637L221.228 602.349L274.359 568.655L274.36 659.368L221.228 628.637Z" fill="#D9D9D9"/>
<path d="M200.679 589.205L221.228 602.349L274.359 568.655L215.859 532L200.679 589.205Z" fill="#D9D9D9"/>
<path d="M200.679 653.259L170.318 634.931L129.96 659.368L200.679 703.86V653.259Z" fill="#444444"/>
<path d="M170.318 634.931V598.276L129.96 574.95V659.368L170.318 634.931Z" fill="#444444"/>
<path d="M170.318 598.276L200.679 579.208L215.859 532L129.96 574.95L170.318 598.276Z" fill="#444444"/>
<path d="M200.679 653.259L228.633 634.931L274.36 659.368L200.679 703.86V653.259Z" fill="#444444"/>
<path d="M228.633 634.931V598.276L274.359 568.655L274.36 659.368L228.633 634.931Z" fill="#444444"/>
<path d="M200.679 579.208L228.633 598.276L274.359 568.655L215.859 532L200.679 579.208Z" fill="#444444"/>
<path d="M482.814 653.259L513.175 634.931L553.532 659.368L482.814 700.697V653.259Z" fill="#444444"/>
<path d="M513.175 634.931V598.276L553.532 574.95V659.368L513.175 634.931Z" fill="#444444"/>
<path d="M513.175 598.276L482.814 579.208L467.633 532L553.532 574.95L513.175 598.276Z" fill="#444444"/>
<path d="M482.814 653.259L454.859 634.931L409.133 659.368L482.814 700.697V653.259Z" fill="#444444"/>
<path d="M454.859 634.931V598.276L409.133 568.655L409.133 659.368L454.859 634.931Z" fill="#444444"/>
<path d="M482.814 579.208L454.859 598.276L409.133 568.655L467.633 532L482.814 579.208Z" fill="#444444"/>
<path d="M442.641 694.23L436.532 710.707L522.853 760.524L611.26 812.645L649.058 747.869L630.551 737.123L643.521 714.914L573.563 673.781L532.429 744.109L442.641 694.23Z" fill="#F0F0F0"/>
<path d="M436.532 710.707L442.641 694.23L532.429 744.109L621.476 794.951L583.996 859.912L565.482 849.178L552.637 871.459L482.209 831.136L522.853 760.524L436.532 710.707Z" fill="#F0F0F0"/>
<path d="M239.926 691.823L246.776 710.336L160.473 760.524L72.0662 812.645L34.268 747.869L52.7757 737.122L39.8057 714.913L109.764 673.78L150.897 744.108L239.926 691.823Z" fill="#F0F0F0"/>
<path d="M246.776 710.336L239.926 691.823L150.897 744.108L61.8504 794.951L99.3297 859.912L117.844 849.177L130.689 871.459L201.117 831.136L160.473 760.524L246.776 710.336Z" fill="#F0F0F0"/>
<path d="M143.273 403.684L143.273 449.781L110.135 469.219L72.9239 448.3V402.573L105.877 383.875L143.273 403.684Z" fill="#D9D9D9"/>
<path d="M540.226 403.684V449.781L573.364 469.219L610.575 448.3V402.573L577.622 383.875L540.226 403.684Z" fill="#D9D9D9"/>
<path d="M0 118.852L67.3866 78.6794L136.254 118.852V186.794L201.419 230.299V298.241L136.254 334.896V406.171L53.6871 448.75L0 423.573V118.852Z" fill="#D9D9D9"/>
<path d="M531.873 41.4687L609.071 0L686.64 41.4687V433.94L642.024 466.522L531.873 420.796V270.472L467.633 231.965V153.471L531.873 119.037V41.4687Z" fill="#D9D9D9"/>
<path d="M282.69 718.667L317.309 737.735L331.194 728.849V724.036L341.746 729.589L341.773 875.913L251.219 826.21V722.555L273.619 706.078L282.69 718.667Z" fill="#D9D9D9"/>
<path d="M311.755 616.846H341.746V729.589L283.246 699.043L251.219 722.555L236.408 682.197L268.435 654.613L273.989 641.098L311.755 616.846Z" fill="#D9D9D9"/>
<path d="M400.829 718.667L366.21 737.735L352.325 728.849V724.036L341.773 729.589L341.746 875.913L432.301 826.21V722.555L409.9 706.078L400.829 718.667Z" fill="#D9D9D9"/>
<path d="M371.764 616.846H341.773V729.589L400.274 699.043L432.301 722.555L447.111 682.197L415.084 654.613L409.53 641.098L371.764 616.846Z" fill="#D9D9D9"/>
<path d="M52.6063 736.894L117.539 848.699L98.9326 859.505L34 747.7L37.8215 745.558L43.3032 742.297L52.6063 736.894Z" fill="#828282"/>
<path d="M240.302 691.446L250.028 708.193L160.462 760.21L150.736 743.463L240.302 691.446Z" fill="#828282"/>
<path d="M110.389 674L200.788 829.654L130.26 870.614L39.8609 714.96L54.2656 706.703L75.1249 694.48L110.389 674Z" fill="#828282"/>
<path d="M111.225 832.866L143.377 814.206L163.673 849.178L131.521 867.837L111.225 832.866Z" fill="#D9D9D9"/>
<path d="M145.353 813.086L177.506 794.426L197.801 829.398L165.649 848.057L145.353 813.086Z" fill="#D9D9D9"/>
<path d="M43.225 715.866L75.3772 697.206L95.673 732.178L63.5209 750.837L43.225 715.866Z" fill="#D9D9D9"/>
<path d="M77.3535 696.086L109.506 677.426L129.801 712.398L97.6493 731.057L77.3535 696.086Z" fill="#D9D9D9"/>
<path d="M631.422 736.894L566.489 848.699L585.096 859.505L650.028 747.7L646.207 745.558L640.725 742.297L631.422 736.894Z" fill="#828282"/>
<path d="M443.726 691.446L434 708.193L523.566 760.21L533.292 743.463L443.726 691.446Z" fill="#828282"/>
<path d="M573.639 674L483.241 829.654L553.769 870.614L644.167 714.96L629.763 706.703L608.903 694.48L573.639 674Z" fill="#828282"/>
<path d="M572.801 832.866L540.649 814.206L520.353 849.178L552.505 867.837L572.801 832.866Z" fill="#D9D9D9"/>
<path d="M538.673 813.086L506.521 794.426L486.225 829.398L518.377 848.057L538.673 813.086Z" fill="#D9D9D9"/>
<path d="M640.801 715.866L608.649 697.206L588.353 732.178L620.505 750.837L640.801 715.866Z" fill="#D9D9D9"/>
<path d="M606.673 696.086L574.521 677.426L554.225 712.398L586.377 731.057L606.673 696.086Z" fill="#D9D9D9"/>
</g>
</svg>
