<svg width="800" height="1400" viewBox="0 0 800 1400" fill="none" xmlns="http://www.w3.org/2000/svg">
<rect width="800" height="1400" fill="white"/>
<path d="M539.814 899.781L560.363 886.637L610.533 917.368L539.814 960.5V899.781Z" fill="#D9D9D9"/>
<path d="M560.363 886.635V860.347L610.533 832.95V917.368L560.363 886.635Z" fill="#D9D9D9"/>
<path d="M560.363 860.349L539.814 847.205L524.633 790L610.533 832.95L560.363 860.349Z" fill="#D9D9D9"/>
<path d="M539.814 899.781L519.265 886.637L466.133 917.368L539.814 960.5V899.781Z" fill="#D9D9D9"/>
<path d="M519.265 886.637L519.265 860.349L466.133 826.655L466.133 917.368L519.265 886.637Z" fill="#D9D9D9"/>
<path d="M539.814 847.205L519.265 860.349L466.133 826.655L524.633 790L539.814 847.205Z" fill="#D9D9D9"/>
<path d="M601.832 783.112L633.489 765.525L686.806 789.961L610.533 832.726L601.832 783.112Z" fill="#383838"/>
<path d="M633.489 765.525V730.35L686.806 706.839V789.961L633.489 765.525Z" fill="#383838"/>
<path d="M633.489 730.35L601.832 712.763L605.72 665L686.806 706.839L633.489 730.35Z" fill="#383838"/>
<path d="M601.832 783.112L570.268 765.524L524.634 789.776L610.533 832.726L601.832 783.112Z" fill="#383838"/>
<path d="M570.268 765.524L570.083 730.35L524.634 706.654V789.776L570.268 765.524Z" fill="#383838"/>
<path d="M601.832 712.763L570.083 730.35L524.634 706.654L605.72 665L601.832 712.763Z" fill="#383838"/>
<path d="M601.832 794.034L643.301 771.078L686.806 789.961L610.533 832.726L601.832 794.034Z" fill="#A8A8A8"/>
<path d="M643.301 771.078V724.611L686.806 706.839V789.961L643.301 771.078Z" fill="#A8A8A8"/>
<path d="M643.301 724.611L601.832 703.507L605.72 665L686.806 706.839L643.301 724.611Z" fill="#A8A8A8"/>
<path d="M601.832 794.034L561.474 771.819L524.634 789.776L610.533 832.726L601.832 794.034Z" fill="#A8A8A8"/>
<path d="M561.474 771.819V724.611L524.634 706.654V789.776L561.474 771.819Z" fill="#A8A8A8"/>
<path d="M601.832 703.507L561.474 724.611L524.634 706.654L605.72 665L601.832 703.507Z" fill="#A8A8A8"/>
<path d="M195.661 783.112L164.004 765.525L110.687 789.961L186.96 832.726L195.661 783.112Z" fill="#383838"/>
<path d="M164.004 765.525V730.35L110.687 706.839V789.961L164.004 765.525Z" fill="#383838"/>
<path d="M164.004 730.35L195.661 712.763L191.773 665L110.687 706.839L164.004 730.35Z" fill="#383838"/>
<path d="M195.661 783.112L227.225 765.524L272.859 789.776L186.96 832.726L195.661 783.112Z" fill="#383838"/>
<path d="M227.225 765.524L227.41 730.35L272.859 706.654V789.776L227.225 765.524Z" fill="#383838"/>
<path d="M195.661 712.763L227.41 730.35L272.859 706.654L191.773 665L195.661 712.763Z" fill="#383838"/>
<path d="M195.661 794.034L154.192 771.078L110.687 789.961L186.96 832.726L195.661 794.034Z" fill="#A8A8A8"/>
<path d="M154.192 771.078V724.611L110.687 706.839V789.961L154.192 771.078Z" fill="#A8A8A8"/>
<path d="M154.192 724.611L195.661 703.507L191.773 665L110.687 706.839L154.192 724.611Z" fill="#A8A8A8"/>
<path d="M195.661 794.034L236.019 771.819L272.859 789.776L186.96 832.726L195.661 794.034Z" fill="#A8A8A8"/>
<path d="M236.019 771.819V724.611L272.859 706.654V789.776L236.019 771.819Z" fill="#A8A8A8"/>
<path d="M195.661 703.507L236.019 724.611L272.859 706.654L191.773 665L195.661 703.507Z" fill="#A8A8A8"/>
<path d="M257.679 899.781L237.129 886.637L186.96 917.368L259.16 962.724L257.679 899.781Z" fill="#D9D9D9"/>
<path d="M237.129 886.635V860.347L186.96 832.95V917.368L237.129 886.635Z" fill="#D9D9D9"/>
<path d="M237.129 860.349L257.679 847.205L272.859 790L186.96 832.95L237.129 860.349Z" fill="#D9D9D9"/>
<path d="M257.679 899.781L278.228 886.637L331.36 917.368L259.16 962.724L257.679 899.781Z" fill="#D9D9D9"/>
<path d="M278.228 886.637L278.228 860.349L331.36 826.655L331.36 917.368L278.228 886.637Z" fill="#D9D9D9"/>
<path d="M257.679 847.205L278.228 860.349L331.36 826.655L272.859 790L257.679 847.205Z" fill="#D9D9D9"/>
<path d="M257.679 911.259L227.318 892.931L186.96 917.368L257.679 961.86V911.259Z" fill="#444444"/>
<path d="M227.318 892.931V856.276L186.96 832.95V917.368L227.318 892.931Z" fill="#444444"/>
<path d="M227.318 856.276L257.679 837.208L272.859 790L186.96 832.95L227.318 856.276Z" fill="#444444"/>
<path d="M257.679 911.259L285.633 892.931L331.36 917.368L257.679 961.86V911.259Z" fill="#444444"/>
<path d="M285.633 892.931V856.276L331.36 826.655L331.36 917.368L285.633 892.931Z" fill="#444444"/>
<path d="M257.679 837.208L285.633 856.276L331.36 826.655L272.859 790L257.679 837.208Z" fill="#444444"/>
<path d="M539.814 911.259L570.175 892.931L610.533 917.368L539.814 958.697V911.259Z" fill="#444444"/>
<path d="M570.175 892.931V856.276L610.533 832.95V917.368L570.175 892.931Z" fill="#444444"/>
<path d="M570.175 856.276L539.814 837.208L524.633 790L610.533 832.95L570.175 856.276Z" fill="#444444"/>
<path d="M539.814 911.259L511.86 892.931L466.133 917.368L539.814 958.697V911.259Z" fill="#444444"/>
<path d="M511.86 892.931V856.276L466.133 826.655L466.133 917.368L511.86 892.931Z" fill="#444444"/>
<path d="M539.814 837.208L511.86 856.276L466.133 826.655L524.633 790L539.814 837.208Z" fill="#444444"/>
<path d="M200.273 661.684L200.273 707.781L167.135 727.219L129.924 706.3L129.924 660.573L162.877 641.875L200.273 661.684Z" fill="#D9D9D9"/>
<path d="M597.226 661.684L597.226 707.781L630.364 727.219L667.575 706.3V660.573L634.622 641.875L597.226 661.684Z" fill="#D9D9D9"/>
<path d="M57.0001 376.852L124.387 336.679L193.254 376.852V444.794L259 488V556L193.254 592.896V664.171L110.687 706.75L57.0001 681.573V376.852Z" fill="#D9D9D9"/>
<path d="M588.873 299.946L666.071 258.477L743.64 299.946V692.417L687 726.5L588.873 679.273V528.949L525 490V411.977L588.873 377.515V299.946Z" fill="#D9D9D9"/>
<path d="M339.69 976.667L374.309 995.735L388.194 986.849V982.036L398.746 987.589L398.773 1133.91L308.219 1084.21V980.555L330.619 964.078L339.69 976.667Z" fill="#D9D9D9"/>
<path d="M368.756 874.846H398.746V987.589L340.246 957.043L308.219 980.555L293.408 940.197L325.436 912.613L330.989 899.098L368.756 874.846Z" fill="#D9D9D9"/>
<path d="M457.829 976.667L423.21 995.735L409.326 986.849V982.036L398.773 987.589L398.746 1133.91L489.301 1084.21V980.555L466.9 964.078L457.829 976.667Z" fill="#D9D9D9"/>
<path d="M428.764 874.846H398.773V987.589L457.274 957.043L489.301 980.555L504.111 940.197L472.084 912.613L466.53 899.098L428.764 874.846Z" fill="#D9D9D9"/>
<path d="M109.606 994.894L174.539 1106.7L155.933 1117.5L91.0001 1005.7L94.8216 1003.56L100.303 1000.3L109.606 994.894Z" fill="#828282"/>
<path d="M297.302 949.446L307.028 966.193L217.462 1018.21L207.736 1001.46L297.302 949.446Z" fill="#828282"/>
<path d="M167.389 932L257.788 1087.65L187.26 1128.61L96.861 972.96L111.266 964.703L132.125 952.48L167.389 932Z" fill="#828282"/>
<path d="M168.225 1090.87L200.377 1072.21L220.673 1107.18L188.521 1125.84L168.225 1090.87Z" fill="#D9D9D9"/>
<path d="M202.354 1071.09L234.506 1052.43L254.802 1087.4L222.649 1106.06L202.354 1071.09Z" fill="#D9D9D9"/>
<path d="M100.225 973.866L132.377 955.206L152.673 990.178L120.521 1008.84L100.225 973.866Z" fill="#D9D9D9"/>
<path d="M134.354 954.086L166.506 935.426L186.802 970.398L154.649 989.057L134.354 954.086Z" fill="#D9D9D9"/>
<path d="M688.422 994.894L623.49 1106.7L642.096 1117.5L707.028 1005.7L703.207 1003.56L697.725 1000.3L688.422 994.894Z" fill="#828282"/>
<path d="M500.726 949.446L491 966.193L580.566 1018.21L590.292 1001.46L500.726 949.446Z" fill="#828282"/>
<path d="M630.64 932L540.241 1087.65L610.769 1128.61L701.168 972.96L686.763 964.703L665.904 952.48L630.64 932Z" fill="#828282"/>
<path d="M629.801 1090.87L597.649 1072.21L577.353 1107.18L609.506 1125.84L629.801 1090.87Z" fill="#D9D9D9"/>
<path d="M595.673 1071.09L563.521 1052.43L543.225 1087.4L575.377 1106.06L595.673 1071.09Z" fill="#D9D9D9"/>
<path d="M697.801 973.866L665.649 955.206L645.353 990.178L677.506 1008.84L697.801 973.866Z" fill="#D9D9D9"/>
<path d="M663.673 954.086L631.521 935.426L611.225 970.398L643.377 989.057L663.673 954.086Z" fill="#D9D9D9"/>
<path d="M63 379H187V681H63V379Z" fill="#A8A8A8"/>
<path d="M175 555H222V563H175V555Z" fill="#A8A8A8"/>
<path d="M175 482H222V490H175V482Z" fill="#A8A8A8"/>
<path d="M599 301H735V671H599V301Z" fill="#A8A8A8"/>
<path d="M612 484H565V492H612V484Z" fill="#A8A8A8"/>
<path d="M612 411H565V419H612V411Z" fill="#A8A8A8"/>
<path d="M533.33 454.195H538.88V455.14H533.33V454.195ZM533.45 459.04H539.765V460H532.34V449.5H539.54V450.46H533.45V459.04Z" fill="black"/>
<path d="M545.57 452.05C546.21 452.05 546.77 452.175 547.25 452.425C547.74 452.665 548.119 453.035 548.389 453.535C548.669 454.035 548.81 454.665 548.81 455.425V460H547.745V455.53C547.745 454.7 547.535 454.075 547.115 453.655C546.705 453.225 546.125 453.01 545.375 453.01C544.815 453.01 544.324 453.125 543.904 453.355C543.494 453.575 543.175 453.9 542.945 454.33C542.725 454.75 542.615 455.26 542.615 455.86V460H541.549V452.125H542.57V454.285L542.404 453.88C542.654 453.31 543.054 452.865 543.604 452.545C544.154 452.215 544.81 452.05 545.57 452.05Z" fill="black"/>
<path d="M553.576 460.075C552.836 460.075 552.266 459.875 551.866 459.475C551.466 459.075 551.266 458.51 551.266 457.78V450.385H552.331V457.72C552.331 458.18 552.446 458.535 552.676 458.785C552.916 459.035 553.256 459.16 553.696 459.16C554.166 459.16 554.556 459.025 554.866 458.755L555.241 459.52C555.031 459.71 554.776 459.85 554.476 459.94C554.186 460.03 553.886 460.075 553.576 460.075ZM549.856 453.01V452.125H554.731V453.01H549.856Z" fill="black"/>
<path d="M556.58 460V452.125H557.6V454.27L557.495 453.895C557.715 453.295 558.085 452.84 558.605 452.53C559.125 452.21 559.77 452.05 560.54 452.05V453.085C560.5 453.085 560.46 453.085 560.42 453.085C560.38 453.075 560.34 453.07 560.3 453.07C559.47 453.07 558.82 453.325 558.35 453.835C557.88 454.335 557.645 455.05 557.645 455.98V460H556.58Z" fill="black"/>
<path d="M566.232 460V458.26L566.187 457.975V455.065C566.187 454.395 565.997 453.88 565.617 453.52C565.247 453.16 564.692 452.98 563.952 452.98C563.442 452.98 562.957 453.065 562.497 453.235C562.037 453.405 561.647 453.63 561.327 453.91L560.847 453.115C561.247 452.775 561.727 452.515 562.287 452.335C562.847 452.145 563.437 452.05 564.057 452.05C565.077 452.05 565.862 452.305 566.412 452.815C566.972 453.315 567.252 454.08 567.252 455.11V460H566.232ZM563.517 460.075C562.927 460.075 562.412 459.98 561.972 459.79C561.542 459.59 561.212 459.32 560.982 458.98C560.752 458.63 560.637 458.23 560.637 457.78C560.637 457.37 560.732 457 560.922 456.67C561.122 456.33 561.442 456.06 561.882 455.86C562.332 455.65 562.932 455.545 563.682 455.545H566.397V456.34H563.712C562.952 456.34 562.422 456.475 562.122 456.745C561.832 457.015 561.687 457.35 561.687 457.75C561.687 458.2 561.862 458.56 562.212 458.83C562.562 459.1 563.052 459.235 563.682 459.235C564.282 459.235 564.797 459.1 565.227 458.83C565.667 458.55 565.987 458.15 566.187 457.63L566.427 458.365C566.227 458.885 565.877 459.3 565.377 459.61C564.887 459.92 564.267 460.075 563.517 460.075Z" fill="black"/>
<path d="M573.565 452.05C574.205 452.05 574.765 452.175 575.245 452.425C575.735 452.665 576.115 453.035 576.385 453.535C576.665 454.035 576.805 454.665 576.805 455.425V460H575.74V455.53C575.74 454.7 575.53 454.075 575.11 453.655C574.7 453.225 574.12 453.01 573.37 453.01C572.81 453.01 572.32 453.125 571.9 453.355C571.49 453.575 571.17 453.9 570.94 454.33C570.72 454.75 570.61 455.26 570.61 455.86V460H569.545V452.125H570.565V454.285L570.4 453.88C570.65 453.31 571.05 452.865 571.6 452.545C572.15 452.215 572.805 452.05 573.565 452.05Z" fill="black"/>
<path d="M582.352 460.075C581.572 460.075 580.872 459.905 580.252 459.565C579.642 459.215 579.162 458.74 578.812 458.14C578.462 457.53 578.287 456.835 578.287 456.055C578.287 455.265 578.462 454.57 578.812 453.97C579.162 453.37 579.642 452.9 580.252 452.56C580.872 452.22 581.572 452.05 582.352 452.05C583.022 452.05 583.627 452.18 584.167 452.44C584.707 452.7 585.132 453.09 585.442 453.61L584.647 454.15C584.377 453.75 584.042 453.455 583.642 453.265C583.242 453.075 582.807 452.98 582.337 452.98C581.777 452.98 581.272 453.11 580.822 453.37C580.372 453.62 580.017 453.975 579.757 454.435C579.497 454.895 579.367 455.435 579.367 456.055C579.367 456.675 579.497 457.215 579.757 457.675C580.017 458.135 580.372 458.495 580.822 458.755C581.272 459.005 581.777 459.13 582.337 459.13C582.807 459.13 583.242 459.035 583.642 458.845C584.042 458.655 584.377 458.365 584.647 457.975L585.442 458.515C585.132 459.025 584.707 459.415 584.167 459.685C583.627 459.945 583.022 460.075 582.352 460.075Z" fill="black"/>
<path d="M590.147 460.075C589.327 460.075 588.607 459.905 587.987 459.565C587.367 459.215 586.882 458.74 586.532 458.14C586.182 457.53 586.007 456.835 586.007 456.055C586.007 455.275 586.172 454.585 586.502 453.985C586.842 453.385 587.302 452.915 587.882 452.575C588.472 452.225 589.132 452.05 589.862 452.05C590.602 452.05 591.257 452.22 591.827 452.56C592.407 452.89 592.862 453.36 593.192 453.97C593.522 454.57 593.687 455.265 593.687 456.055C593.687 456.105 593.682 456.16 593.672 456.22C593.672 456.27 593.672 456.325 593.672 456.385H586.817V455.59H593.102L592.682 455.905C592.682 455.335 592.557 454.83 592.307 454.39C592.067 453.94 591.737 453.59 591.317 453.34C590.897 453.09 590.412 452.965 589.862 452.965C589.322 452.965 588.837 453.09 588.407 453.34C587.977 453.59 587.642 453.94 587.402 454.39C587.162 454.84 587.042 455.355 587.042 455.935V456.1C587.042 456.7 587.172 457.23 587.432 457.69C587.702 458.14 588.072 458.495 588.542 458.755C589.022 459.005 589.567 459.13 590.177 459.13C590.657 459.13 591.102 459.045 591.512 458.875C591.932 458.705 592.292 458.445 592.592 458.095L593.192 458.785C592.842 459.205 592.402 459.525 591.872 459.745C591.352 459.965 590.777 460.075 590.147 460.075Z" fill="black"/>
<path d="M30.5536 510.13H34.2536V510.76H30.5536V510.13ZM30.6336 513.36H34.8436V514H29.8936V507H34.6936V507.64H30.6336V513.36Z" fill="black"/>
<path d="M38.713 508.7C39.1397 508.7 39.513 508.783 39.833 508.95C40.1597 509.11 40.413 509.357 40.593 509.69C40.7797 510.023 40.873 510.443 40.873 510.95V514H40.163V511.02C40.163 510.467 40.023 510.05 39.743 509.77C39.4697 509.483 39.083 509.34 38.583 509.34C38.2097 509.34 37.883 509.417 37.603 509.57C37.3297 509.717 37.1163 509.933 36.963 510.22C36.8163 510.5 36.743 510.84 36.743 511.24V514H36.033V508.75H36.713V510.19L36.603 509.92C36.7697 509.54 37.0363 509.243 37.403 509.03C37.7697 508.81 38.2063 508.7 38.713 508.7Z" fill="black"/>
<path d="M44.0508 514.05C43.5575 514.05 43.1775 513.917 42.9108 513.65C42.6442 513.383 42.5108 513.007 42.5108 512.52V507.59H43.2208V512.48C43.2208 512.787 43.2975 513.023 43.4508 513.19C43.6108 513.357 43.8375 513.44 44.1308 513.44C44.4442 513.44 44.7042 513.35 44.9108 513.17L45.1608 513.68C45.0208 513.807 44.8508 513.9 44.6508 513.96C44.4575 514.02 44.2575 514.05 44.0508 514.05ZM41.5708 509.34V508.75H44.8208V509.34H41.5708Z" fill="black"/>
<path d="M46.0533 514V508.75H46.7333V510.18L46.6633 509.93C46.81 509.53 47.0567 509.227 47.4033 509.02C47.75 508.807 48.18 508.7 48.6933 508.7V509.39C48.6667 509.39 48.64 509.39 48.6133 509.39C48.5867 509.383 48.56 509.38 48.5333 509.38C47.98 509.38 47.5467 509.55 47.2333 509.89C46.92 510.223 46.7633 510.7 46.7633 511.32V514H46.0533Z" fill="black"/>
<path d="M52.4882 514V512.84L52.4582 512.65V510.71C52.4582 510.263 52.3316 509.92 52.0782 509.68C51.8316 509.44 51.4616 509.32 50.9682 509.32C50.6282 509.32 50.3049 509.377 49.9982 509.49C49.6916 509.603 49.4316 509.753 49.2182 509.94L48.8982 509.41C49.1649 509.183 49.4849 509.01 49.8582 508.89C50.2316 508.763 50.6249 508.7 51.0382 508.7C51.7182 508.7 52.2416 508.87 52.6082 509.21C52.9816 509.543 53.1682 510.053 53.1682 510.74V514H52.4882ZM50.6782 514.05C50.2849 514.05 49.9416 513.987 49.6482 513.86C49.3616 513.727 49.1416 513.547 48.9882 513.32C48.8349 513.087 48.7582 512.82 48.7582 512.52C48.7582 512.247 48.8216 512 48.9482 511.78C49.0816 511.553 49.2949 511.373 49.5882 511.24C49.8882 511.1 50.2882 511.03 50.7882 511.03H52.5982V511.56H50.8082C50.3016 511.56 49.9482 511.65 49.7482 511.83C49.5549 512.01 49.4582 512.233 49.4582 512.5C49.4582 512.8 49.5749 513.04 49.8082 513.22C50.0416 513.4 50.3682 513.49 50.7882 513.49C51.1882 513.49 51.5316 513.4 51.8182 513.22C52.1116 513.033 52.3249 512.767 52.4582 512.42L52.6182 512.91C52.4849 513.257 52.2516 513.533 51.9182 513.74C51.5916 513.947 51.1782 514.05 50.6782 514.05Z" fill="black"/>
<path d="M57.3767 508.7C57.8033 508.7 58.1767 508.783 58.4967 508.95C58.8233 509.11 59.0767 509.357 59.2567 509.69C59.4433 510.023 59.5367 510.443 59.5367 510.95V514H58.8267V511.02C58.8267 510.467 58.6867 510.05 58.4067 509.77C58.1333 509.483 57.7467 509.34 57.2467 509.34C56.8733 509.34 56.5467 509.417 56.2667 509.57C55.9933 509.717 55.78 509.933 55.6267 510.22C55.48 510.5 55.4067 510.84 55.4067 511.24V514H54.6967V508.75H55.3767V510.19L55.2667 509.92C55.4333 509.54 55.7 509.243 56.0667 509.03C56.4333 508.81 56.87 508.7 57.3767 508.7Z" fill="black"/>
<path d="M63.2345 514.05C62.7145 514.05 62.2478 513.937 61.8345 513.71C61.4278 513.477 61.1078 513.16 60.8745 512.76C60.6412 512.353 60.5245 511.89 60.5245 511.37C60.5245 510.843 60.6412 510.38 60.8745 509.98C61.1078 509.58 61.4278 509.267 61.8345 509.04C62.2478 508.813 62.7145 508.7 63.2345 508.7C63.6812 508.7 64.0845 508.787 64.4445 508.96C64.8045 509.133 65.0878 509.393 65.2945 509.74L64.7645 510.1C64.5845 509.833 64.3612 509.637 64.0945 509.51C63.8278 509.383 63.5378 509.32 63.2245 509.32C62.8512 509.32 62.5145 509.407 62.2145 509.58C61.9145 509.747 61.6778 509.983 61.5045 510.29C61.3312 510.597 61.2445 510.957 61.2445 511.37C61.2445 511.783 61.3312 512.143 61.5045 512.45C61.6778 512.757 61.9145 512.997 62.2145 513.17C62.5145 513.337 62.8512 513.42 63.2245 513.42C63.5378 513.42 63.8278 513.357 64.0945 513.23C64.3612 513.103 64.5845 512.91 64.7645 512.65L65.2945 513.01C65.0878 513.35 64.8045 513.61 64.4445 513.79C64.0845 513.963 63.6812 514.05 63.2345 514.05Z" fill="black"/>
<path d="M68.4314 514.05C67.8847 514.05 67.4047 513.937 66.9914 513.71C66.578 513.477 66.2547 513.16 66.0214 512.76C65.788 512.353 65.6714 511.89 65.6714 511.37C65.6714 510.85 65.7814 510.39 66.0014 509.99C66.228 509.59 66.5347 509.277 66.9214 509.05C67.3147 508.817 67.7547 508.7 68.2414 508.7C68.7347 508.7 69.1714 508.813 69.5514 509.04C69.938 509.26 70.2414 509.573 70.4614 509.98C70.6814 510.38 70.7914 510.843 70.7914 511.37C70.7914 511.403 70.788 511.44 70.7814 511.48C70.7814 511.513 70.7814 511.55 70.7814 511.59H66.2114V511.06H70.4014L70.1214 511.27C70.1214 510.89 70.038 510.553 69.8714 510.26C69.7114 509.96 69.4914 509.727 69.2114 509.56C68.9314 509.393 68.608 509.31 68.2414 509.31C67.8814 509.31 67.558 509.393 67.2714 509.56C66.9847 509.727 66.7614 509.96 66.6014 510.26C66.4414 510.56 66.3614 510.903 66.3614 511.29V511.4C66.3614 511.8 66.448 512.153 66.6214 512.46C66.8014 512.76 67.048 512.997 67.3614 513.17C67.6814 513.337 68.0447 513.42 68.4514 513.42C68.7714 513.42 69.068 513.363 69.3414 513.25C69.6214 513.137 69.8614 512.963 70.0614 512.73L70.4614 513.19C70.228 513.47 69.9347 513.683 69.5814 513.83C69.2347 513.977 68.8514 514.05 68.4314 514.05Z" fill="black"/>
<path d="M197.554 992.13H201.254V992.76H197.554V992.13ZM197.634 995.36H201.844V996H196.894V989H201.694V989.64H197.634V995.36Z" fill="black"/>
<path d="M205.713 990.7C206.14 990.7 206.513 990.783 206.833 990.95C207.16 991.11 207.413 991.357 207.593 991.69C207.78 992.023 207.873 992.443 207.873 992.95V996H207.163V993.02C207.163 992.467 207.023 992.05 206.743 991.77C206.47 991.483 206.083 991.34 205.583 991.34C205.21 991.34 204.883 991.417 204.603 991.57C204.33 991.717 204.116 991.933 203.963 992.22C203.816 992.5 203.743 992.84 203.743 993.24V996H203.033V990.75H203.713V992.19L203.603 991.92C203.77 991.54 204.036 991.243 204.403 991.03C204.77 990.81 205.206 990.7 205.713 990.7Z" fill="black"/>
<path d="M211.051 996.05C210.557 996.05 210.177 995.917 209.911 995.65C209.644 995.383 209.511 995.007 209.511 994.52V989.59H210.221V994.48C210.221 994.787 210.297 995.023 210.451 995.19C210.611 995.357 210.837 995.44 211.131 995.44C211.444 995.44 211.704 995.35 211.911 995.17L212.161 995.68C212.021 995.807 211.851 995.9 211.651 995.96C211.457 996.02 211.257 996.05 211.051 996.05ZM208.571 991.34V990.75H211.821V991.34H208.571Z" fill="black"/>
<path d="M213.053 996V990.75H213.733V992.18L213.663 991.93C213.81 991.53 214.057 991.227 214.403 991.02C214.75 990.807 215.18 990.7 215.693 990.7V991.39C215.667 991.39 215.64 991.39 215.613 991.39C215.587 991.383 215.56 991.38 215.533 991.38C214.98 991.38 214.547 991.55 214.233 991.89C213.92 992.223 213.763 992.7 213.763 993.32V996H213.053Z" fill="black"/>
<path d="M219.488 996V994.84L219.458 994.65V992.71C219.458 992.263 219.332 991.92 219.078 991.68C218.832 991.44 218.462 991.32 217.968 991.32C217.628 991.32 217.305 991.377 216.998 991.49C216.692 991.603 216.432 991.753 216.218 991.94L215.898 991.41C216.165 991.183 216.485 991.01 216.858 990.89C217.232 990.763 217.625 990.7 218.038 990.7C218.718 990.7 219.242 990.87 219.608 991.21C219.982 991.543 220.168 992.053 220.168 992.74V996H219.488ZM217.678 996.05C217.285 996.05 216.942 995.987 216.648 995.86C216.362 995.727 216.142 995.547 215.988 995.32C215.835 995.087 215.758 994.82 215.758 994.52C215.758 994.247 215.822 994 215.948 993.78C216.082 993.553 216.295 993.373 216.588 993.24C216.888 993.1 217.288 993.03 217.788 993.03H219.598V993.56H217.808C217.302 993.56 216.948 993.65 216.748 993.83C216.555 994.01 216.458 994.233 216.458 994.5C216.458 994.8 216.575 995.04 216.808 995.22C217.042 995.4 217.368 995.49 217.788 995.49C218.188 995.49 218.532 995.4 218.818 995.22C219.112 995.033 219.325 994.767 219.458 994.42L219.618 994.91C219.485 995.257 219.252 995.533 218.918 995.74C218.592 995.947 218.178 996.05 217.678 996.05Z" fill="black"/>
<path d="M224.377 990.7C224.803 990.7 225.177 990.783 225.497 990.95C225.823 991.11 226.077 991.357 226.257 991.69C226.443 992.023 226.537 992.443 226.537 992.95V996H225.827V993.02C225.827 992.467 225.687 992.05 225.407 991.77C225.133 991.483 224.747 991.34 224.247 991.34C223.873 991.34 223.547 991.417 223.267 991.57C222.993 991.717 222.78 991.933 222.627 992.22C222.48 992.5 222.407 992.84 222.407 993.24V996H221.697V990.75H222.377V992.19L222.267 991.92C222.433 991.54 222.7 991.243 223.067 991.03C223.433 990.81 223.87 990.7 224.377 990.7Z" fill="black"/>
<path d="M230.234 996.05C229.714 996.05 229.248 995.937 228.834 995.71C228.428 995.477 228.108 995.16 227.874 994.76C227.641 994.353 227.524 993.89 227.524 993.37C227.524 992.843 227.641 992.38 227.874 991.98C228.108 991.58 228.428 991.267 228.834 991.04C229.248 990.813 229.714 990.7 230.234 990.7C230.681 990.7 231.084 990.787 231.444 990.96C231.804 991.133 232.088 991.393 232.294 991.74L231.764 992.1C231.584 991.833 231.361 991.637 231.094 991.51C230.828 991.383 230.538 991.32 230.224 991.32C229.851 991.32 229.514 991.407 229.214 991.58C228.914 991.747 228.678 991.983 228.504 992.29C228.331 992.597 228.244 992.957 228.244 993.37C228.244 993.783 228.331 994.143 228.504 994.45C228.678 994.757 228.914 994.997 229.214 995.17C229.514 995.337 229.851 995.42 230.224 995.42C230.538 995.42 230.828 995.357 231.094 995.23C231.361 995.103 231.584 994.91 231.764 994.65L232.294 995.01C232.088 995.35 231.804 995.61 231.444 995.79C231.084 995.963 230.681 996.05 230.234 996.05Z" fill="black"/>
<path d="M235.431 996.05C234.885 996.05 234.405 995.937 233.991 995.71C233.578 995.477 233.255 995.16 233.021 994.76C232.788 994.353 232.671 993.89 232.671 993.37C232.671 992.85 232.781 992.39 233.001 991.99C233.228 991.59 233.535 991.277 233.921 991.05C234.315 990.817 234.755 990.7 235.241 990.7C235.735 990.7 236.171 990.813 236.551 991.04C236.938 991.26 237.241 991.573 237.461 991.98C237.681 992.38 237.791 992.843 237.791 993.37C237.791 993.403 237.788 993.44 237.781 993.48C237.781 993.513 237.781 993.55 237.781 993.59H233.211V993.06H237.401L237.121 993.27C237.121 992.89 237.038 992.553 236.871 992.26C236.711 991.96 236.491 991.727 236.211 991.56C235.931 991.393 235.608 991.31 235.241 991.31C234.881 991.31 234.558 991.393 234.271 991.56C233.985 991.727 233.761 991.96 233.601 992.26C233.441 992.56 233.361 992.903 233.361 993.29V993.4C233.361 993.8 233.448 994.153 233.621 994.46C233.801 994.76 234.048 994.997 234.361 995.17C234.681 995.337 235.045 995.42 235.451 995.42C235.771 995.42 236.068 995.363 236.341 995.25C236.621 995.137 236.861 994.963 237.061 994.73L237.461 995.19C237.228 995.47 236.935 995.683 236.581 995.83C236.235 995.977 235.851 996.05 235.431 996.05Z" fill="black"/>
<path d="M278.554 960.13H282.254V960.76H278.554V960.13ZM278.634 963.36H282.844V964H277.894V957H282.694V957.64H278.634V963.36Z" fill="black"/>
<path d="M286.713 958.7C287.14 958.7 287.513 958.783 287.833 958.95C288.16 959.11 288.413 959.357 288.593 959.69C288.78 960.023 288.873 960.443 288.873 960.95V964H288.163V961.02C288.163 960.467 288.023 960.05 287.743 959.77C287.47 959.483 287.083 959.34 286.583 959.34C286.21 959.34 285.883 959.417 285.603 959.57C285.33 959.717 285.116 959.933 284.963 960.22C284.816 960.5 284.743 960.84 284.743 961.24V964H284.033V958.75H284.713V960.19L284.603 959.92C284.77 959.54 285.036 959.243 285.403 959.03C285.77 958.81 286.206 958.7 286.713 958.7Z" fill="black"/>
<path d="M292.051 964.05C291.557 964.05 291.177 963.917 290.911 963.65C290.644 963.383 290.511 963.007 290.511 962.52V957.59H291.221V962.48C291.221 962.787 291.297 963.023 291.451 963.19C291.611 963.357 291.837 963.44 292.131 963.44C292.444 963.44 292.704 963.35 292.911 963.17L293.161 963.68C293.021 963.807 292.851 963.9 292.651 963.96C292.457 964.02 292.257 964.05 292.051 964.05ZM289.571 959.34V958.75H292.821V959.34H289.571Z" fill="black"/>
<path d="M294.053 964V958.75H294.733V960.18L294.663 959.93C294.81 959.53 295.057 959.227 295.403 959.02C295.75 958.807 296.18 958.7 296.693 958.7V959.39C296.667 959.39 296.64 959.39 296.613 959.39C296.587 959.383 296.56 959.38 296.533 959.38C295.98 959.38 295.547 959.55 295.233 959.89C294.92 960.223 294.763 960.7 294.763 961.32V964H294.053Z" fill="black"/>
<path d="M300.488 964V962.84L300.458 962.65V960.71C300.458 960.263 300.332 959.92 300.078 959.68C299.832 959.44 299.462 959.32 298.968 959.32C298.628 959.32 298.305 959.377 297.998 959.49C297.692 959.603 297.432 959.753 297.218 959.94L296.898 959.41C297.165 959.183 297.485 959.01 297.858 958.89C298.232 958.763 298.625 958.7 299.038 958.7C299.718 958.7 300.242 958.87 300.608 959.21C300.982 959.543 301.168 960.053 301.168 960.74V964H300.488ZM298.678 964.05C298.285 964.05 297.942 963.987 297.648 963.86C297.362 963.727 297.142 963.547 296.988 963.32C296.835 963.087 296.758 962.82 296.758 962.52C296.758 962.247 296.822 962 296.948 961.78C297.082 961.553 297.295 961.373 297.588 961.24C297.888 961.1 298.288 961.03 298.788 961.03H300.598V961.56H298.808C298.302 961.56 297.948 961.65 297.748 961.83C297.555 962.01 297.458 962.233 297.458 962.5C297.458 962.8 297.575 963.04 297.808 963.22C298.042 963.4 298.368 963.49 298.788 963.49C299.188 963.49 299.532 963.4 299.818 963.22C300.112 963.033 300.325 962.767 300.458 962.42L300.618 962.91C300.485 963.257 300.252 963.533 299.918 963.74C299.592 963.947 299.178 964.05 298.678 964.05Z" fill="black"/>
<path d="M305.377 958.7C305.803 958.7 306.177 958.783 306.497 958.95C306.823 959.11 307.077 959.357 307.257 959.69C307.443 960.023 307.537 960.443 307.537 960.95V964H306.827V961.02C306.827 960.467 306.687 960.05 306.407 959.77C306.133 959.483 305.747 959.34 305.247 959.34C304.873 959.34 304.547 959.417 304.267 959.57C303.993 959.717 303.78 959.933 303.627 960.22C303.48 960.5 303.407 960.84 303.407 961.24V964H302.697V958.75H303.377V960.19L303.267 959.92C303.433 959.54 303.7 959.243 304.067 959.03C304.433 958.81 304.87 958.7 305.377 958.7Z" fill="black"/>
<path d="M311.234 964.05C310.714 964.05 310.248 963.937 309.835 963.71C309.428 963.477 309.108 963.16 308.874 962.76C308.641 962.353 308.525 961.89 308.525 961.37C308.525 960.843 308.641 960.38 308.874 959.98C309.108 959.58 309.428 959.267 309.835 959.04C310.248 958.813 310.714 958.7 311.234 958.7C311.681 958.7 312.084 958.787 312.444 958.96C312.804 959.133 313.088 959.393 313.294 959.74L312.764 960.1C312.584 959.833 312.361 959.637 312.094 959.51C311.828 959.383 311.538 959.32 311.224 959.32C310.851 959.32 310.514 959.407 310.214 959.58C309.914 959.747 309.678 959.983 309.504 960.29C309.331 960.597 309.245 960.957 309.245 961.37C309.245 961.783 309.331 962.143 309.504 962.45C309.678 962.757 309.914 962.997 310.214 963.17C310.514 963.337 310.851 963.42 311.224 963.42C311.538 963.42 311.828 963.357 312.094 963.23C312.361 963.103 312.584 962.91 312.764 962.65L313.294 963.01C313.088 963.35 312.804 963.61 312.444 963.79C312.084 963.963 311.681 964.05 311.234 964.05Z" fill="black"/>
<path d="M316.431 964.05C315.885 964.05 315.405 963.937 314.991 963.71C314.578 963.477 314.255 963.16 314.021 962.76C313.788 962.353 313.671 961.89 313.671 961.37C313.671 960.85 313.781 960.39 314.001 959.99C314.228 959.59 314.535 959.277 314.921 959.05C315.315 958.817 315.755 958.7 316.241 958.7C316.735 958.7 317.171 958.813 317.551 959.04C317.938 959.26 318.241 959.573 318.461 959.98C318.681 960.38 318.791 960.843 318.791 961.37C318.791 961.403 318.788 961.44 318.781 961.48C318.781 961.513 318.781 961.55 318.781 961.59H314.211V961.06H318.401L318.121 961.27C318.121 960.89 318.038 960.553 317.871 960.26C317.711 959.96 317.491 959.727 317.211 959.56C316.931 959.393 316.608 959.31 316.241 959.31C315.881 959.31 315.558 959.393 315.271 959.56C314.985 959.727 314.761 959.96 314.601 960.26C314.441 960.56 314.361 960.903 314.361 961.29V961.4C314.361 961.8 314.448 962.153 314.621 962.46C314.801 962.76 315.048 962.997 315.361 963.17C315.681 963.337 316.045 963.42 316.451 963.42C316.771 963.42 317.068 963.363 317.341 963.25C317.621 963.137 317.861 962.963 318.061 962.73L318.461 963.19C318.228 963.47 317.935 963.683 317.581 963.83C317.235 963.977 316.851 964.05 316.431 964.05Z" fill="black"/>
<path d="M163.554 847.13H167.254V847.76H163.554V847.13ZM163.634 850.36H167.844V851H162.894V844H167.694V844.64H163.634V850.36Z" fill="black"/>
<path d="M171.713 845.7C172.14 845.7 172.513 845.783 172.833 845.95C173.16 846.11 173.413 846.357 173.593 846.69C173.78 847.023 173.873 847.443 173.873 847.95V851H173.163V848.02C173.163 847.467 173.023 847.05 172.743 846.77C172.47 846.483 172.083 846.34 171.583 846.34C171.21 846.34 170.883 846.417 170.603 846.57C170.33 846.717 170.116 846.933 169.963 847.22C169.816 847.5 169.743 847.84 169.743 848.24V851H169.033V845.75H169.713V847.19L169.603 846.92C169.77 846.54 170.036 846.243 170.403 846.03C170.77 845.81 171.206 845.7 171.713 845.7Z" fill="black"/>
<path d="M177.051 851.05C176.557 851.05 176.177 850.917 175.911 850.65C175.644 850.383 175.511 850.007 175.511 849.52V844.59H176.221V849.48C176.221 849.787 176.297 850.023 176.451 850.19C176.611 850.357 176.837 850.44 177.131 850.44C177.444 850.44 177.704 850.35 177.911 850.17L178.161 850.68C178.021 850.807 177.851 850.9 177.651 850.96C177.457 851.02 177.257 851.05 177.051 851.05ZM174.571 846.34V845.75H177.821V846.34H174.571Z" fill="black"/>
<path d="M179.053 851V845.75H179.733V847.18L179.663 846.93C179.81 846.53 180.057 846.227 180.403 846.02C180.75 845.807 181.18 845.7 181.693 845.7V846.39C181.667 846.39 181.64 846.39 181.613 846.39C181.587 846.383 181.56 846.38 181.533 846.38C180.98 846.38 180.547 846.55 180.233 846.89C179.92 847.223 179.763 847.7 179.763 848.32V851H179.053Z" fill="black"/>
<path d="M185.488 851V849.84L185.458 849.65V847.71C185.458 847.263 185.332 846.92 185.078 846.68C184.832 846.44 184.462 846.32 183.968 846.32C183.628 846.32 183.305 846.377 182.998 846.49C182.692 846.603 182.432 846.753 182.218 846.94L181.898 846.41C182.165 846.183 182.485 846.01 182.858 845.89C183.232 845.763 183.625 845.7 184.038 845.7C184.718 845.7 185.242 845.87 185.608 846.21C185.982 846.543 186.168 847.053 186.168 847.74V851H185.488ZM183.678 851.05C183.285 851.05 182.942 850.987 182.648 850.86C182.362 850.727 182.142 850.547 181.988 850.32C181.835 850.087 181.758 849.82 181.758 849.52C181.758 849.247 181.822 849 181.948 848.78C182.082 848.553 182.295 848.373 182.588 848.24C182.888 848.1 183.288 848.03 183.788 848.03H185.598V848.56H183.808C183.302 848.56 182.948 848.65 182.748 848.83C182.555 849.01 182.458 849.233 182.458 849.5C182.458 849.8 182.575 850.04 182.808 850.22C183.042 850.4 183.368 850.49 183.788 850.49C184.188 850.49 184.532 850.4 184.818 850.22C185.112 850.033 185.325 849.767 185.458 849.42L185.618 849.91C185.485 850.257 185.252 850.533 184.918 850.74C184.592 850.947 184.178 851.05 183.678 851.05Z" fill="black"/>
<path d="M190.377 845.7C190.803 845.7 191.177 845.783 191.497 845.95C191.823 846.11 192.077 846.357 192.257 846.69C192.443 847.023 192.537 847.443 192.537 847.95V851H191.827V848.02C191.827 847.467 191.687 847.05 191.407 846.77C191.133 846.483 190.747 846.34 190.247 846.34C189.873 846.34 189.547 846.417 189.267 846.57C188.993 846.717 188.78 846.933 188.627 847.22C188.48 847.5 188.407 847.84 188.407 848.24V851H187.697V845.75H188.377V847.19L188.267 846.92C188.433 846.54 188.7 846.243 189.067 846.03C189.433 845.81 189.87 845.7 190.377 845.7Z" fill="black"/>
<path d="M196.234 851.05C195.714 851.05 195.248 850.937 194.834 850.71C194.428 850.477 194.108 850.16 193.874 849.76C193.641 849.353 193.524 848.89 193.524 848.37C193.524 847.843 193.641 847.38 193.874 846.98C194.108 846.58 194.428 846.267 194.834 846.04C195.248 845.813 195.714 845.7 196.234 845.7C196.681 845.7 197.084 845.787 197.444 845.96C197.804 846.133 198.088 846.393 198.294 846.74L197.764 847.1C197.584 846.833 197.361 846.637 197.094 846.51C196.828 846.383 196.538 846.32 196.224 846.32C195.851 846.32 195.514 846.407 195.214 846.58C194.914 846.747 194.678 846.983 194.504 847.29C194.331 847.597 194.244 847.957 194.244 848.37C194.244 848.783 194.331 849.143 194.504 849.45C194.678 849.757 194.914 849.997 195.214 850.17C195.514 850.337 195.851 850.42 196.224 850.42C196.538 850.42 196.828 850.357 197.094 850.23C197.361 850.103 197.584 849.91 197.764 849.65L198.294 850.01C198.088 850.35 197.804 850.61 197.444 850.79C197.084 850.963 196.681 851.05 196.234 851.05Z" fill="black"/>
<path d="M201.431 851.05C200.885 851.05 200.405 850.937 199.991 850.71C199.578 850.477 199.255 850.16 199.021 849.76C198.788 849.353 198.671 848.89 198.671 848.37C198.671 847.85 198.781 847.39 199.001 846.99C199.228 846.59 199.535 846.277 199.921 846.05C200.315 845.817 200.755 845.7 201.241 845.7C201.735 845.7 202.171 845.813 202.551 846.04C202.938 846.26 203.241 846.573 203.461 846.98C203.681 847.38 203.791 847.843 203.791 848.37C203.791 848.403 203.788 848.44 203.781 848.48C203.781 848.513 203.781 848.55 203.781 848.59H199.211V848.06H203.401L203.121 848.27C203.121 847.89 203.038 847.553 202.871 847.26C202.711 846.96 202.491 846.727 202.211 846.56C201.931 846.393 201.608 846.31 201.241 846.31C200.881 846.31 200.558 846.393 200.271 846.56C199.985 846.727 199.761 846.96 199.601 847.26C199.441 847.56 199.361 847.903 199.361 848.29V848.4C199.361 848.8 199.448 849.153 199.621 849.46C199.801 849.76 200.048 849.997 200.361 850.17C200.681 850.337 201.045 850.42 201.451 850.42C201.771 850.42 202.068 850.363 202.341 850.25C202.621 850.137 202.861 849.963 203.061 849.73L203.461 850.19C203.228 850.47 202.935 850.683 202.581 850.83C202.235 850.977 201.851 851.05 201.431 851.05Z" fill="black"/>
<path d="M379.554 870.13H383.254V870.76H379.554V870.13ZM379.634 873.36H383.844V874H378.894V867H383.694V867.64H379.634V873.36Z" fill="black"/>
<path d="M387.713 868.7C388.14 868.7 388.513 868.783 388.833 868.95C389.16 869.11 389.413 869.357 389.593 869.69C389.78 870.023 389.873 870.443 389.873 870.95V874H389.163V871.02C389.163 870.467 389.023 870.05 388.743 869.77C388.47 869.483 388.083 869.34 387.583 869.34C387.21 869.34 386.883 869.417 386.603 869.57C386.33 869.717 386.116 869.933 385.963 870.22C385.816 870.5 385.743 870.84 385.743 871.24V874H385.033V868.75H385.713V870.19L385.603 869.92C385.77 869.54 386.036 869.243 386.403 869.03C386.77 868.81 387.206 868.7 387.713 868.7Z" fill="black"/>
<path d="M393.051 874.05C392.557 874.05 392.177 873.917 391.911 873.65C391.644 873.383 391.511 873.007 391.511 872.52V867.59H392.221V872.48C392.221 872.787 392.297 873.023 392.451 873.19C392.611 873.357 392.837 873.44 393.131 873.44C393.444 873.44 393.704 873.35 393.911 873.17L394.161 873.68C394.021 873.807 393.851 873.9 393.651 873.96C393.457 874.02 393.257 874.05 393.051 874.05ZM390.571 869.34V868.75H393.821V869.34H390.571Z" fill="black"/>
<path d="M395.053 874V868.75H395.733V870.18L395.663 869.93C395.81 869.53 396.057 869.227 396.403 869.02C396.75 868.807 397.18 868.7 397.693 868.7V869.39C397.667 869.39 397.64 869.39 397.613 869.39C397.587 869.383 397.56 869.38 397.533 869.38C396.98 869.38 396.547 869.55 396.233 869.89C395.92 870.223 395.763 870.7 395.763 871.32V874H395.053Z" fill="black"/>
<path d="M401.488 874V872.84L401.458 872.65V870.71C401.458 870.263 401.332 869.92 401.078 869.68C400.832 869.44 400.462 869.32 399.968 869.32C399.628 869.32 399.305 869.377 398.998 869.49C398.692 869.603 398.432 869.753 398.218 869.94L397.898 869.41C398.165 869.183 398.485 869.01 398.858 868.89C399.232 868.763 399.625 868.7 400.038 868.7C400.718 868.7 401.242 868.87 401.608 869.21C401.982 869.543 402.168 870.053 402.168 870.74V874H401.488ZM399.678 874.05C399.285 874.05 398.942 873.987 398.648 873.86C398.362 873.727 398.142 873.547 397.988 873.32C397.835 873.087 397.758 872.82 397.758 872.52C397.758 872.247 397.822 872 397.948 871.78C398.082 871.553 398.295 871.373 398.588 871.24C398.888 871.1 399.288 871.03 399.788 871.03H401.598V871.56H399.808C399.302 871.56 398.948 871.65 398.748 871.83C398.555 872.01 398.458 872.233 398.458 872.5C398.458 872.8 398.575 873.04 398.808 873.22C399.042 873.4 399.368 873.49 399.788 873.49C400.188 873.49 400.532 873.4 400.818 873.22C401.112 873.033 401.325 872.767 401.458 872.42L401.618 872.91C401.485 873.257 401.252 873.533 400.918 873.74C400.592 873.947 400.178 874.05 399.678 874.05Z" fill="black"/>
<path d="M406.377 868.7C406.803 868.7 407.177 868.783 407.497 868.95C407.823 869.11 408.077 869.357 408.257 869.69C408.443 870.023 408.537 870.443 408.537 870.95V874H407.827V871.02C407.827 870.467 407.687 870.05 407.407 869.77C407.133 869.483 406.747 869.34 406.247 869.34C405.873 869.34 405.547 869.417 405.267 869.57C404.993 869.717 404.78 869.933 404.627 870.22C404.48 870.5 404.407 870.84 404.407 871.24V874H403.697V868.75H404.377V870.19L404.267 869.92C404.433 869.54 404.7 869.243 405.067 869.03C405.433 868.81 405.87 868.7 406.377 868.7Z" fill="black"/>
<path d="M412.234 874.05C411.714 874.05 411.248 873.937 410.835 873.71C410.428 873.477 410.108 873.16 409.874 872.76C409.641 872.353 409.525 871.89 409.525 871.37C409.525 870.843 409.641 870.38 409.874 869.98C410.108 869.58 410.428 869.267 410.835 869.04C411.248 868.813 411.714 868.7 412.234 868.7C412.681 868.7 413.084 868.787 413.444 868.96C413.804 869.133 414.088 869.393 414.294 869.74L413.764 870.1C413.584 869.833 413.361 869.637 413.094 869.51C412.828 869.383 412.538 869.32 412.224 869.32C411.851 869.32 411.514 869.407 411.214 869.58C410.914 869.747 410.678 869.983 410.504 870.29C410.331 870.597 410.245 870.957 410.245 871.37C410.245 871.783 410.331 872.143 410.504 872.45C410.678 872.757 410.914 872.997 411.214 873.17C411.514 873.337 411.851 873.42 412.224 873.42C412.538 873.42 412.828 873.357 413.094 873.23C413.361 873.103 413.584 872.91 413.764 872.65L414.294 873.01C414.088 873.35 413.804 873.61 413.444 873.79C413.084 873.963 412.681 874.05 412.234 874.05Z" fill="black"/>
<path d="M417.431 874.05C416.885 874.05 416.405 873.937 415.991 873.71C415.578 873.477 415.255 873.16 415.021 872.76C414.788 872.353 414.671 871.89 414.671 871.37C414.671 870.85 414.781 870.39 415.001 869.99C415.228 869.59 415.535 869.277 415.921 869.05C416.315 868.817 416.755 868.7 417.241 868.7C417.735 868.7 418.171 868.813 418.551 869.04C418.938 869.26 419.241 869.573 419.461 869.98C419.681 870.38 419.791 870.843 419.791 871.37C419.791 871.403 419.788 871.44 419.781 871.48C419.781 871.513 419.781 871.55 419.781 871.59H415.211V871.06H419.401L419.121 871.27C419.121 870.89 419.038 870.553 418.871 870.26C418.711 869.96 418.491 869.727 418.211 869.56C417.931 869.393 417.608 869.31 417.241 869.31C416.881 869.31 416.558 869.393 416.271 869.56C415.985 869.727 415.761 869.96 415.601 870.26C415.441 870.56 415.361 870.903 415.361 871.29V871.4C415.361 871.8 415.448 872.153 415.621 872.46C415.801 872.76 416.048 872.997 416.361 873.17C416.681 873.337 417.045 873.42 417.451 873.42C417.771 873.42 418.068 873.363 418.341 873.25C418.621 873.137 418.861 872.963 419.061 872.73L419.461 873.19C419.228 873.47 418.935 873.683 418.581 873.83C418.235 873.977 417.851 874.05 417.431 874.05Z" fill="black"/>
</svg>
