<svg width="800" height="1400" viewBox="0 0 800 1400" fill="none" xmlns="http://www.w3.org/2000/svg">
<rect width="800" height="1400" fill="white"/>
<path d="M539.814 899.781L560.363 886.637L610.532 917.368L539.814 960.5V899.781Z" fill="#D9D9D9"/>
<path d="M560.363 886.635L560.363 860.347L610.532 832.95V917.368L560.363 886.635Z" fill="#D9D9D9"/>
<path d="M560.363 860.349L539.814 847.205L524.633 790L610.532 832.95L560.363 860.349Z" fill="#D9D9D9"/>
<path d="M539.814 899.781L519.264 886.637L466.133 917.368L539.814 960.5V899.781Z" fill="#D9D9D9"/>
<path d="M519.264 886.637L519.264 860.349L466.133 826.655L466.133 917.368L519.264 886.637Z" fill="#D9D9D9"/>
<path d="M539.814 847.205L519.264 860.349L466.133 826.655L524.633 790L539.814 847.205Z" fill="#D9D9D9"/>
<path d="M601.832 783.112L633.489 765.525L686.806 789.961L610.533 832.726L601.832 783.112Z" fill="#383838"/>
<path d="M633.489 765.525V730.35L686.806 706.839V789.961L633.489 765.525Z" fill="#383838"/>
<path d="M633.489 730.35L601.832 712.763L605.72 665L686.806 706.839L633.489 730.35Z" fill="#383838"/>
<path d="M601.832 783.112L570.268 765.524L524.634 789.776L610.533 832.726L601.832 783.112Z" fill="#383838"/>
<path d="M570.268 765.524L570.082 730.35L524.634 706.654V789.776L570.268 765.524Z" fill="#383838"/>
<path d="M601.832 712.763L570.082 730.35L524.634 706.654L605.72 665L601.832 712.763Z" fill="#383838"/>
<path d="M601.832 794.034L643.301 771.078L686.806 789.961L610.533 832.726L601.832 794.034Z" fill="#A8A8A8"/>
<path d="M643.301 771.078V724.611L686.806 706.839V789.961L643.301 771.078Z" fill="#A8A8A8"/>
<path d="M643.301 724.611L601.832 703.507L605.72 665L686.806 706.839L643.301 724.611Z" fill="#A8A8A8"/>
<path d="M601.832 794.034L561.474 771.819L524.634 789.776L610.533 832.726L601.832 794.034Z" fill="#A8A8A8"/>
<path d="M561.474 771.819V724.611L524.634 706.654V789.776L561.474 771.819Z" fill="#A8A8A8"/>
<path d="M601.832 703.507L561.474 724.611L524.634 706.654L605.72 665L601.832 703.507Z" fill="#A8A8A8"/>
<path d="M195.661 783.112L164.004 765.525L110.687 789.961L186.96 832.726L195.661 783.112Z" fill="#383838"/>
<path d="M164.004 765.525V730.35L110.687 706.839V789.961L164.004 765.525Z" fill="#383838"/>
<path d="M164.004 730.35L195.661 712.763L191.773 665L110.687 706.839L164.004 730.35Z" fill="#383838"/>
<path d="M195.661 783.112L227.225 765.524L272.859 789.776L186.96 832.726L195.661 783.112Z" fill="#383838"/>
<path d="M227.225 765.524L227.41 730.35L272.859 706.654V789.776L227.225 765.524Z" fill="#383838"/>
<path d="M195.661 712.763L227.41 730.35L272.859 706.654L191.773 665L195.661 712.763Z" fill="#383838"/>
<path d="M195.661 794.034L154.192 771.078L110.687 789.961L186.96 832.726L195.661 794.034Z" fill="#A8A8A8"/>
<path d="M154.192 771.078V724.611L110.687 706.839V789.961L154.192 771.078Z" fill="#A8A8A8"/>
<path d="M154.192 724.611L195.661 703.507L191.773 665L110.687 706.839L154.192 724.611Z" fill="#A8A8A8"/>
<path d="M195.661 794.034L236.018 771.819L272.859 789.776L186.96 832.726L195.661 794.034Z" fill="#A8A8A8"/>
<path d="M236.018 771.819V724.611L272.859 706.654V789.776L236.018 771.819Z" fill="#A8A8A8"/>
<path d="M195.661 703.507L236.018 724.611L272.859 706.654L191.773 665L195.661 703.507Z" fill="#A8A8A8"/>
<path d="M257.679 899.781L237.129 886.637L186.96 917.368L259.16 962.724L257.679 899.781Z" fill="#D9D9D9"/>
<path d="M237.129 886.635L237.129 860.347L186.96 832.95V917.368L237.129 886.635Z" fill="#D9D9D9"/>
<path d="M237.129 860.349L257.679 847.205L272.859 790L186.96 832.95L237.129 860.349Z" fill="#D9D9D9"/>
<path d="M257.679 899.781L278.228 886.637L331.36 917.368L259.16 962.724L257.679 899.781Z" fill="#D9D9D9"/>
<path d="M278.228 886.637L278.228 860.349L331.359 826.655L331.36 917.368L278.228 886.637Z" fill="#D9D9D9"/>
<path d="M257.679 847.205L278.228 860.349L331.359 826.655L272.859 790L257.679 847.205Z" fill="#D9D9D9"/>
<path d="M257.679 911.259L227.318 892.931L186.96 917.368L257.679 961.86V911.259Z" fill="#444444"/>
<path d="M227.318 892.931V856.276L186.96 832.95V917.368L227.318 892.931Z" fill="#444444"/>
<path d="M227.318 856.276L257.679 837.208L272.859 790L186.96 832.95L227.318 856.276Z" fill="#444444"/>
<path d="M257.679 911.259L285.633 892.931L331.36 917.368L257.679 961.86V911.259Z" fill="#444444"/>
<path d="M285.633 892.931V856.276L331.359 826.655L331.36 917.368L285.633 892.931Z" fill="#444444"/>
<path d="M257.679 837.208L285.633 856.276L331.359 826.655L272.859 790L257.679 837.208Z" fill="#444444"/>
<path d="M539.814 911.259L570.175 892.931L610.532 917.368L539.814 958.697V911.259Z" fill="#444444"/>
<path d="M570.175 892.931V856.276L610.532 832.95V917.368L570.175 892.931Z" fill="#444444"/>
<path d="M570.175 856.276L539.814 837.208L524.633 790L610.532 832.95L570.175 856.276Z" fill="#444444"/>
<path d="M539.814 911.259L511.86 892.931L466.133 917.368L539.814 958.697V911.259Z" fill="#444444"/>
<path d="M511.86 892.931V856.276L466.133 826.655L466.133 917.368L511.86 892.931Z" fill="#444444"/>
<path d="M539.814 837.208L511.86 856.276L466.133 826.655L524.633 790L539.814 837.208Z" fill="#444444"/>
<path d="M200.273 661.684L200.273 707.781L167.135 727.219L129.924 706.3V660.573L162.877 641.875L200.273 661.684Z" fill="#D9D9D9"/>
<path d="M597.226 661.684V707.781L630.364 727.219L667.575 706.3V660.573L634.622 641.875L597.226 661.684Z" fill="#D9D9D9"/>
<path d="M57 376.852L124.387 336.679L193.254 376.852V444.794L259 488V556L193.254 592.896V664.171L110.687 706.75L57 681.573V376.852Z" fill="#D9D9D9"/>
<path d="M588.873 299.946L666.071 258.477L743.64 299.946V692.417L687 726.5L588.873 679.273V528.949L525 490V411.977L588.873 377.515V299.946Z" fill="#D9D9D9"/>
<path d="M339.69 976.667L374.309 995.735L388.194 986.849V982.036L398.746 987.589L398.773 1133.91L308.219 1084.21V980.555L330.619 964.078L339.69 976.667Z" fill="#D9D9D9"/>
<path d="M368.755 874.846H398.746V987.589L340.246 957.043L308.219 980.555L293.408 940.197L325.435 912.613L330.989 899.098L368.755 874.846Z" fill="#D9D9D9"/>
<path d="M457.829 976.667L423.21 995.735L409.325 986.849V982.036L398.773 987.589L398.746 1133.91L489.301 1084.21V980.555L466.9 964.078L457.829 976.667Z" fill="#D9D9D9"/>
<path d="M428.764 874.846H398.773V987.589L457.274 957.043L489.301 980.555L504.111 940.197L472.084 912.613L466.53 899.098L428.764 874.846Z" fill="#D9D9D9"/>
<path d="M109.606 994.894L174.539 1106.7L155.933 1117.5L91 1005.7L94.8215 1003.56L100.303 1000.3L109.606 994.894Z" fill="#828282"/>
<path d="M297.302 949.446L307.028 966.193L217.462 1018.21L207.736 1001.46L297.302 949.446Z" fill="#828282"/>
<path d="M167.389 932L257.788 1087.65L187.26 1128.61L96.8609 972.96L111.266 964.703L132.125 952.48L167.389 932Z" fill="#828282"/>
<path d="M168.225 1090.87L200.377 1072.21L220.673 1107.18L188.521 1125.84L168.225 1090.87Z" fill="#D9D9D9"/>
<path d="M202.353 1071.09L234.506 1052.43L254.801 1087.4L222.649 1106.06L202.353 1071.09Z" fill="#D9D9D9"/>
<path d="M100.225 973.866L132.377 955.206L152.673 990.178L120.521 1008.84L100.225 973.866Z" fill="#D9D9D9"/>
<path d="M134.353 954.086L166.506 935.426L186.801 970.398L154.649 989.057L134.353 954.086Z" fill="#D9D9D9"/>
<path d="M688.422 994.894L623.489 1106.7L642.096 1117.5L707.028 1005.7L703.207 1003.56L697.725 1000.3L688.422 994.894Z" fill="#828282"/>
<path d="M500.726 949.446L491 966.193L580.566 1018.21L590.292 1001.46L500.726 949.446Z" fill="#828282"/>
<path d="M630.639 932L540.241 1087.65L610.769 1128.61L701.167 972.96L686.763 964.703L665.903 952.48L630.639 932Z" fill="#828282"/>
<path d="M629.801 1090.87L597.649 1072.21L577.353 1107.18L609.505 1125.84L629.801 1090.87Z" fill="#D9D9D9"/>
<path d="M595.673 1071.09L563.521 1052.43L543.225 1087.4L575.377 1106.06L595.673 1071.09Z" fill="#D9D9D9"/>
<path d="M697.801 973.866L665.649 955.206L645.353 990.178L677.505 1008.84L697.801 973.866Z" fill="#D9D9D9"/>
<path d="M663.673 954.086L631.521 935.426L611.225 970.398L643.377 989.057L663.673 954.086Z" fill="#D9D9D9"/>
<path d="M62.9999 379H187V681H62.9999V379Z" fill="#A8A8A8"/>
<path d="M175 555H222V563H175V555Z" fill="#A8A8A8"/>
<path d="M175 482H222V490H175V482Z" fill="#A8A8A8"/>
<path d="M599 301H735V671H599V301Z" fill="#A8A8A8"/>
<path d="M612 484H565V492H612V484Z" fill="#A8A8A8"/>
<path d="M612 411H565V419H612V411Z" fill="#A8A8A8"/>
</svg>
