<svg width="1400" height="1400" viewBox="0 0 1400 1400" fill="none" xmlns="http://www.w3.org/2000/svg">
<rect width="1400" height="1400" fill="white"/>
<path d="M907.217 1002.32L937.743 982.8L1012.27 1028.44L907.217 1092.49V1002.32Z" fill="#D9D9D9"/>
<path d="M937.743 982.798L937.743 943.761L1012.27 903.077V1028.44L937.743 982.798Z" fill="#D9D9D9"/>
<path d="M937.743 943.763L907.217 924.245L884.667 839.297L1012.27 903.077L937.743 943.763Z" fill="#D9D9D9"/>
<path d="M907.217 1002.32L876.691 982.8L797.764 1028.44L907.217 1092.49V1002.32Z" fill="#D9D9D9"/>
<path d="M876.691 982.8L876.691 943.764L797.764 893.73L797.764 1028.44L876.691 982.8Z" fill="#D9D9D9"/>
<path d="M907.217 924.245L876.691 943.764L797.764 893.73L884.667 839.297L907.217 924.245Z" fill="#D9D9D9"/>
<path d="M999.345 829.068L1046.37 802.952L1125.57 839.24L1012.27 902.744L999.345 829.068Z" fill="#383838"/>
<path d="M1046.37 802.952V750.719L1125.57 715.805V839.24L1046.37 802.952Z" fill="#383838"/>
<path d="M1046.37 750.719L999.345 724.602L1005.12 653.676L1125.57 715.805L1046.37 750.719Z" fill="#383838"/>
<path d="M999.345 829.068L952.456 802.951L884.667 838.965L1012.27 902.744L999.345 829.068Z" fill="#383838"/>
<path d="M952.456 802.951L952.181 750.718L884.667 715.53V838.965L952.456 802.951Z" fill="#383838"/>
<path d="M999.345 724.602L952.181 750.718L884.667 715.53L1005.12 653.676L999.345 724.602Z" fill="#383838"/>
<path d="M999.345 845.288L1060.95 811.199L1125.57 839.24L1012.27 902.744L999.345 845.288Z" fill="#A8A8A8"/>
<path d="M1060.95 811.199V742.197L1125.57 715.805V839.24L1060.95 811.199Z" fill="#A8A8A8"/>
<path d="M1060.95 742.197L999.345 710.857L1005.12 653.676L1125.57 715.805L1060.95 742.197Z" fill="#A8A8A8"/>
<path d="M999.345 845.288L939.393 812.299L884.667 838.965L1012.27 902.744L999.345 845.288Z" fill="#A8A8A8"/>
<path d="M939.393 812.299V742.197L884.667 715.53V838.965L939.393 812.299Z" fill="#A8A8A8"/>
<path d="M999.345 710.857L939.393 742.197L884.667 715.53L1005.12 653.676L999.345 710.857Z" fill="#A8A8A8"/>
<path d="M395.98 829.068L348.954 802.952L269.752 839.24L383.054 902.744L395.98 829.068Z" fill="#383838"/>
<path d="M348.954 802.952V750.719L269.752 715.805V839.24L348.954 802.952Z" fill="#383838"/>
<path d="M348.954 750.719L395.98 724.602L390.205 653.676L269.752 715.805L348.954 750.719Z" fill="#383838"/>
<path d="M395.98 829.068L442.868 802.951L510.657 838.965L383.054 902.744L395.98 829.068Z" fill="#383838"/>
<path d="M442.868 802.951L443.143 750.718L510.657 715.53V838.965L442.868 802.951Z" fill="#383838"/>
<path d="M395.98 724.602L443.143 750.718L510.657 715.53L390.205 653.676L395.98 724.602Z" fill="#383838"/>
<path d="M395.98 845.288L334.378 811.199L269.752 839.24L383.054 902.744L395.98 845.288Z" fill="#A8A8A8"/>
<path d="M334.378 811.199V742.197L269.752 715.805V839.24L334.378 811.199Z" fill="#A8A8A8"/>
<path d="M334.378 742.197L395.98 710.857L390.205 653.676L269.752 715.805L334.378 742.197Z" fill="#A8A8A8"/>
<path d="M395.98 845.288L455.931 812.299L510.657 838.965L383.054 902.744L395.98 845.288Z" fill="#A8A8A8"/>
<path d="M455.931 812.299V742.197L510.657 715.53V838.965L455.931 812.299Z" fill="#A8A8A8"/>
<path d="M395.98 710.857L455.931 742.197L510.657 715.53L390.205 653.676L395.98 710.857Z" fill="#A8A8A8"/>
<path d="M488.107 1002.32L457.581 982.8L383.054 1028.44L490.307 1095.79L488.107 1002.32Z" fill="#D9D9D9"/>
<path d="M457.581 982.798L457.581 943.761L383.054 903.077V1028.44L457.581 982.798Z" fill="#D9D9D9"/>
<path d="M457.581 943.763L488.107 924.245L510.657 839.297L383.054 903.077L457.581 943.763Z" fill="#D9D9D9"/>
<path d="M488.107 1002.32L518.633 982.8L597.56 1028.44L490.307 1095.79L488.107 1002.32Z" fill="#D9D9D9"/>
<path d="M518.633 982.8L518.633 943.764L597.56 893.73L597.56 1028.44L518.633 982.8Z" fill="#D9D9D9"/>
<path d="M488.107 924.245L518.633 943.764L597.56 893.73L510.657 839.297L488.107 924.245Z" fill="#D9D9D9"/>
<path d="M488.107 1019.36L443.006 992.148L383.054 1028.44L488.107 1094.5V1019.36Z" fill="#444444"/>
<path d="M443.006 992.148V937.715L383.054 903.077V1028.44L443.006 992.148Z" fill="#444444"/>
<path d="M443.006 937.715L488.107 909.4L510.657 839.297L383.054 903.077L443.006 937.715Z" fill="#444444"/>
<path d="M488.107 1019.36L529.633 992.148L597.56 1028.44L488.107 1094.5V1019.36Z" fill="#444444"/>
<path d="M529.633 992.148V937.715L597.56 893.73L597.56 1028.44L529.633 992.148Z" fill="#444444"/>
<path d="M488.107 909.4L529.633 937.715L597.56 893.73L510.657 839.297L488.107 909.4Z" fill="#444444"/>
<path d="M907.218 1019.36L952.319 992.148L1012.27 1028.44L907.218 1089.81V1019.36Z" fill="#444444"/>
<path d="M952.319 992.148V937.715L1012.27 903.077V1028.44L952.319 992.148Z" fill="#444444"/>
<path d="M952.319 937.715L907.218 909.4L884.667 839.297L1012.27 903.077L952.319 937.715Z" fill="#444444"/>
<path d="M907.218 1019.36L865.692 992.148L797.764 1028.44L907.218 1089.81V1019.36Z" fill="#444444"/>
<path d="M865.692 992.148V937.715L797.764 893.73L797.764 1028.44L865.692 992.148Z" fill="#444444"/>
<path d="M907.218 909.4L865.692 937.715L797.764 893.73L884.667 839.297L907.218 909.4Z" fill="#444444"/>
<path d="M402.831 648.751L402.831 717.204L353.604 746.07L298.328 715.005V647.102L347.279 619.336L402.831 648.751Z" fill="#D9D9D9"/>
<path d="M992.503 648.751V717.204L1041.73 746.07L1097.01 715.005V647.102L1048.05 619.336L992.503 648.751Z" fill="#D9D9D9"/>
<path d="M190 225.783L290.102 166.128L392.405 225.783V326.675L490.07 390.835V491.813L392.405 546.604V652.444L269.752 715.674L190 678.286V225.783Z" fill="#D9D9D9"/>
<path d="M980.094 111.58L1094.77 50L1210 111.58V694.39L1125.86 745.002L980.094 674.871V451.644L885.212 393.805V277.944L980.094 226.767V111.58Z" fill="#D9D9D9"/>
<path d="M609.935 1116.49L661.361 1144.81L681.987 1131.61V1124.47L697.662 1132.71L697.702 1350L563.184 1276.19V1122.27L596.46 1097.8L609.935 1116.49Z" fill="#D9D9D9"/>
<path d="M653.111 965.292H697.662V1132.71L610.76 1087.35L563.184 1122.27L541.183 1062.34L588.759 1021.37L597.01 1001.31L653.111 965.292Z" fill="#D9D9D9"/>
<path d="M785.429 1116.49L734.003 1144.81L713.378 1131.61V1124.47L697.702 1132.71L697.662 1350L832.18 1276.19V1122.27L798.905 1097.8L785.429 1116.49Z" fill="#D9D9D9"/>
<path d="M742.253 965.292H697.702V1132.71L784.604 1087.35L832.18 1122.27L854.181 1062.34L806.605 1021.37L798.355 1001.31L742.253 965.292Z" fill="#D9D9D9"/>
<path d="M268.146 1143.56L364.603 1309.59L336.964 1325.63L240.507 1159.61L246.184 1156.43L254.327 1151.58L268.146 1143.56Z" fill="#828282"/>
<path d="M546.967 1076.07L561.416 1100.94L428.366 1178.18L413.918 1153.31L546.967 1076.07Z" fill="#828282"/>
<path d="M353.982 1050.16L488.269 1281.31L383.5 1342.13L249.213 1110.99L270.611 1098.73L301.598 1080.58L353.982 1050.16Z" fill="#828282"/>
<path d="M355.224 1286.08L402.986 1258.37L433.135 1310.3L385.374 1338.01L355.224 1286.08Z" fill="#D9D9D9"/>
<path d="M405.922 1256.7L453.684 1228.99L483.833 1280.93L436.071 1308.63L405.922 1256.7Z" fill="#D9D9D9"/>
<path d="M254.211 1112.33L301.972 1084.62L332.122 1136.56L284.36 1164.27L254.211 1112.33Z" fill="#D9D9D9"/>
<path d="M304.908 1082.96L352.67 1055.25L382.819 1107.18L335.058 1134.89L304.908 1082.96Z" fill="#D9D9D9"/>
<path d="M1127.97 1143.56L1031.52 1309.59L1059.16 1325.63L1155.61 1159.61L1149.94 1156.43L1141.79 1151.58L1127.97 1143.56Z" fill="#828282"/>
<path d="M849.153 1076.07L834.705 1100.94L967.755 1178.18L982.203 1153.31L849.153 1076.07Z" fill="#828282"/>
<path d="M1042.14 1050.16L907.852 1281.31L1012.62 1342.13L1146.91 1110.99L1125.51 1098.73L1094.52 1080.58L1042.14 1050.16Z" fill="#828282"/>
<path d="M1040.89 1286.08L993.131 1258.37L962.982 1310.3L1010.74 1338.01L1040.89 1286.08Z" fill="#D9D9D9"/>
<path d="M990.196 1256.7L942.434 1228.99L912.285 1280.93L960.046 1308.63L990.196 1256.7Z" fill="#D9D9D9"/>
<path d="M1141.91 1112.33L1094.15 1084.62L1064 1136.56L1111.76 1164.27L1141.91 1112.33Z" fill="#D9D9D9"/>
<path d="M1091.21 1082.96L1043.45 1055.25L1013.3 1107.18L1061.06 1134.89L1091.21 1082.96Z" fill="#D9D9D9"/>
<path d="M198.913 228.973H383.114V677.435H198.913V228.973Z" fill="#A8A8A8"/>
<path d="M365.288 490.328H435.107V502.208H365.288V490.328Z" fill="#A8A8A8"/>
<path d="M365.288 381.925H435.107V393.805H365.288V381.925Z" fill="#A8A8A8"/>
<path d="M995.138 113.145H1197.17V662.585H995.138V113.145Z" fill="#A8A8A8"/>
<path d="M1014.45 384.895H944.631V396.775H1014.45V384.895Z" fill="#A8A8A8"/>
<path d="M1014.45 276.492H944.631V288.372H1014.45V276.492Z" fill="#A8A8A8"/>
<path d="M1019.89 371.816C1017.48 371.816 1015.2 371.435 1013.04 370.675C1010.92 369.883 1009.21 368.838 1007.91 367.539L1009.57 364.83C1010.65 365.939 1012.09 366.858 1013.9 367.586C1015.74 368.315 1017.73 368.679 1019.89 368.679C1022.64 368.679 1024.75 368.077 1026.21 366.874C1027.7 365.67 1028.44 364.054 1028.44 362.027C1028.44 359.999 1027.72 358.383 1026.26 357.18C1024.83 355.976 1022.57 355.374 1019.46 355.374H1017.08V352.855L1027.35 339.978L1027.83 341.308H1009.29V338.267H1030.68V340.69L1020.41 353.568L1018.75 352.475H1020.03C1024.02 352.475 1027 353.362 1028.97 355.136C1030.96 356.91 1031.96 359.191 1031.96 361.979C1031.96 363.848 1031.52 365.527 1030.63 367.016C1029.74 368.505 1028.4 369.677 1026.59 370.533C1024.82 371.388 1022.58 371.816 1019.89 371.816Z" fill="black"/>
<path d="M1034.31 362.787V360.316L1051.95 338.267H1055.75L1038.26 360.316L1036.4 359.746H1063.17V362.787H1034.31ZM1053.09 371.53V362.787L1053.18 359.746V352.048H1056.51V371.53H1053.09Z" fill="black"/>
<path d="M1063.7 371.53V369.107L1077.53 355.564C1078.8 354.328 1079.75 353.251 1080.38 352.333C1081.02 351.382 1081.44 350.495 1081.67 349.672C1081.89 348.848 1082 348.072 1082 347.343C1082 345.411 1081.33 343.89 1080 342.781C1078.7 341.673 1076.77 341.118 1074.2 341.118C1072.24 341.118 1070.5 341.419 1068.97 342.021C1067.49 342.623 1066.2 343.557 1065.12 344.825L1062.7 342.734C1064 341.213 1065.66 340.041 1067.69 339.217C1069.72 338.394 1071.99 337.982 1074.49 337.982C1076.74 337.982 1078.69 338.346 1080.34 339.075C1081.98 339.772 1083.25 340.801 1084.14 342.164C1085.06 343.526 1085.52 345.126 1085.52 346.963C1085.52 348.04 1085.36 349.101 1085.04 350.147C1084.76 351.192 1084.22 352.301 1083.43 353.473C1082.66 354.614 1081.54 355.912 1080.05 357.37L1067.36 369.82L1066.41 368.489H1087.04V371.53H1063.7Z" fill="black"/>
<path d="M1089.44 360.126V357.18H1101.9V360.126H1089.44Z" fill="black"/>
<path d="M1114.32 371.816C1111.91 371.816 1109.63 371.435 1107.47 370.675C1105.35 369.883 1103.64 368.838 1102.34 367.539L1104 364.83C1105.08 365.939 1106.52 366.858 1108.33 367.586C1110.17 368.315 1112.16 368.679 1114.32 368.679C1117.07 368.679 1119.18 368.077 1120.64 366.874C1122.13 365.67 1122.87 364.054 1122.87 362.027C1122.87 359.999 1122.14 358.383 1120.69 357.18C1119.26 355.976 1116.99 355.374 1113.89 355.374H1111.51V352.855L1121.78 339.978L1122.26 341.308H1103.72V338.267H1125.11V340.69L1114.84 353.568L1113.18 352.475H1114.46C1118.45 352.475 1121.43 353.362 1123.4 355.136C1125.39 356.91 1126.39 359.191 1126.39 361.979C1126.39 363.848 1125.95 365.527 1125.06 367.016C1124.17 368.505 1122.83 369.677 1121.02 370.533C1119.24 371.388 1117.01 371.816 1114.32 371.816Z" fill="black"/>
<path d="M1139.35 371.816C1136.98 371.816 1134.71 371.435 1132.56 370.675C1130.4 369.883 1128.69 368.838 1127.42 367.539L1129.09 364.83C1130.13 365.939 1131.56 366.858 1133.36 367.586C1135.2 368.315 1137.18 368.679 1139.31 368.679C1142.13 368.679 1144.27 368.062 1145.72 366.826C1147.21 365.559 1147.96 363.912 1147.96 361.884C1147.96 360.458 1147.61 359.239 1146.91 358.225C1146.25 357.18 1145.11 356.372 1143.49 355.802C1141.87 355.231 1139.65 354.946 1136.83 354.946H1129.75L1131.46 338.267H1149.67V341.308H1132.84L1134.6 339.645L1133.13 353.616L1131.37 351.905H1137.59C1140.95 351.905 1143.65 352.317 1145.68 353.14C1147.7 353.964 1149.16 355.12 1150.05 356.609C1150.97 358.067 1151.43 359.777 1151.43 361.741C1151.43 363.611 1150.98 365.321 1150.1 366.874C1149.21 368.394 1147.88 369.598 1146.1 370.485C1144.33 371.372 1142.08 371.816 1139.35 371.816Z" fill="black"/>
<path d="M1167.51 371.816C1164.57 371.816 1162.08 371.166 1160.05 369.867C1158.02 368.537 1156.49 366.636 1155.44 364.165C1154.39 361.662 1153.87 358.669 1153.87 355.184C1153.87 351.414 1154.5 348.262 1155.77 345.727C1157.07 343.161 1158.86 341.229 1161.14 339.93C1163.43 338.631 1166.07 337.982 1169.08 337.982C1170.57 337.982 1172 338.124 1173.36 338.41C1174.72 338.695 1175.93 339.154 1176.97 339.788L1175.59 342.544C1174.74 341.973 1173.76 341.577 1172.65 341.356C1171.54 341.102 1170.37 340.976 1169.13 340.976C1165.55 340.976 1162.68 342.116 1160.53 344.397C1158.4 346.678 1157.34 350.083 1157.34 354.614C1157.34 355.311 1157.37 356.182 1157.44 357.227C1157.53 358.241 1157.72 359.255 1158.01 360.268L1156.82 359.366C1157.17 357.718 1157.85 356.324 1158.86 355.184C1159.88 354.012 1161.14 353.125 1162.67 352.523C1164.19 351.921 1165.85 351.62 1167.66 351.62C1169.87 351.62 1171.82 352.032 1173.5 352.855C1175.18 353.679 1176.5 354.835 1177.45 356.324C1178.4 357.813 1178.87 359.571 1178.87 361.599C1178.87 363.658 1178.38 365.464 1177.4 367.016C1176.42 368.537 1175.06 369.725 1173.31 370.58C1171.6 371.404 1169.67 371.816 1167.51 371.816ZM1167.37 368.917C1168.96 368.917 1170.35 368.632 1171.55 368.062C1172.79 367.46 1173.76 366.62 1174.45 365.543C1175.15 364.434 1175.5 363.151 1175.5 361.694C1175.5 359.508 1174.74 357.766 1173.22 356.467C1171.73 355.168 1169.7 354.519 1167.13 354.519C1165.42 354.519 1163.93 354.835 1162.67 355.469C1161.4 356.103 1160.4 356.974 1159.67 358.082C1158.94 359.16 1158.58 360.395 1158.58 361.789C1158.58 362.993 1158.91 364.149 1159.58 365.258C1160.24 366.335 1161.22 367.222 1162.52 367.919C1163.85 368.584 1165.47 368.917 1167.37 368.917Z" fill="black"/>
</svg>
