<svg width="800" height="1400" viewBox="0 0 800 1400" fill="none" xmlns="http://www.w3.org/2000/svg">
<rect width="800" height="1400" fill="white"/>
<path d="M539.814 899.781L560.363 886.637L610.532 917.368L539.814 960.5V899.781Z" fill="#D9D9D9"/>
<path d="M560.363 886.635L560.363 860.347L610.532 832.95V917.368L560.363 886.635Z" fill="#D9D9D9"/>
<path d="M560.363 860.349L539.814 847.205L524.633 790L610.532 832.95L560.363 860.349Z" fill="#D9D9D9"/>
<path d="M539.814 899.781L519.264 886.637L466.133 917.368L539.814 960.5V899.781Z" fill="#D9D9D9"/>
<path d="M519.264 886.637L519.264 860.349L466.133 826.655L466.133 917.368L519.264 886.637Z" fill="#D9D9D9"/>
<path d="M539.814 847.205L519.264 860.349L466.133 826.655L524.633 790L539.814 847.205Z" fill="#D9D9D9"/>
<path d="M601.832 783.112L633.489 765.525L686.806 789.961L610.533 832.726L601.832 783.112Z" fill="#383838"/>
<path d="M633.489 765.525V730.35L686.806 706.839V789.961L633.489 765.525Z" fill="#383838"/>
<path d="M633.489 730.35L601.832 712.763L605.72 665L686.806 706.839L633.489 730.35Z" fill="#383838"/>
<path d="M601.832 783.112L570.268 765.524L524.634 789.776L610.533 832.726L601.832 783.112Z" fill="#383838"/>
<path d="M570.268 765.524L570.082 730.35L524.634 706.654V789.776L570.268 765.524Z" fill="#383838"/>
<path d="M601.832 712.763L570.082 730.35L524.634 706.654L605.72 665L601.832 712.763Z" fill="#383838"/>
<path d="M601.832 794.034L643.301 771.078L686.806 789.961L610.533 832.726L601.832 794.034Z" fill="#A8A8A8"/>
<path d="M643.301 771.078V724.611L686.806 706.839V789.961L643.301 771.078Z" fill="#A8A8A8"/>
<path d="M643.301 724.611L601.832 703.507L605.72 665L686.806 706.839L643.301 724.611Z" fill="#A8A8A8"/>
<path d="M601.832 794.034L561.474 771.819L524.634 789.776L610.533 832.726L601.832 794.034Z" fill="#A8A8A8"/>
<path d="M561.474 771.819V724.611L524.634 706.654V789.776L561.474 771.819Z" fill="#A8A8A8"/>
<path d="M601.832 703.507L561.474 724.611L524.634 706.654L605.72 665L601.832 703.507Z" fill="#A8A8A8"/>
<path d="M195.661 783.112L164.004 765.525L110.687 789.961L186.96 832.726L195.661 783.112Z" fill="#383838"/>
<path d="M164.004 765.525V730.35L110.687 706.839V789.961L164.004 765.525Z" fill="#383838"/>
<path d="M164.004 730.35L195.661 712.763L191.773 665L110.687 706.839L164.004 730.35Z" fill="#383838"/>
<path d="M195.661 783.112L227.225 765.524L272.859 789.776L186.96 832.726L195.661 783.112Z" fill="#383838"/>
<path d="M227.225 765.524L227.41 730.35L272.859 706.654V789.776L227.225 765.524Z" fill="#383838"/>
<path d="M195.661 712.763L227.41 730.35L272.859 706.654L191.773 665L195.661 712.763Z" fill="#383838"/>
<path d="M195.661 794.034L154.192 771.078L110.687 789.961L186.96 832.726L195.661 794.034Z" fill="#A8A8A8"/>
<path d="M154.192 771.078V724.611L110.687 706.839V789.961L154.192 771.078Z" fill="#A8A8A8"/>
<path d="M154.192 724.611L195.661 703.507L191.773 665L110.687 706.839L154.192 724.611Z" fill="#A8A8A8"/>
<path d="M195.661 794.034L236.018 771.819L272.859 789.776L186.96 832.726L195.661 794.034Z" fill="#A8A8A8"/>
<path d="M236.018 771.819V724.611L272.859 706.654V789.776L236.018 771.819Z" fill="#A8A8A8"/>
<path d="M195.661 703.507L236.018 724.611L272.859 706.654L191.773 665L195.661 703.507Z" fill="#A8A8A8"/>
<path d="M257.679 899.781L237.129 886.637L186.96 917.368L259.16 962.724L257.679 899.781Z" fill="#D9D9D9"/>
<path d="M237.129 886.635L237.129 860.347L186.96 832.95V917.368L237.129 886.635Z" fill="#D9D9D9"/>
<path d="M237.129 860.349L257.679 847.205L272.859 790L186.96 832.95L237.129 860.349Z" fill="#D9D9D9"/>
<path d="M257.679 899.781L278.228 886.637L331.36 917.368L259.16 962.724L257.679 899.781Z" fill="#D9D9D9"/>
<path d="M278.228 886.637L278.228 860.349L331.359 826.655L331.36 917.368L278.228 886.637Z" fill="#D9D9D9"/>
<path d="M257.679 847.205L278.228 860.349L331.359 826.655L272.859 790L257.679 847.205Z" fill="#D9D9D9"/>
<path d="M257.679 911.259L227.318 892.931L186.96 917.368L257.679 961.86V911.259Z" fill="#444444"/>
<path d="M227.318 892.931V856.276L186.96 832.95V917.368L227.318 892.931Z" fill="#444444"/>
<path d="M227.318 856.276L257.679 837.208L272.859 790L186.96 832.95L227.318 856.276Z" fill="#444444"/>
<path d="M257.679 911.259L285.633 892.931L331.36 917.368L257.679 961.86V911.259Z" fill="#444444"/>
<path d="M285.633 892.931V856.276L331.359 826.655L331.36 917.368L285.633 892.931Z" fill="#444444"/>
<path d="M257.679 837.208L285.633 856.276L331.359 826.655L272.859 790L257.679 837.208Z" fill="#444444"/>
<path d="M539.814 911.259L570.175 892.931L610.532 917.368L539.814 958.697V911.259Z" fill="#444444"/>
<path d="M570.175 892.931V856.276L610.532 832.95V917.368L570.175 892.931Z" fill="#444444"/>
<path d="M570.175 856.276L539.814 837.208L524.633 790L610.532 832.95L570.175 856.276Z" fill="#444444"/>
<path d="M539.814 911.259L511.86 892.931L466.133 917.368L539.814 958.697V911.259Z" fill="#444444"/>
<path d="M511.86 892.931V856.276L466.133 826.655L466.133 917.368L511.86 892.931Z" fill="#444444"/>
<path d="M539.814 837.208L511.86 856.276L466.133 826.655L524.633 790L539.814 837.208Z" fill="#444444"/>
<path d="M200.273 661.684L200.273 707.781L167.135 727.219L129.924 706.3V660.573L162.877 641.875L200.273 661.684Z" fill="#D9D9D9"/>
<path d="M597.226 661.684V707.781L630.364 727.219L667.575 706.3V660.573L634.622 641.875L597.226 661.684Z" fill="#D9D9D9"/>
<path d="M57 376.852L124.387 336.679L193.254 376.852V444.794L259 488V556L193.254 592.896V664.171L110.687 706.75L57 681.573V376.852Z" fill="#D9D9D9"/>
<path d="M588.873 299.946L666.071 258.477L743.64 299.946V692.417L687 726.5L588.873 679.273V528.949L525 490V411.977L588.873 377.515V299.946Z" fill="#D9D9D9"/>
<path d="M339.69 976.667L374.309 995.735L388.194 986.849V982.036L398.746 987.589L398.773 1133.91L308.219 1084.21V980.555L330.619 964.078L339.69 976.667Z" fill="#D9D9D9"/>
<path d="M368.755 874.846H398.746V987.589L340.246 957.043L308.219 980.555L293.408 940.197L325.435 912.613L330.989 899.098L368.755 874.846Z" fill="#D9D9D9"/>
<path d="M457.829 976.667L423.21 995.735L409.325 986.849V982.036L398.773 987.589L398.746 1133.91L489.301 1084.21V980.555L466.9 964.078L457.829 976.667Z" fill="#D9D9D9"/>
<path d="M428.764 874.846H398.773V987.589L457.274 957.043L489.301 980.555L504.111 940.197L472.084 912.613L466.53 899.098L428.764 874.846Z" fill="#D9D9D9"/>
<path d="M109.606 994.894L174.539 1106.7L155.933 1117.5L91 1005.7L94.8215 1003.56L100.303 1000.3L109.606 994.894Z" fill="#828282"/>
<path d="M297.302 949.446L307.028 966.193L217.462 1018.21L207.736 1001.46L297.302 949.446Z" fill="#828282"/>
<path d="M167.389 932L257.788 1087.65L187.26 1128.61L96.8609 972.96L111.266 964.703L132.125 952.48L167.389 932Z" fill="#828282"/>
<path d="M168.225 1090.87L200.377 1072.21L220.673 1107.18L188.521 1125.84L168.225 1090.87Z" fill="#D9D9D9"/>
<path d="M202.353 1071.09L234.506 1052.43L254.801 1087.4L222.649 1106.06L202.353 1071.09Z" fill="#D9D9D9"/>
<path d="M100.225 973.866L132.377 955.206L152.673 990.178L120.521 1008.84L100.225 973.866Z" fill="#D9D9D9"/>
<path d="M134.353 954.086L166.506 935.426L186.801 970.398L154.649 989.057L134.353 954.086Z" fill="#D9D9D9"/>
<path d="M688.422 994.894L623.489 1106.7L642.096 1117.5L707.028 1005.7L703.207 1003.56L697.725 1000.3L688.422 994.894Z" fill="#828282"/>
<path d="M500.726 949.446L491 966.193L580.566 1018.21L590.292 1001.46L500.726 949.446Z" fill="#828282"/>
<path d="M630.639 932L540.241 1087.65L610.769 1128.61L701.167 972.96L686.763 964.703L665.903 952.48L630.639 932Z" fill="#828282"/>
<path d="M629.801 1090.87L597.649 1072.21L577.353 1107.18L609.505 1125.84L629.801 1090.87Z" fill="#D9D9D9"/>
<path d="M595.673 1071.09L563.521 1052.43L543.225 1087.4L575.377 1106.06L595.673 1071.09Z" fill="#D9D9D9"/>
<path d="M697.801 973.866L665.649 955.206L645.353 990.178L677.505 1008.84L697.801 973.866Z" fill="#D9D9D9"/>
<path d="M663.673 954.086L631.521 935.426L611.225 970.398L643.377 989.057L663.673 954.086Z" fill="#D9D9D9"/>
<path d="M62.9999 379H187V681H62.9999V379Z" fill="#A8A8A8"/>
<path d="M175 555H222V563H175V555Z" fill="#A8A8A8"/>
<path d="M175 482H222V490H175V482Z" fill="#A8A8A8"/>
<path d="M599 301H735V671H599V301Z" fill="#A8A8A8"/>
<path d="M612 484H565V492H612V484Z" fill="#A8A8A8"/>
<path d="M612 411H565V419H612V411Z" fill="#A8A8A8"/>
<path d="M615.661 475.192C614.039 475.192 612.503 474.936 611.053 474.424C609.623 473.891 608.471 473.187 607.597 472.312L608.717 470.488C609.442 471.235 610.413 471.853 611.629 472.344C612.866 472.835 614.21 473.08 615.661 473.08C617.517 473.08 618.935 472.675 619.917 471.864C620.919 471.053 621.421 469.965 621.421 468.6C621.421 467.235 620.93 466.147 619.949 465.336C618.989 464.525 617.463 464.12 615.373 464.12H613.773V462.424L620.685 453.752L621.005 454.648H608.525V452.6H622.925V454.232L616.013 462.904L614.893 462.168H615.757C618.445 462.168 620.45 462.765 621.773 463.96C623.117 465.155 623.789 466.691 623.789 468.568C623.789 469.827 623.49 470.957 622.893 471.96C622.295 472.963 621.389 473.752 620.173 474.328C618.978 474.904 617.474 475.192 615.661 475.192Z" fill="black"/>
<path d="M625.371 469.112V467.448L637.243 452.6H639.803L628.027 467.448L626.779 467.064H644.795V469.112H625.371ZM638.011 475V469.112L638.075 467.064V461.88H640.315V475H638.011Z" fill="black"/>
<path d="M645.153 475V473.368L654.465 464.248C655.318 463.416 655.958 462.691 656.385 462.072C656.812 461.432 657.1 460.835 657.249 460.28C657.398 459.725 657.473 459.203 657.473 458.712C657.473 457.411 657.025 456.387 656.129 455.64C655.254 454.893 653.953 454.52 652.225 454.52C650.902 454.52 649.729 454.723 648.705 455.128C647.702 455.533 646.838 456.163 646.113 457.016L644.481 455.608C645.356 454.584 646.476 453.795 647.841 453.24C649.206 452.685 650.732 452.408 652.417 452.408C653.932 452.408 655.244 452.653 656.353 453.144C657.462 453.613 658.316 454.307 658.913 455.224C659.532 456.141 659.841 457.219 659.841 458.456C659.841 459.181 659.734 459.896 659.521 460.6C659.329 461.304 658.966 462.051 658.433 462.84C657.921 463.608 657.164 464.483 656.161 465.464L647.617 473.848L646.977 472.952H660.865V475H645.153Z" fill="black"/>
<path d="M662.482 467.32V465.336H670.866V467.32H662.482Z" fill="black"/>
<path d="M679.228 475.192C677.607 475.192 676.071 474.936 674.62 474.424C673.191 473.891 672.039 473.187 671.164 472.312L672.284 470.488C673.01 471.235 673.98 471.853 675.196 472.344C676.434 472.835 677.778 473.08 679.228 473.08C681.084 473.08 682.503 472.675 683.484 471.864C684.487 471.053 684.988 469.965 684.988 468.6C684.988 467.235 684.498 466.147 683.516 465.336C682.556 464.525 681.031 464.12 678.94 464.12H677.34V462.424L684.252 453.752L684.572 454.648H672.092V452.6H686.492V454.232L679.58 462.904L678.46 462.168H679.324C682.012 462.168 684.018 462.765 685.34 463.96C686.684 465.155 687.356 466.691 687.356 468.568C687.356 469.827 687.058 470.957 686.46 471.96C685.863 472.963 684.956 473.752 683.74 474.328C682.546 474.904 681.042 475.192 679.228 475.192Z" fill="black"/>
<path d="M696.082 475.192C694.482 475.192 692.957 474.936 691.506 474.424C690.055 473.891 688.904 473.187 688.05 472.312L689.17 470.488C689.874 471.235 690.834 471.853 692.05 472.344C693.288 472.835 694.621 473.08 696.05 473.08C697.949 473.08 699.389 472.664 700.37 471.832C701.373 470.979 701.874 469.869 701.874 468.504C701.874 467.544 701.639 466.723 701.17 466.04C700.722 465.336 699.954 464.792 698.866 464.408C697.778 464.024 696.285 463.832 694.386 463.832H689.618L690.77 452.6H703.026V454.648H691.698L692.882 453.528L691.89 462.936L690.706 461.784H694.898C697.16 461.784 698.973 462.061 700.338 462.616C701.704 463.171 702.685 463.949 703.282 464.952C703.901 465.933 704.21 467.085 704.21 468.408C704.21 469.667 703.912 470.819 703.314 471.864C702.717 472.888 701.821 473.699 700.626 474.296C699.432 474.893 697.917 475.192 696.082 475.192Z" fill="black"/>
<path d="M715.039 475.192C713.055 475.192 711.381 474.755 710.015 473.88C708.65 472.984 707.615 471.704 706.911 470.04C706.207 468.355 705.855 466.339 705.855 463.992C705.855 461.453 706.282 459.331 707.135 457.624C708.01 455.896 709.215 454.595 710.751 453.72C712.287 452.845 714.069 452.408 716.095 452.408C717.098 452.408 718.058 452.504 718.975 452.696C719.893 452.888 720.703 453.197 721.407 453.624L720.479 455.48C719.903 455.096 719.242 454.829 718.495 454.68C717.749 454.509 716.959 454.424 716.127 454.424C713.717 454.424 711.786 455.192 710.335 456.728C708.906 458.264 708.191 460.557 708.191 463.608C708.191 464.077 708.213 464.664 708.255 465.368C708.319 466.051 708.447 466.733 708.639 467.416L707.839 466.808C708.074 465.699 708.533 464.76 709.215 463.992C709.898 463.203 710.751 462.605 711.775 462.2C712.799 461.795 713.919 461.592 715.135 461.592C716.629 461.592 717.941 461.869 719.071 462.424C720.202 462.979 721.087 463.757 721.727 464.76C722.367 465.763 722.687 466.947 722.687 468.312C722.687 469.699 722.357 470.915 721.695 471.96C721.034 472.984 720.117 473.784 718.943 474.36C717.791 474.915 716.49 475.192 715.039 475.192ZM714.943 473.24C716.01 473.24 716.949 473.048 717.759 472.664C718.591 472.259 719.242 471.693 719.711 470.968C720.181 470.221 720.415 469.357 720.415 468.376C720.415 466.904 719.903 465.731 718.879 464.856C717.877 463.981 716.511 463.544 714.783 463.544C713.631 463.544 712.629 463.757 711.775 464.184C710.922 464.611 710.25 465.197 709.759 465.944C709.269 466.669 709.023 467.501 709.023 468.44C709.023 469.251 709.247 470.029 709.695 470.776C710.143 471.501 710.805 472.099 711.679 472.568C712.575 473.016 713.663 473.24 714.943 473.24Z" fill="black"/>
</svg>
