<svg width="1400" height="1400" viewBox="0 0 1400 1400" fill="none" xmlns="http://www.w3.org/2000/svg">
<rect width="1400" height="1400" fill="white"/>
<path d="M907.217 1002.32L937.743 982.8L1012.27 1028.44L907.217 1092.49V1002.32Z" fill="#D9D9D9"/>
<path d="M937.743 982.798V943.761L1012.27 903.077V1028.44L937.743 982.798Z" fill="#D9D9D9"/>
<path d="M937.743 943.763L907.217 924.245L884.667 839.297L1012.27 903.077L937.743 943.763Z" fill="#D9D9D9"/>
<path d="M907.217 1002.32L876.691 982.8L797.764 1028.44L907.217 1092.49V1002.32Z" fill="#D9D9D9"/>
<path d="M876.691 982.8L876.691 943.765L797.764 893.73V1028.44L876.691 982.8Z" fill="#D9D9D9"/>
<path d="M907.217 924.245L876.691 943.765L797.764 893.73L884.667 839.297L907.217 924.245Z" fill="#D9D9D9"/>
<path d="M999.345 829.068L1046.37 802.952L1125.57 839.24L1012.27 902.744L999.345 829.068Z" fill="#383838"/>
<path d="M1046.37 802.952L1046.37 750.719L1125.57 715.805L1125.57 839.24L1046.37 802.952Z" fill="#383838"/>
<path d="M1046.37 750.719L999.345 724.602L1005.12 653.676L1125.57 715.805L1046.37 750.719Z" fill="#383838"/>
<path d="M999.345 829.068L952.456 802.951L884.667 838.965L1012.27 902.744L999.345 829.068Z" fill="#383838"/>
<path d="M952.456 802.951L952.181 750.718L884.667 715.53V838.965L952.456 802.951Z" fill="#383838"/>
<path d="M999.345 724.602L952.181 750.718L884.667 715.53L1005.12 653.676L999.345 724.602Z" fill="#383838"/>
<path d="M999.345 845.288L1060.95 811.199L1125.57 839.24L1012.27 902.744L999.345 845.288Z" fill="#A8A8A8"/>
<path d="M1060.95 811.199V742.197L1125.57 715.805L1125.57 839.24L1060.95 811.199Z" fill="#A8A8A8"/>
<path d="M1060.95 742.197L999.345 710.857L1005.12 653.676L1125.57 715.805L1060.95 742.197Z" fill="#A8A8A8"/>
<path d="M999.345 845.288L939.394 812.299L884.667 838.965L1012.27 902.744L999.345 845.288Z" fill="#A8A8A8"/>
<path d="M939.394 812.299V742.197L884.667 715.53V838.965L939.394 812.299Z" fill="#A8A8A8"/>
<path d="M999.345 710.857L939.394 742.197L884.667 715.53L1005.12 653.676L999.345 710.857Z" fill="#A8A8A8"/>
<path d="M395.98 829.068L348.954 802.952L269.752 839.24L383.054 902.744L395.98 829.068Z" fill="#383838"/>
<path d="M348.954 802.952V750.719L269.752 715.805V839.24L348.954 802.952Z" fill="#383838"/>
<path d="M348.954 750.719L395.98 724.602L390.204 653.676L269.752 715.805L348.954 750.719Z" fill="#383838"/>
<path d="M395.98 829.068L442.868 802.951L510.657 838.965L383.054 902.744L395.98 829.068Z" fill="#383838"/>
<path d="M442.868 802.951L443.143 750.718L510.657 715.53V838.965L442.868 802.951Z" fill="#383838"/>
<path d="M395.98 724.602L443.143 750.718L510.657 715.53L390.204 653.676L395.98 724.602Z" fill="#383838"/>
<path d="M395.979 845.288L334.378 811.199L269.752 839.24L383.054 902.744L395.979 845.288Z" fill="#A8A8A8"/>
<path d="M334.378 811.199V742.197L269.752 715.805V839.24L334.378 811.199Z" fill="#A8A8A8"/>
<path d="M334.378 742.197L395.979 710.857L390.204 653.676L269.752 715.805L334.378 742.197Z" fill="#A8A8A8"/>
<path d="M395.979 845.288L455.931 812.299L510.657 838.965L383.054 902.744L395.979 845.288Z" fill="#A8A8A8"/>
<path d="M455.931 812.299V742.197L510.657 715.53V838.965L455.931 812.299Z" fill="#A8A8A8"/>
<path d="M395.979 710.857L455.931 742.197L510.657 715.53L390.204 653.676L395.979 710.857Z" fill="#A8A8A8"/>
<path d="M488.107 1002.32L457.581 982.8L383.054 1028.44L490.307 1095.79L488.107 1002.32Z" fill="#D9D9D9"/>
<path d="M457.581 982.798V943.761L383.054 903.077V1028.44L457.581 982.798Z" fill="#D9D9D9"/>
<path d="M457.581 943.763L488.107 924.245L510.657 839.297L383.054 903.077L457.581 943.763Z" fill="#D9D9D9"/>
<path d="M488.107 1002.32L518.633 982.8L597.56 1028.44L490.307 1095.79L488.107 1002.32Z" fill="#D9D9D9"/>
<path d="M518.633 982.8L518.633 943.765L597.56 893.73V1028.44L518.633 982.8Z" fill="#D9D9D9"/>
<path d="M488.107 924.245L518.633 943.765L597.56 893.73L510.657 839.297L488.107 924.245Z" fill="#D9D9D9"/>
<path d="M488.107 1019.36L443.006 992.148L383.054 1028.44L488.107 1094.5V1019.36Z" fill="#444444"/>
<path d="M443.006 992.148V937.715L383.054 903.077V1028.44L443.006 992.148Z" fill="#444444"/>
<path d="M443.006 937.715L488.107 909.4L510.657 839.297L383.054 903.077L443.006 937.715Z" fill="#444444"/>
<path d="M488.107 1019.36L529.633 992.148L597.56 1028.44L488.107 1094.5V1019.36Z" fill="#444444"/>
<path d="M529.633 992.148L529.633 937.715L597.56 893.73V1028.44L529.633 992.148Z" fill="#444444"/>
<path d="M488.107 909.4L529.633 937.715L597.56 893.73L510.657 839.297L488.107 909.4Z" fill="#444444"/>
<path d="M907.218 1019.36L952.319 992.148L1012.27 1028.44L907.218 1089.81V1019.36Z" fill="#444444"/>
<path d="M952.319 992.148V937.715L1012.27 903.077V1028.44L952.319 992.148Z" fill="#444444"/>
<path d="M952.319 937.715L907.218 909.4L884.667 839.297L1012.27 903.077L952.319 937.715Z" fill="#444444"/>
<path d="M907.218 1019.36L865.692 992.148L797.764 1028.44L907.218 1089.81V1019.36Z" fill="#444444"/>
<path d="M865.692 992.148V937.715L797.764 893.73V1028.44L865.692 992.148Z" fill="#444444"/>
<path d="M907.218 909.4L865.692 937.715L797.764 893.73L884.667 839.297L907.218 909.4Z" fill="#444444"/>
<path d="M402.831 648.751L402.831 717.204L353.604 746.07L298.328 715.005L298.328 647.102L347.279 619.336L402.831 648.751Z" fill="#D9D9D9"/>
<path d="M992.503 648.751V717.204L1041.73 746.07L1097.01 715.005V647.102L1048.05 619.336L992.503 648.751Z" fill="#D9D9D9"/>
<path d="M190 225.783L290.102 166.128L392.405 225.783V326.675L490.07 390.835V491.813L392.405 546.604V652.444L269.752 715.674L190 678.286V225.783Z" fill="#D9D9D9"/>
<path d="M980.094 111.58L1094.77 50L1210 111.58V694.39L1125.86 745.002L980.094 674.871V451.644L885.212 393.805V277.944L980.094 226.767V111.58Z" fill="#D9D9D9"/>
<path d="M609.935 1116.49L661.361 1144.81L681.987 1131.61V1124.47L697.662 1132.71L697.702 1350L563.184 1276.19V1122.27L596.46 1097.8L609.935 1116.49Z" fill="#D9D9D9"/>
<path d="M653.111 965.292H697.662L697.662 1132.71L610.76 1087.35L563.184 1122.27L541.183 1062.34L588.759 1021.37L597.01 1001.31L653.111 965.292Z" fill="#D9D9D9"/>
<path d="M785.429 1116.49L734.003 1144.81L713.378 1131.61V1124.47L697.702 1132.71L697.662 1350L832.18 1276.19V1122.27L798.905 1097.8L785.429 1116.49Z" fill="#D9D9D9"/>
<path d="M742.253 965.292H697.702V1132.71L784.604 1087.35L832.18 1122.27L854.181 1062.34L806.605 1021.37L798.355 1001.31L742.253 965.292Z" fill="#D9D9D9"/>
<path d="M268.146 1143.56L364.603 1309.59L336.964 1325.63L240.507 1159.61L246.184 1156.43L254.327 1151.58L268.146 1143.56Z" fill="#828282"/>
<path d="M546.967 1076.07L561.416 1100.94L428.366 1178.18L413.918 1153.31L546.967 1076.07Z" fill="#828282"/>
<path d="M353.982 1050.16L488.269 1281.31L383.5 1342.13L249.213 1110.99L270.611 1098.73L301.598 1080.58L353.982 1050.16Z" fill="#828282"/>
<path d="M355.224 1286.08L402.986 1258.37L433.135 1310.3L385.374 1338.01L355.224 1286.08Z" fill="#D9D9D9"/>
<path d="M405.922 1256.7L453.684 1228.99L483.833 1280.93L436.071 1308.63L405.922 1256.7Z" fill="#D9D9D9"/>
<path d="M254.211 1112.33L301.972 1084.62L332.122 1136.56L284.36 1164.27L254.211 1112.33Z" fill="#D9D9D9"/>
<path d="M304.908 1082.96L352.67 1055.25L382.819 1107.18L335.058 1134.89L304.908 1082.96Z" fill="#D9D9D9"/>
<path d="M1127.97 1143.56L1031.52 1309.59L1059.16 1325.63L1155.61 1159.61L1149.94 1156.43L1141.79 1151.58L1127.97 1143.56Z" fill="#828282"/>
<path d="M849.153 1076.07L834.705 1100.94L967.754 1178.18L982.203 1153.31L849.153 1076.07Z" fill="#828282"/>
<path d="M1042.14 1050.16L907.851 1281.31L1012.62 1342.13L1146.91 1110.99L1125.51 1098.73L1094.52 1080.58L1042.14 1050.16Z" fill="#828282"/>
<path d="M1040.89 1286.08L993.131 1258.37L962.982 1310.3L1010.74 1338.01L1040.89 1286.08Z" fill="#D9D9D9"/>
<path d="M990.196 1256.7L942.434 1228.99L912.284 1280.93L960.046 1308.63L990.196 1256.7Z" fill="#D9D9D9"/>
<path d="M1141.91 1112.33L1094.15 1084.62L1064 1136.56L1111.76 1164.27L1141.91 1112.33Z" fill="#D9D9D9"/>
<path d="M1091.21 1082.96L1043.45 1055.25L1013.3 1107.18L1061.06 1134.89L1091.21 1082.96Z" fill="#D9D9D9"/>
<path d="M198.913 228.973H383.114V677.435H198.913V228.973Z" fill="#A8A8A8"/>
<path d="M365.288 490.328H435.107V502.208H365.288V490.328Z" fill="#A8A8A8"/>
<path d="M365.288 381.925H435.107V393.805H365.288V381.925Z" fill="#A8A8A8"/>
<path d="M995.138 113.145H1197.17V662.585H995.138V113.145Z" fill="#A8A8A8"/>
<path d="M1014.45 384.895H944.631V396.775H1014.45V384.895Z" fill="#A8A8A8"/>
<path d="M1014.45 276.492H944.631V288.372H1014.45V276.492Z" fill="#A8A8A8"/>
<path d="M897.586 340.636H905.831V342.039H897.586V340.636Z" fill="black"/>
<path d="M897.764 347.83H907.145V349.256H896.115V333.664H906.811V335.089H897.764V347.83Z" fill="black"/>
<path d="M915.767 337.45C916.718 337.45 917.55 337.636 918.263 338.007C918.991 338.364 919.555 338.913 919.956 339.655C920.372 340.398 920.58 341.333 920.58 342.462V349.256H918.998V342.618C918.998 341.385 918.686 340.457 918.062 339.834C917.453 339.195 916.592 338.876 915.478 338.876C914.646 338.876 913.918 339.047 913.294 339.388C912.685 339.715 912.209 340.197 911.868 340.836C911.541 341.46 911.378 342.217 911.378 343.108V349.256H909.796V337.562H911.311V340.769L911.066 340.168C911.437 339.321 912.031 338.661 912.848 338.185C913.665 337.695 914.638 337.45 915.767 337.45Z" fill="black"/>
<path d="M927.661 349.367C926.562 349.367 925.715 349.07 925.121 348.476C924.527 347.882 924.23 347.043 924.23 345.959V334.978H925.812V345.87C925.812 346.553 925.982 347.08 926.324 347.452C926.681 347.823 927.186 348.008 927.839 348.008C928.538 348.008 929.117 347.808 929.577 347.407L930.135 348.543C929.823 348.825 929.444 349.033 928.998 349.167C928.567 349.3 928.122 349.367 927.661 349.367Z" fill="black"/>
<path d="M922.135 338.876V337.562H929.377V338.876H922.135Z" fill="black"/>
<path d="M932.123 349.256V337.562H933.638V340.747L933.482 340.19C933.809 339.299 934.359 338.623 935.131 338.163C935.904 337.688 936.862 337.45 938.006 337.45V338.987C937.946 338.987 937.887 338.987 937.828 338.987C937.768 338.972 937.709 338.965 937.649 338.965C936.416 338.965 935.451 339.344 934.753 340.101C934.054 340.843 933.705 341.905 933.705 343.286V349.256H932.123Z" fill="black"/>
<path d="M946.462 349.256V346.672L946.395 346.249V341.927C946.395 340.933 946.113 340.168 945.548 339.633C944.999 339.099 944.174 338.831 943.075 338.831C942.317 338.831 941.597 338.958 940.913 339.21C940.23 339.462 939.651 339.797 939.175 340.212L938.462 339.032C939.057 338.527 939.77 338.141 940.601 337.873C941.433 337.591 942.31 337.45 943.231 337.45C944.746 337.45 945.912 337.829 946.729 338.586C947.561 339.329 947.977 340.465 947.977 341.994V349.256H946.462Z" fill="black"/>
<path d="M942.429 349.367C941.552 349.367 940.787 349.226 940.134 348.944C939.495 348.647 939.005 348.246 938.663 347.741C938.321 347.221 938.15 346.627 938.15 345.959C938.15 345.35 938.292 344.801 938.574 344.311C938.871 343.806 939.346 343.405 940 343.108C940.668 342.796 941.56 342.64 942.674 342.64H946.707V343.821H942.718C941.589 343.821 940.802 344.021 940.356 344.422C939.926 344.823 939.71 345.321 939.71 345.915C939.71 346.583 939.97 347.117 940.49 347.518C941.01 347.919 941.738 348.12 942.674 348.12C943.565 348.12 944.33 347.919 944.969 347.518C945.623 347.103 946.098 346.509 946.395 345.736L946.751 346.828C946.454 347.6 945.934 348.216 945.192 348.677C944.464 349.137 943.543 349.367 942.429 349.367Z" fill="black"/>
<path d="M957.354 337.45C958.305 337.45 959.137 337.636 959.85 338.007C960.578 338.364 961.142 338.913 961.544 339.655C961.959 340.398 962.167 341.333 962.167 342.462V349.256H960.585V342.618C960.585 341.385 960.273 340.457 959.649 339.834C959.04 339.195 958.179 338.876 957.065 338.876C956.233 338.876 955.505 339.047 954.881 339.388C954.272 339.715 953.797 340.197 953.455 340.836C953.128 341.46 952.965 342.217 952.965 343.108V349.256H951.383V337.562H952.898V340.769L952.653 340.168C953.024 339.321 953.618 338.661 954.435 338.185C955.252 337.695 956.225 337.45 957.354 337.45Z" fill="black"/>
<path d="M970.407 349.367C969.248 349.367 968.208 349.115 967.287 348.61C966.381 348.09 965.668 347.385 965.148 346.494C964.628 345.588 964.368 344.556 964.368 343.398C964.368 342.224 964.628 341.192 965.148 340.301C965.668 339.41 966.381 338.712 967.287 338.208C968.208 337.703 969.248 337.45 970.407 337.45C971.402 337.45 972.301 337.643 973.103 338.029C973.905 338.415 974.537 338.995 974.997 339.767L973.816 340.569C973.415 339.975 972.917 339.537 972.323 339.255C971.729 338.972 971.083 338.831 970.385 338.831C969.553 338.831 968.803 339.024 968.134 339.41C967.466 339.782 966.938 340.309 966.552 340.992C966.166 341.675 965.973 342.477 965.973 343.398C965.973 344.318 966.166 345.12 966.552 345.803C966.938 346.486 967.466 347.021 968.134 347.407C968.803 347.778 969.553 347.964 970.385 347.964C971.083 347.964 971.729 347.823 972.323 347.541C972.917 347.259 973.415 346.828 973.816 346.249L974.997 347.051C974.537 347.808 973.905 348.387 973.103 348.788C972.301 349.174 971.402 349.367 970.407 349.367Z" fill="black"/>
<path d="M981.987 349.367C980.769 349.367 979.699 349.115 978.778 348.61C977.857 348.09 977.137 347.385 976.617 346.494C976.097 345.588 975.837 344.556 975.837 343.398C975.837 342.239 976.082 341.215 976.572 340.324C977.077 339.433 977.761 338.735 978.622 338.23C979.499 337.71 980.479 337.45 981.564 337.45C982.663 337.45 983.636 337.703 984.483 338.208C985.344 338.698 986.02 339.396 986.51 340.301C987 341.192 987.246 342.224 987.246 343.398C987.246 343.472 987.238 343.554 987.223 343.643C987.223 343.717 987.223 343.799 987.223 343.888H977.04V342.707H986.377L985.753 343.175C985.753 342.328 985.567 341.578 985.196 340.925C984.839 340.257 984.349 339.737 983.725 339.366C983.101 338.995 982.381 338.809 981.564 338.809C980.761 338.809 980.041 338.995 979.402 339.366C978.763 339.737 978.266 340.257 977.909 340.925C977.553 341.593 977.375 342.358 977.375 343.219V343.464C977.375 344.355 977.568 345.142 977.954 345.826C978.355 346.494 978.905 347.021 979.603 347.407C980.316 347.778 981.125 347.964 982.031 347.964C982.745 347.964 983.406 347.838 984.015 347.585C984.639 347.333 985.173 346.947 985.619 346.427L986.51 347.452C985.99 348.075 985.337 348.55 984.549 348.877C983.777 349.204 982.923 349.367 981.987 349.367Z" fill="black"/>
<path d="M191.253 421.648H196.75V422.584H191.253V421.648Z" fill="black"/>
<path d="M191.372 426.444H197.626V427.395H190.273V417H197.403V417.95H191.372V426.444Z" fill="black"/>
<path d="M203.374 419.525C204.008 419.525 204.563 419.648 205.038 419.896C205.523 420.133 205.899 420.5 206.167 420.995C206.444 421.49 206.583 422.113 206.583 422.866V427.395H205.528V422.97C205.528 422.148 205.32 421.529 204.904 421.113C204.498 420.688 203.924 420.475 203.181 420.475C202.626 420.475 202.141 420.589 201.725 420.816C201.319 421.034 201.002 421.356 200.775 421.782C200.557 422.198 200.448 422.702 200.448 423.296V427.395H199.393V419.599H200.403V421.737L200.24 421.336C200.487 420.772 200.883 420.331 201.428 420.015C201.973 419.688 202.621 419.525 203.374 419.525Z" fill="black"/>
<path d="M211.303 427.469C210.571 427.469 210.006 427.271 209.61 426.875C209.214 426.479 209.016 425.92 209.016 425.197V417.876H210.07V425.138C210.07 425.593 210.184 425.945 210.412 426.192C210.65 426.44 210.987 426.563 211.422 426.563C211.888 426.563 212.274 426.43 212.581 426.162L212.952 426.92C212.744 427.108 212.492 427.246 212.195 427.336C211.908 427.425 211.61 427.469 211.303 427.469Z" fill="black"/>
<path d="M207.619 420.475V419.599H212.447V420.475H207.619Z" fill="black"/>
<path d="M214.278 427.395V419.599H215.288V421.722L215.184 421.351C215.402 420.757 215.769 420.307 216.284 420C216.799 419.683 217.437 419.525 218.2 419.525V420.549C218.16 420.549 218.121 420.549 218.081 420.549C218.041 420.539 218.002 420.534 217.962 420.534C217.14 420.534 216.496 420.787 216.031 421.292C215.566 421.787 215.333 422.495 215.333 423.415V427.395H214.278Z" fill="black"/>
<path d="M223.837 427.395V425.672L223.793 425.39V422.509C223.793 421.846 223.605 421.336 223.228 420.98C222.862 420.623 222.312 420.445 221.579 420.445C221.074 420.445 220.594 420.529 220.138 420.698C219.683 420.866 219.297 421.089 218.98 421.366L218.504 420.579C218.9 420.242 219.376 419.985 219.93 419.807C220.485 419.619 221.069 419.525 221.683 419.525C222.693 419.525 223.471 419.777 224.016 420.282C224.57 420.777 224.847 421.534 224.847 422.554V427.395H223.837Z" fill="black"/>
<path d="M221.149 427.469C220.564 427.469 220.054 427.375 219.619 427.187C219.193 426.989 218.866 426.722 218.638 426.385C218.41 426.039 218.296 425.643 218.296 425.197C218.296 424.791 218.391 424.425 218.579 424.098C218.777 423.762 219.094 423.494 219.529 423.296C219.975 423.088 220.569 422.984 221.312 422.984H224.001V423.772H221.342C220.589 423.772 220.064 423.905 219.767 424.172C219.48 424.44 219.336 424.771 219.336 425.167C219.336 425.613 219.51 425.969 219.856 426.237C220.203 426.504 220.688 426.638 221.312 426.638C221.906 426.638 222.416 426.504 222.842 426.237C223.278 425.959 223.595 425.563 223.793 425.049L224.03 425.776C223.832 426.291 223.486 426.702 222.991 427.009C222.505 427.316 221.891 427.469 221.149 427.469Z" fill="black"/>
<path d="M231.099 419.525C231.733 419.525 232.287 419.648 232.763 419.896C233.248 420.133 233.624 420.5 233.892 420.995C234.169 421.49 234.308 422.113 234.308 422.866V427.395H233.253V422.97C233.253 422.148 233.045 421.529 232.629 421.113C232.223 420.688 231.649 420.475 230.906 420.475C230.351 420.475 229.866 420.589 229.45 420.816C229.044 421.034 228.727 421.356 228.499 421.782C228.281 422.198 228.173 422.702 228.173 423.296V427.395H227.118V419.599H228.128V421.737L227.965 421.336C228.212 420.772 228.608 420.331 229.153 420.015C229.698 419.688 230.346 419.525 231.099 419.525Z" fill="black"/>
<path d="M239.801 427.469C239.028 427.469 238.335 427.301 237.721 426.964C237.117 426.618 236.641 426.148 236.295 425.554C235.948 424.95 235.775 424.262 235.775 423.489C235.775 422.707 235.948 422.019 236.295 421.425C236.641 420.831 237.117 420.366 237.721 420.029C238.335 419.693 239.028 419.525 239.801 419.525C240.464 419.525 241.063 419.653 241.598 419.911C242.133 420.168 242.554 420.554 242.861 421.069L242.073 421.604C241.806 421.208 241.474 420.915 241.078 420.727C240.682 420.539 240.251 420.445 239.786 420.445C239.231 420.445 238.731 420.574 238.285 420.831C237.84 421.079 237.488 421.43 237.231 421.886C236.973 422.341 236.845 422.876 236.845 423.489C236.845 424.103 236.973 424.638 237.231 425.093C237.488 425.549 237.84 425.905 238.285 426.162C238.731 426.41 239.231 426.534 239.786 426.534C240.251 426.534 240.682 426.44 241.078 426.251C241.474 426.063 241.806 425.776 242.073 425.39L242.861 425.925C242.554 426.43 242.133 426.816 241.598 427.083C241.063 427.34 240.464 427.469 239.801 427.469Z" fill="black"/>
<path d="M247.521 427.469C246.709 427.469 245.996 427.301 245.382 426.964C244.768 426.618 244.287 426.148 243.941 425.554C243.594 424.95 243.421 424.262 243.421 423.489C243.421 422.717 243.584 422.034 243.911 421.44C244.248 420.846 244.703 420.381 245.278 420.044C245.862 419.698 246.516 419.525 247.239 419.525C247.971 419.525 248.62 419.693 249.185 420.029C249.759 420.356 250.21 420.821 250.536 421.425C250.863 422.019 251.027 422.707 251.027 423.489C251.027 423.539 251.022 423.593 251.012 423.653C251.012 423.702 251.012 423.757 251.012 423.816H244.223V423.029H250.447L250.031 423.341C250.031 422.777 249.907 422.277 249.66 421.841C249.422 421.396 249.095 421.049 248.679 420.802C248.264 420.554 247.783 420.43 247.239 420.43C246.704 420.43 246.223 420.554 245.798 420.802C245.372 421.049 245.04 421.396 244.802 421.841C244.565 422.287 244.446 422.796 244.446 423.371V423.534C244.446 424.128 244.575 424.653 244.832 425.108C245.099 425.554 245.466 425.905 245.931 426.162C246.407 426.41 246.946 426.534 247.55 426.534C248.026 426.534 248.467 426.449 248.873 426.281C249.289 426.113 249.645 425.855 249.942 425.509L250.536 426.192C250.19 426.608 249.754 426.925 249.229 427.142C248.714 427.36 248.145 427.469 247.521 427.469Z" fill="black"/>
<path d="M398.791 1139.46H404.288V1140.39H398.791V1139.46Z" fill="black"/>
<path d="M398.91 1144.25H405.164V1145.2H397.811V1134.81H404.941V1135.76H398.91V1144.25Z" fill="black"/>
<path d="M410.912 1137.33C411.546 1137.33 412.101 1137.46 412.576 1137.7C413.061 1137.94 413.438 1138.31 413.705 1138.8C413.982 1139.3 414.121 1139.92 414.121 1140.67V1145.2H413.066V1140.78C413.066 1139.96 412.858 1139.34 412.442 1138.92C412.036 1138.5 411.462 1138.28 410.719 1138.28C410.165 1138.28 409.679 1138.4 409.263 1138.62C408.857 1138.84 408.54 1139.16 408.313 1139.59C408.095 1140 407.986 1140.51 407.986 1141.1V1145.2H406.931V1137.41H407.941V1139.54L407.778 1139.14C408.025 1138.58 408.422 1138.14 408.966 1137.82C409.511 1137.5 410.16 1137.33 410.912 1137.33Z" fill="black"/>
<path d="M418.842 1145.28C418.109 1145.28 417.544 1145.08 417.148 1144.68C416.752 1144.29 416.554 1143.73 416.554 1143V1135.68H417.609V1142.94C417.609 1143.4 417.722 1143.75 417.95 1144C418.188 1144.25 418.525 1144.37 418.96 1144.37C419.426 1144.37 419.812 1144.24 420.119 1143.97L420.49 1144.73C420.282 1144.92 420.03 1145.05 419.733 1145.14C419.446 1145.23 419.149 1145.28 418.842 1145.28Z" fill="black"/>
<path d="M415.158 1138.28V1137.41H419.985V1138.28H415.158Z" fill="black"/>
<path d="M421.816 1145.2V1137.41H422.826V1139.53L422.722 1139.16C422.94 1138.56 423.307 1138.11 423.822 1137.81C424.337 1137.49 424.975 1137.33 425.738 1137.33V1138.36C425.698 1138.36 425.659 1138.36 425.619 1138.36C425.579 1138.35 425.54 1138.34 425.5 1138.34C424.678 1138.34 424.035 1138.59 423.569 1139.1C423.104 1139.59 422.871 1140.3 422.871 1141.22V1145.2H421.816Z" fill="black"/>
<path d="M431.375 1145.2V1143.48L431.331 1143.2V1140.32C431.331 1139.65 431.143 1139.14 430.766 1138.79C430.4 1138.43 429.85 1138.25 429.117 1138.25C428.612 1138.25 428.132 1138.34 427.676 1138.5C427.221 1138.67 426.835 1138.9 426.518 1139.17L426.042 1138.39C426.438 1138.05 426.914 1137.79 427.468 1137.61C428.023 1137.43 428.607 1137.33 429.221 1137.33C430.231 1137.33 431.009 1137.58 431.554 1138.09C432.108 1138.58 432.385 1139.34 432.385 1140.36V1145.2H431.375Z" fill="black"/>
<path d="M428.687 1145.28C428.102 1145.28 427.592 1145.18 427.156 1144.99C426.731 1144.8 426.404 1144.53 426.176 1144.19C425.948 1143.85 425.834 1143.45 425.834 1143C425.834 1142.6 425.928 1142.23 426.117 1141.91C426.315 1141.57 426.632 1141.3 427.067 1141.1C427.513 1140.9 428.107 1140.79 428.85 1140.79H431.539V1141.58H428.88C428.127 1141.58 427.602 1141.71 427.305 1141.98C427.018 1142.25 426.874 1142.58 426.874 1142.97C426.874 1143.42 427.048 1143.78 427.394 1144.04C427.741 1144.31 428.226 1144.44 428.85 1144.44C429.444 1144.44 429.954 1144.31 430.38 1144.04C430.816 1143.77 431.133 1143.37 431.331 1142.86L431.568 1143.58C431.37 1144.1 431.024 1144.51 430.529 1144.82C430.043 1145.12 429.429 1145.28 428.687 1145.28Z" fill="black"/>
<path d="M438.637 1137.33C439.271 1137.33 439.825 1137.46 440.301 1137.7C440.786 1137.94 441.162 1138.31 441.43 1138.8C441.707 1139.3 441.846 1139.92 441.846 1140.67V1145.2H440.791V1140.78C440.791 1139.96 440.583 1139.34 440.167 1138.92C439.761 1138.5 439.187 1138.28 438.444 1138.28C437.889 1138.28 437.404 1138.4 436.988 1138.62C436.582 1138.84 436.265 1139.16 436.037 1139.59C435.82 1140 435.711 1140.51 435.711 1141.1V1145.2H434.656V1137.41H435.666V1139.54L435.503 1139.14C435.75 1138.58 436.146 1138.14 436.691 1137.82C437.236 1137.5 437.884 1137.33 438.637 1137.33Z" fill="black"/>
<path d="M447.339 1145.28C446.566 1145.28 445.873 1145.11 445.259 1144.77C444.655 1144.42 444.18 1143.95 443.833 1143.36C443.486 1142.76 443.313 1142.07 443.313 1141.3C443.313 1140.51 443.486 1139.83 443.833 1139.23C444.18 1138.64 444.655 1138.17 445.259 1137.84C445.873 1137.5 446.566 1137.33 447.339 1137.33C448.002 1137.33 448.601 1137.46 449.136 1137.72C449.671 1137.98 450.092 1138.36 450.399 1138.88L449.612 1139.41C449.344 1139.01 449.012 1138.72 448.616 1138.53C448.22 1138.35 447.789 1138.25 447.324 1138.25C446.769 1138.25 446.269 1138.38 445.824 1138.64C445.378 1138.89 445.026 1139.24 444.769 1139.69C444.511 1140.15 444.383 1140.68 444.383 1141.3C444.383 1141.91 444.511 1142.44 444.769 1142.9C445.026 1143.36 445.378 1143.71 445.824 1143.97C446.269 1144.22 446.769 1144.34 447.324 1144.34C447.789 1144.34 448.22 1144.25 448.616 1144.06C449.012 1143.87 449.344 1143.58 449.612 1143.2L450.399 1143.73C450.092 1144.24 449.671 1144.62 449.136 1144.89C448.601 1145.15 448.002 1145.28 447.339 1145.28Z" fill="black"/>
<path d="M455.059 1145.28C454.247 1145.28 453.534 1145.11 452.92 1144.77C452.306 1144.42 451.825 1143.95 451.479 1143.36C451.132 1142.76 450.959 1142.07 450.959 1141.3C450.959 1140.52 451.122 1139.84 451.449 1139.25C451.786 1138.65 452.241 1138.19 452.816 1137.85C453.4 1137.5 454.053 1137.33 454.776 1137.33C455.509 1137.33 456.158 1137.5 456.722 1137.84C457.297 1138.16 457.747 1138.63 458.074 1139.23C458.401 1139.83 458.564 1140.51 458.564 1141.3C458.564 1141.35 458.56 1141.4 458.55 1141.46C458.55 1141.51 458.55 1141.56 458.55 1141.62H451.761V1140.84H457.985L457.569 1141.15C457.569 1140.58 457.445 1140.08 457.198 1139.65C456.96 1139.2 456.633 1138.86 456.217 1138.61C455.801 1138.36 455.321 1138.24 454.776 1138.24C454.242 1138.24 453.761 1138.36 453.336 1138.61C452.91 1138.86 452.578 1139.2 452.34 1139.65C452.103 1140.09 451.984 1140.6 451.984 1141.18V1141.34C451.984 1141.94 452.112 1142.46 452.37 1142.92C452.637 1143.36 453.004 1143.71 453.469 1143.97C453.945 1144.22 454.484 1144.34 455.088 1144.34C455.564 1144.34 456.004 1144.26 456.41 1144.09C456.826 1143.92 457.183 1143.66 457.48 1143.32L458.074 1144C457.728 1144.42 457.292 1144.73 456.767 1144.95C456.252 1145.17 455.683 1145.28 455.059 1145.28Z" fill="black"/>
<path d="M519.116 1091.94H524.613V1092.87H519.116V1091.94Z" fill="black"/>
<path d="M519.235 1096.73H525.489V1097.68H518.136V1087.29H525.266V1088.24H519.235V1096.73Z" fill="black"/>
<path d="M531.237 1089.81C531.871 1089.81 532.426 1089.94 532.901 1090.18C533.386 1090.42 533.763 1090.79 534.03 1091.28C534.307 1091.78 534.446 1092.4 534.446 1093.15V1097.68H533.391V1093.26C533.391 1092.44 533.183 1091.82 532.767 1091.4C532.361 1090.98 531.787 1090.76 531.044 1090.76C530.49 1090.76 530.004 1090.88 529.588 1091.1C529.182 1091.32 528.865 1091.64 528.638 1092.07C528.42 1092.49 528.311 1092.99 528.311 1093.58V1097.68H527.256V1089.89H528.266V1092.03L528.103 1091.62C528.35 1091.06 528.747 1090.62 529.291 1090.3C529.836 1089.98 530.485 1089.81 531.237 1089.81Z" fill="black"/>
<path d="M539.167 1097.76C538.434 1097.76 537.869 1097.56 537.473 1097.16C537.077 1096.77 536.879 1096.21 536.879 1095.49V1088.16H537.934V1095.43C537.934 1095.88 538.047 1096.23 538.275 1096.48C538.513 1096.73 538.85 1096.85 539.285 1096.85C539.751 1096.85 540.137 1096.72 540.444 1096.45L540.815 1097.21C540.607 1097.4 540.355 1097.53 540.058 1097.62C539.771 1097.71 539.474 1097.76 539.167 1097.76Z" fill="black"/>
<path d="M535.483 1090.76V1089.89H540.31V1090.76H535.483Z" fill="black"/>
<path d="M542.141 1097.68V1089.89H543.151V1092.01L543.047 1091.64C543.265 1091.05 543.632 1090.59 544.147 1090.29C544.662 1089.97 545.3 1089.81 546.063 1089.81V1090.84C546.023 1090.84 545.984 1090.84 545.944 1090.84C545.904 1090.83 545.865 1090.82 545.825 1090.82C545.003 1090.82 544.36 1091.07 543.894 1091.58C543.429 1092.07 543.196 1092.78 543.196 1093.7V1097.68H542.141Z" fill="black"/>
<path d="M551.7 1097.68V1095.96L551.656 1095.68V1092.8C551.656 1092.13 551.468 1091.62 551.091 1091.27C550.725 1090.91 550.175 1090.73 549.442 1090.73C548.937 1090.73 548.457 1090.82 548.001 1090.99C547.546 1091.15 547.16 1091.38 546.843 1091.65L546.367 1090.87C546.764 1090.53 547.239 1090.27 547.793 1090.09C548.348 1089.91 548.932 1089.81 549.546 1089.81C550.556 1089.81 551.334 1090.07 551.879 1090.57C552.433 1091.06 552.71 1091.82 552.71 1092.84V1097.68H551.7Z" fill="black"/>
<path d="M549.012 1097.76C548.427 1097.76 547.917 1097.66 547.482 1097.48C547.056 1097.28 546.729 1097.01 546.501 1096.67C546.273 1096.33 546.159 1095.93 546.159 1095.49C546.159 1095.08 546.254 1094.71 546.442 1094.39C546.64 1094.05 546.957 1093.78 547.392 1093.58C547.838 1093.38 548.432 1093.27 549.175 1093.27H551.864V1094.06H549.205C548.452 1094.06 547.927 1094.19 547.63 1094.46C547.343 1094.73 547.199 1095.06 547.199 1095.46C547.199 1095.9 547.373 1096.26 547.719 1096.52C548.066 1096.79 548.551 1096.93 549.175 1096.93C549.769 1096.93 550.279 1096.79 550.705 1096.52C551.141 1096.25 551.458 1095.85 551.656 1095.34L551.893 1096.06C551.695 1096.58 551.349 1096.99 550.854 1097.3C550.368 1097.6 549.754 1097.76 549.012 1097.76Z" fill="black"/>
<path d="M558.962 1089.81C559.596 1089.81 560.15 1089.94 560.626 1090.18C561.111 1090.42 561.487 1090.79 561.755 1091.28C562.032 1091.78 562.171 1092.4 562.171 1093.15V1097.68H561.116V1093.26C561.116 1092.44 560.908 1091.82 560.492 1091.4C560.086 1090.98 559.512 1090.76 558.769 1090.76C558.214 1090.76 557.729 1090.88 557.313 1091.1C556.907 1091.32 556.59 1091.64 556.362 1092.07C556.145 1092.49 556.036 1092.99 556.036 1093.58V1097.68H554.981V1089.89H555.991V1092.03L555.828 1091.62C556.075 1091.06 556.471 1090.62 557.016 1090.3C557.561 1089.98 558.209 1089.81 558.962 1089.81Z" fill="black"/>
<path d="M567.664 1097.76C566.891 1097.76 566.198 1097.59 565.584 1097.25C564.98 1096.91 564.505 1096.44 564.158 1095.84C563.811 1095.24 563.638 1094.55 563.638 1093.78C563.638 1093 563.811 1092.31 564.158 1091.71C564.505 1091.12 564.98 1090.65 565.584 1090.32C566.198 1089.98 566.891 1089.81 567.664 1089.81C568.327 1089.81 568.927 1089.94 569.461 1090.2C569.996 1090.46 570.417 1090.84 570.724 1091.36L569.937 1091.89C569.669 1091.5 569.337 1091.2 568.941 1091.02C568.545 1090.83 568.114 1090.73 567.649 1090.73C567.094 1090.73 566.594 1090.86 566.149 1091.12C565.703 1091.37 565.351 1091.72 565.094 1092.17C564.836 1092.63 564.708 1093.16 564.708 1093.78C564.708 1094.39 564.836 1094.93 565.094 1095.38C565.351 1095.84 565.703 1096.19 566.149 1096.45C566.594 1096.7 567.094 1096.82 567.649 1096.82C568.114 1096.82 568.545 1096.73 568.941 1096.54C569.337 1096.35 569.669 1096.06 569.937 1095.68L570.724 1096.21C570.417 1096.72 569.996 1097.1 569.461 1097.37C568.927 1097.63 568.327 1097.76 567.664 1097.76Z" fill="black"/>
<path d="M575.384 1097.76C574.572 1097.76 573.859 1097.59 573.245 1097.25C572.631 1096.91 572.15 1096.44 571.804 1095.84C571.457 1095.24 571.284 1094.55 571.284 1093.78C571.284 1093.01 571.447 1092.32 571.774 1091.73C572.111 1091.13 572.566 1090.67 573.141 1090.33C573.725 1089.99 574.379 1089.81 575.102 1089.81C575.834 1089.81 576.483 1089.98 577.048 1090.32C577.622 1090.64 578.072 1091.11 578.399 1091.71C578.726 1092.31 578.89 1093 578.89 1093.78C578.89 1093.83 578.885 1093.88 578.875 1093.94C578.875 1093.99 578.875 1094.04 578.875 1094.1H572.086V1093.32H578.31L577.894 1093.63C577.894 1093.06 577.77 1092.56 577.523 1092.13C577.285 1091.68 576.958 1091.34 576.542 1091.09C576.126 1090.84 575.646 1090.72 575.102 1090.72C574.567 1090.72 574.086 1090.84 573.661 1091.09C573.235 1091.34 572.903 1091.68 572.665 1092.13C572.428 1092.57 572.309 1093.08 572.309 1093.66V1093.82C572.309 1094.42 572.438 1094.94 572.695 1095.4C572.962 1095.84 573.329 1096.19 573.794 1096.45C574.27 1096.7 574.809 1096.82 575.413 1096.82C575.889 1096.82 576.33 1096.74 576.736 1096.57C577.152 1096.4 577.508 1096.14 577.805 1095.8L578.399 1096.48C578.053 1096.9 577.617 1097.21 577.092 1097.43C576.577 1097.65 576.008 1097.76 575.384 1097.76Z" fill="black"/>
<path d="M348.285 924.134H353.781V925.07H348.285V924.134Z" fill="black"/>
<path d="M348.403 928.93H354.657V929.881H347.304V919.486H354.435V920.436H348.403V928.93Z" fill="black"/>
<path d="M360.405 922.01C361.039 922.01 361.594 922.134 362.069 922.382C362.554 922.619 362.931 922.986 363.198 923.481C363.475 923.976 363.614 924.599 363.614 925.352V929.881H362.559V925.456C362.559 924.634 362.351 924.015 361.935 923.599C361.529 923.174 360.955 922.961 360.212 922.961C359.658 922.961 359.172 923.075 358.756 923.302C358.35 923.52 358.034 923.842 357.806 924.268C357.588 924.683 357.479 925.188 357.479 925.782V929.881H356.424V922.085H357.434V924.223L357.271 923.822C357.519 923.258 357.915 922.817 358.459 922.501C359.004 922.174 359.653 922.01 360.405 922.01Z" fill="black"/>
<path d="M368.335 929.955C367.602 929.955 367.037 929.757 366.641 929.361C366.245 928.965 366.047 928.406 366.047 927.683V920.362H367.102V927.624C367.102 928.079 367.216 928.431 367.443 928.678C367.681 928.926 368.018 929.049 368.454 929.049C368.919 929.049 369.305 928.916 369.612 928.648L369.984 929.406C369.776 929.594 369.523 929.732 369.226 929.821C368.939 929.911 368.642 929.955 368.335 929.955Z" fill="black"/>
<path d="M364.651 922.961V922.085H369.479V922.961H364.651Z" fill="black"/>
<path d="M371.309 929.881V922.085H372.32V924.208L372.216 923.837C372.433 923.243 372.8 922.793 373.315 922.486C373.83 922.169 374.469 922.01 375.231 922.01V923.035C375.191 923.035 375.152 923.035 375.112 923.035C375.073 923.025 375.033 923.02 374.993 923.02C374.171 923.02 373.528 923.273 373.062 923.778C372.597 924.273 372.364 924.98 372.364 925.901V929.881H371.309Z" fill="black"/>
<path d="M380.868 929.881V928.158L380.824 927.876V924.995C380.824 924.332 380.636 923.822 380.259 923.466C379.893 923.109 379.343 922.931 378.61 922.931C378.105 922.931 377.625 923.015 377.17 923.184C376.714 923.352 376.328 923.575 376.011 923.852L375.536 923.065C375.932 922.728 376.407 922.471 376.962 922.293C377.516 922.105 378.1 922.01 378.714 922.01C379.725 922.01 380.502 922.263 381.047 922.768C381.601 923.263 381.879 924.02 381.879 925.04V929.881H380.868Z" fill="black"/>
<path d="M378.18 929.955C377.595 929.955 377.085 929.861 376.65 929.673C376.224 929.475 375.897 929.208 375.669 928.871C375.441 928.525 375.328 928.129 375.328 927.683C375.328 927.277 375.422 926.911 375.61 926.584C375.808 926.248 376.125 925.98 376.56 925.782C377.006 925.574 377.6 925.471 378.343 925.471H381.032V926.258H378.373C377.62 926.258 377.095 926.391 376.798 926.658C376.511 926.926 376.367 927.257 376.367 927.653C376.367 928.099 376.541 928.455 376.887 928.723C377.234 928.99 377.719 929.123 378.343 929.123C378.937 929.123 379.447 928.99 379.873 928.723C380.309 928.445 380.626 928.049 380.824 927.535L381.062 928.262C380.863 928.777 380.517 929.188 380.022 929.495C379.536 929.802 378.922 929.955 378.18 929.955Z" fill="black"/>
<path d="M388.13 922.01C388.764 922.01 389.319 922.134 389.794 922.382C390.279 922.619 390.656 922.986 390.923 923.481C391.2 923.976 391.339 924.599 391.339 925.352V929.881H390.284V925.456C390.284 924.634 390.076 924.015 389.66 923.599C389.254 923.174 388.68 922.961 387.937 922.961C387.382 922.961 386.897 923.075 386.481 923.302C386.075 923.52 385.758 923.842 385.531 924.268C385.313 924.683 385.204 925.188 385.204 925.782V929.881H384.149V922.085H385.159V924.223L384.996 923.822C385.243 923.258 385.64 922.817 386.184 922.501C386.729 922.174 387.378 922.01 388.13 922.01Z" fill="black"/>
<path d="M396.832 929.955C396.059 929.955 395.366 929.787 394.752 929.45C394.148 929.104 393.673 928.633 393.326 928.039C392.98 927.436 392.806 926.748 392.806 925.975C392.806 925.193 392.98 924.505 393.326 923.911C393.673 923.317 394.148 922.852 394.752 922.515C395.366 922.179 396.059 922.01 396.832 922.01C397.495 922.01 398.095 922.139 398.629 922.397C399.164 922.654 399.585 923.04 399.892 923.555L399.105 924.089C398.837 923.693 398.506 923.401 398.109 923.213C397.713 923.025 397.283 922.931 396.817 922.931C396.262 922.931 395.762 923.06 395.317 923.317C394.871 923.565 394.52 923.916 394.262 924.372C394.005 924.827 393.876 925.362 393.876 925.975C393.876 926.589 394.005 927.124 394.262 927.579C394.52 928.035 394.871 928.391 395.317 928.648C395.762 928.896 396.262 929.02 396.817 929.02C397.283 929.02 397.713 928.925 398.109 928.737C398.506 928.549 398.837 928.262 399.105 927.876L399.892 928.411C399.585 928.916 399.164 929.302 398.629 929.569C398.095 929.826 397.495 929.955 396.832 929.955Z" fill="black"/>
<path d="M404.552 929.955C403.74 929.955 403.027 929.787 402.413 929.45C401.799 929.104 401.318 928.633 400.972 928.039C400.625 927.436 400.452 926.748 400.452 925.975C400.452 925.203 400.615 924.52 400.942 923.926C401.279 923.332 401.734 922.867 402.309 922.53C402.893 922.184 403.547 922.01 404.27 922.01C405.002 922.01 405.651 922.179 406.216 922.515C406.79 922.842 407.241 923.307 407.567 923.911C407.894 924.505 408.058 925.193 408.058 925.975C408.058 926.025 408.053 926.079 408.043 926.139C408.043 926.188 408.043 926.243 408.043 926.302H401.254V925.515H407.478L407.062 925.827C407.062 925.263 406.939 924.763 406.691 924.327C406.453 923.882 406.127 923.535 405.711 923.288C405.295 923.04 404.814 922.916 404.27 922.916C403.735 922.916 403.255 923.04 402.829 923.288C402.403 923.535 402.071 923.882 401.833 924.327C401.596 924.773 401.477 925.282 401.477 925.857V926.02C401.477 926.614 401.606 927.139 401.863 927.594C402.131 928.039 402.497 928.391 402.962 928.648C403.438 928.896 403.978 929.02 404.582 929.02C405.057 929.02 405.498 928.935 405.904 928.767C406.32 928.599 406.676 928.341 406.973 927.995L407.567 928.678C407.221 929.094 406.785 929.411 406.26 929.628C405.745 929.846 405.176 929.955 404.552 929.955Z" fill="black"/>
<path d="M669.151 958.288H674.648V959.224H669.151V958.288Z" fill="black"/>
<path d="M669.27 963.085H675.524V964.035H668.171V953.64H675.301V954.591H669.27V963.085Z" fill="black"/>
<path d="M681.272 956.165C681.906 956.165 682.461 956.289 682.936 956.536C683.421 956.774 683.798 957.14 684.065 957.635C684.342 958.13 684.481 958.754 684.481 959.506V964.035H683.426V959.61C683.426 958.788 683.218 958.17 682.802 957.754C682.396 957.328 681.822 957.115 681.079 957.115C680.525 957.115 680.039 957.229 679.623 957.457C679.217 957.675 678.9 957.996 678.673 958.422C678.455 958.838 678.346 959.343 678.346 959.937V964.035H677.291V956.239H678.301V958.378L678.138 957.977C678.385 957.412 678.782 956.972 679.326 956.655C679.871 956.328 680.52 956.165 681.272 956.165Z" fill="black"/>
<path d="M689.202 964.109C688.469 964.109 687.904 963.912 687.508 963.516C687.112 963.12 686.914 962.56 686.914 961.838V954.517H687.969V961.778C687.969 962.233 688.082 962.585 688.31 962.832C688.548 963.08 688.885 963.204 689.32 963.204C689.786 963.204 690.172 963.07 690.479 962.803L690.85 963.56C690.643 963.748 690.39 963.887 690.093 963.976C689.806 964.065 689.509 964.109 689.202 964.109Z" fill="black"/>
<path d="M685.518 957.115V956.239H690.345V957.115H685.518Z" fill="black"/>
<path d="M692.176 964.035V956.239H693.186V958.363L693.082 957.991C693.3 957.397 693.667 956.947 694.182 956.64C694.697 956.323 695.335 956.165 696.098 956.165V957.19C696.058 957.19 696.019 957.19 695.979 957.19C695.939 957.18 695.9 957.175 695.86 957.175C695.038 957.175 694.395 957.427 693.929 957.932C693.464 958.427 693.231 959.135 693.231 960.056V964.035H692.176Z" fill="black"/>
<path d="M701.735 964.035V962.313L701.691 962.031V959.15C701.691 958.486 701.503 957.977 701.126 957.62C700.76 957.264 700.21 957.086 699.477 957.086C698.972 957.086 698.492 957.17 698.036 957.338C697.581 957.506 697.195 957.729 696.878 958.006L696.402 957.219C696.799 956.883 697.274 956.625 697.828 956.447C698.383 956.259 698.967 956.165 699.581 956.165C700.591 956.165 701.369 956.417 701.914 956.922C702.468 957.417 702.745 958.175 702.745 959.194V964.035H701.735Z" fill="black"/>
<path d="M699.047 964.109C698.462 964.109 697.952 964.015 697.516 963.827C697.091 963.629 696.764 963.362 696.536 963.025C696.308 962.679 696.194 962.283 696.194 961.838C696.194 961.432 696.288 961.065 696.477 960.739C696.675 960.402 696.992 960.135 697.427 959.937C697.873 959.729 698.467 959.625 699.21 959.625H701.899V960.412H699.24C698.487 960.412 697.962 960.546 697.665 960.813C697.378 961.08 697.234 961.412 697.234 961.808C697.234 962.253 697.408 962.61 697.754 962.877C698.101 963.144 698.586 963.278 699.21 963.278C699.804 963.278 700.314 963.144 700.74 962.877C701.176 962.6 701.493 962.204 701.691 961.689L701.928 962.417C701.73 962.931 701.384 963.342 700.889 963.649C700.403 963.956 699.789 964.109 699.047 964.109Z" fill="black"/>
<path d="M708.997 956.165C709.631 956.165 710.185 956.289 710.661 956.536C711.146 956.774 711.522 957.14 711.79 957.635C712.067 958.13 712.206 958.754 712.206 959.506V964.035H711.151V959.61C711.151 958.788 710.943 958.17 710.527 957.754C710.121 957.328 709.547 957.115 708.804 957.115C708.249 957.115 707.764 957.229 707.348 957.457C706.942 957.675 706.625 957.996 706.397 958.422C706.18 958.838 706.071 959.343 706.071 959.937V964.035H705.016V956.239H706.026V958.378L705.863 957.977C706.11 957.412 706.506 956.972 707.051 956.655C707.596 956.328 708.244 956.165 708.997 956.165Z" fill="black"/>
<path d="M717.699 964.109C716.926 964.109 716.233 963.941 715.619 963.605C715.015 963.258 714.54 962.788 714.193 962.194C713.846 961.59 713.673 960.902 713.673 960.13C713.673 959.348 713.846 958.66 714.193 958.066C714.54 957.472 715.015 957.006 715.619 956.67C716.233 956.333 716.926 956.165 717.699 956.165C718.362 956.165 718.961 956.294 719.496 956.551C720.031 956.808 720.452 957.194 720.759 957.709L719.972 958.244C719.704 957.848 719.372 957.556 718.976 957.368C718.58 957.18 718.149 957.086 717.684 957.086C717.129 957.086 716.629 957.214 716.184 957.472C715.738 957.719 715.386 958.071 715.129 958.526C714.871 958.981 714.743 959.516 714.743 960.13C714.743 960.744 714.871 961.278 715.129 961.734C715.386 962.189 715.738 962.545 716.184 962.803C716.629 963.05 717.129 963.174 717.684 963.174C718.149 963.174 718.58 963.08 718.976 962.892C719.372 962.704 719.704 962.417 719.972 962.031L720.759 962.565C720.452 963.07 720.031 963.456 719.496 963.723C718.961 963.981 718.362 964.109 717.699 964.109Z" fill="black"/>
<path d="M725.419 964.109C724.607 964.109 723.894 963.941 723.28 963.605C722.666 963.258 722.185 962.788 721.839 962.194C721.492 961.59 721.319 960.902 721.319 960.13C721.319 959.358 721.482 958.674 721.809 958.081C722.146 957.487 722.601 957.021 723.176 956.685C723.76 956.338 724.414 956.165 725.137 956.165C725.869 956.165 726.518 956.333 727.082 956.67C727.657 956.996 728.107 957.462 728.434 958.066C728.761 958.66 728.924 959.348 728.924 960.13C728.924 960.179 728.92 960.234 728.91 960.293C728.91 960.343 728.91 960.397 728.91 960.456H722.121V959.669H728.345L727.929 959.981C727.929 959.417 727.805 958.917 727.558 958.481C727.32 958.036 726.993 957.689 726.577 957.442C726.162 957.194 725.681 957.071 725.137 957.071C724.602 957.071 724.121 957.194 723.696 957.442C723.27 957.689 722.938 958.036 722.7 958.481C722.463 958.927 722.344 959.437 722.344 960.011V960.174C722.344 960.768 722.472 961.293 722.73 961.748C722.997 962.194 723.364 962.545 723.829 962.803C724.305 963.05 724.844 963.174 725.448 963.174C725.924 963.174 726.365 963.09 726.771 962.922C727.187 962.753 727.543 962.496 727.84 962.149L728.434 962.832C728.088 963.248 727.652 963.565 727.127 963.783C726.612 964.001 726.043 964.109 725.419 964.109Z" fill="black"/>
</svg>
