<svg width="1400" height="1400" viewBox="0 0 1400 1400" fill="none" xmlns="http://www.w3.org/2000/svg">
<rect width="1400" height="1400" fill="white"/>
<path d="M907.217 1002.32L937.743 982.8L1012.27 1028.44L907.217 1092.49V1002.32Z" fill="#D9D9D9"/>
<path d="M937.743 982.798L937.743 943.761L1012.27 903.077V1028.44L937.743 982.798Z" fill="#D9D9D9"/>
<path d="M937.743 943.763L907.217 924.245L884.667 839.297L1012.27 903.077L937.743 943.763Z" fill="#D9D9D9"/>
<path d="M907.217 1002.32L876.691 982.8L797.764 1028.44L907.217 1092.49V1002.32Z" fill="#D9D9D9"/>
<path d="M876.691 982.8L876.691 943.764L797.764 893.73L797.764 1028.44L876.691 982.8Z" fill="#D9D9D9"/>
<path d="M907.217 924.245L876.691 943.764L797.764 893.73L884.667 839.297L907.217 924.245Z" fill="#D9D9D9"/>
<path d="M999.345 829.068L1046.37 802.952L1125.57 839.24L1012.27 902.744L999.345 829.068Z" fill="#383838"/>
<path d="M1046.37 802.952V750.719L1125.57 715.805V839.24L1046.37 802.952Z" fill="#383838"/>
<path d="M1046.37 750.719L999.345 724.602L1005.12 653.676L1125.57 715.805L1046.37 750.719Z" fill="#383838"/>
<path d="M999.345 829.068L952.456 802.951L884.667 838.965L1012.27 902.744L999.345 829.068Z" fill="#383838"/>
<path d="M952.456 802.951L952.181 750.718L884.667 715.53V838.965L952.456 802.951Z" fill="#383838"/>
<path d="M999.345 724.602L952.181 750.718L884.667 715.53L1005.12 653.676L999.345 724.602Z" fill="#383838"/>
<path d="M999.345 845.288L1060.95 811.199L1125.57 839.24L1012.27 902.744L999.345 845.288Z" fill="#A8A8A8"/>
<path d="M1060.95 811.199V742.197L1125.57 715.805V839.24L1060.95 811.199Z" fill="#A8A8A8"/>
<path d="M1060.95 742.197L999.345 710.857L1005.12 653.676L1125.57 715.805L1060.95 742.197Z" fill="#A8A8A8"/>
<path d="M999.345 845.288L939.393 812.299L884.667 838.965L1012.27 902.744L999.345 845.288Z" fill="#A8A8A8"/>
<path d="M939.393 812.299V742.197L884.667 715.53V838.965L939.393 812.299Z" fill="#A8A8A8"/>
<path d="M999.345 710.857L939.393 742.197L884.667 715.53L1005.12 653.676L999.345 710.857Z" fill="#A8A8A8"/>
<path d="M395.98 829.068L348.954 802.952L269.752 839.24L383.054 902.744L395.98 829.068Z" fill="#383838"/>
<path d="M348.954 802.952V750.719L269.752 715.805V839.24L348.954 802.952Z" fill="#383838"/>
<path d="M348.954 750.719L395.98 724.602L390.205 653.676L269.752 715.805L348.954 750.719Z" fill="#383838"/>
<path d="M395.98 829.068L442.868 802.951L510.657 838.965L383.054 902.744L395.98 829.068Z" fill="#383838"/>
<path d="M442.868 802.951L443.143 750.718L510.657 715.53V838.965L442.868 802.951Z" fill="#383838"/>
<path d="M395.98 724.602L443.143 750.718L510.657 715.53L390.205 653.676L395.98 724.602Z" fill="#383838"/>
<path d="M395.98 845.288L334.378 811.199L269.752 839.24L383.054 902.744L395.98 845.288Z" fill="#A8A8A8"/>
<path d="M334.378 811.199V742.197L269.752 715.805V839.24L334.378 811.199Z" fill="#A8A8A8"/>
<path d="M334.378 742.197L395.98 710.857L390.205 653.676L269.752 715.805L334.378 742.197Z" fill="#A8A8A8"/>
<path d="M395.98 845.288L455.931 812.299L510.657 838.965L383.054 902.744L395.98 845.288Z" fill="#A8A8A8"/>
<path d="M455.931 812.299V742.197L510.657 715.53V838.965L455.931 812.299Z" fill="#A8A8A8"/>
<path d="M395.98 710.857L455.931 742.197L510.657 715.53L390.205 653.676L395.98 710.857Z" fill="#A8A8A8"/>
<path d="M488.107 1002.32L457.581 982.8L383.054 1028.44L490.307 1095.79L488.107 1002.32Z" fill="#D9D9D9"/>
<path d="M457.581 982.798L457.581 943.761L383.054 903.077V1028.44L457.581 982.798Z" fill="#D9D9D9"/>
<path d="M457.581 943.763L488.107 924.245L510.657 839.297L383.054 903.077L457.581 943.763Z" fill="#D9D9D9"/>
<path d="M488.107 1002.32L518.633 982.8L597.56 1028.44L490.307 1095.79L488.107 1002.32Z" fill="#D9D9D9"/>
<path d="M518.633 982.8L518.633 943.764L597.56 893.73L597.56 1028.44L518.633 982.8Z" fill="#D9D9D9"/>
<path d="M488.107 924.245L518.633 943.764L597.56 893.73L510.657 839.297L488.107 924.245Z" fill="#D9D9D9"/>
<path d="M488.107 1019.36L443.006 992.148L383.054 1028.44L488.107 1094.5V1019.36Z" fill="#444444"/>
<path d="M443.006 992.148V937.715L383.054 903.077V1028.44L443.006 992.148Z" fill="#444444"/>
<path d="M443.006 937.715L488.107 909.4L510.657 839.297L383.054 903.077L443.006 937.715Z" fill="#444444"/>
<path d="M488.107 1019.36L529.633 992.148L597.56 1028.44L488.107 1094.5V1019.36Z" fill="#444444"/>
<path d="M529.633 992.148V937.715L597.56 893.73L597.56 1028.44L529.633 992.148Z" fill="#444444"/>
<path d="M488.107 909.4L529.633 937.715L597.56 893.73L510.657 839.297L488.107 909.4Z" fill="#444444"/>
<path d="M907.218 1019.36L952.319 992.148L1012.27 1028.44L907.218 1089.81V1019.36Z" fill="#444444"/>
<path d="M952.319 992.148V937.715L1012.27 903.077V1028.44L952.319 992.148Z" fill="#444444"/>
<path d="M952.319 937.715L907.218 909.4L884.667 839.297L1012.27 903.077L952.319 937.715Z" fill="#444444"/>
<path d="M907.218 1019.36L865.692 992.148L797.764 1028.44L907.218 1089.81V1019.36Z" fill="#444444"/>
<path d="M865.692 992.148V937.715L797.764 893.73L797.764 1028.44L865.692 992.148Z" fill="#444444"/>
<path d="M907.218 909.4L865.692 937.715L797.764 893.73L884.667 839.297L907.218 909.4Z" fill="#444444"/>
<path d="M402.831 648.751L402.831 717.204L353.604 746.07L298.328 715.005V647.102L347.279 619.336L402.831 648.751Z" fill="#D9D9D9"/>
<path d="M992.503 648.751V717.204L1041.73 746.07L1097.01 715.005V647.102L1048.05 619.336L992.503 648.751Z" fill="#D9D9D9"/>
<path d="M190 225.783L290.102 166.128L392.405 225.783V326.675L490.07 390.835V491.813L392.405 546.604V652.444L269.752 715.674L190 678.286V225.783Z" fill="#D9D9D9"/>
<path d="M980.094 111.58L1094.77 50L1210 111.58V694.39L1125.86 745.002L980.094 674.871V451.644L885.212 393.805V277.944L980.094 226.767V111.58Z" fill="#D9D9D9"/>
<path d="M609.935 1116.49L661.361 1144.81L681.987 1131.61V1124.47L697.662 1132.71L697.702 1350L563.184 1276.19V1122.27L596.46 1097.8L609.935 1116.49Z" fill="#D9D9D9"/>
<path d="M653.111 965.292H697.662V1132.71L610.76 1087.35L563.184 1122.27L541.183 1062.34L588.759 1021.37L597.01 1001.31L653.111 965.292Z" fill="#D9D9D9"/>
<path d="M785.429 1116.49L734.003 1144.81L713.378 1131.61V1124.47L697.702 1132.71L697.662 1350L832.18 1276.19V1122.27L798.905 1097.8L785.429 1116.49Z" fill="#D9D9D9"/>
<path d="M742.253 965.292H697.702V1132.71L784.604 1087.35L832.18 1122.27L854.181 1062.34L806.605 1021.37L798.355 1001.31L742.253 965.292Z" fill="#D9D9D9"/>
<path d="M268.146 1143.56L364.603 1309.59L336.964 1325.63L240.507 1159.61L246.184 1156.43L254.327 1151.58L268.146 1143.56Z" fill="#828282"/>
<path d="M546.967 1076.07L561.416 1100.94L428.366 1178.18L413.918 1153.31L546.967 1076.07Z" fill="#828282"/>
<path d="M353.982 1050.16L488.269 1281.31L383.5 1342.13L249.213 1110.99L270.611 1098.73L301.598 1080.58L353.982 1050.16Z" fill="#828282"/>
<path d="M355.224 1286.08L402.986 1258.37L433.135 1310.3L385.374 1338.01L355.224 1286.08Z" fill="#D9D9D9"/>
<path d="M405.922 1256.7L453.684 1228.99L483.833 1280.93L436.071 1308.63L405.922 1256.7Z" fill="#D9D9D9"/>
<path d="M254.211 1112.33L301.972 1084.62L332.122 1136.56L284.36 1164.27L254.211 1112.33Z" fill="#D9D9D9"/>
<path d="M304.908 1082.96L352.67 1055.25L382.819 1107.18L335.058 1134.89L304.908 1082.96Z" fill="#D9D9D9"/>
<path d="M1127.97 1143.56L1031.52 1309.59L1059.16 1325.63L1155.61 1159.61L1149.94 1156.43L1141.79 1151.58L1127.97 1143.56Z" fill="#828282"/>
<path d="M849.153 1076.07L834.705 1100.94L967.755 1178.18L982.203 1153.31L849.153 1076.07Z" fill="#828282"/>
<path d="M1042.14 1050.16L907.852 1281.31L1012.62 1342.13L1146.91 1110.99L1125.51 1098.73L1094.52 1080.58L1042.14 1050.16Z" fill="#828282"/>
<path d="M1040.89 1286.08L993.131 1258.37L962.982 1310.3L1010.74 1338.01L1040.89 1286.08Z" fill="#D9D9D9"/>
<path d="M990.196 1256.7L942.434 1228.99L912.285 1280.93L960.046 1308.63L990.196 1256.7Z" fill="#D9D9D9"/>
<path d="M1141.91 1112.33L1094.15 1084.62L1064 1136.56L1111.76 1164.27L1141.91 1112.33Z" fill="#D9D9D9"/>
<path d="M1091.21 1082.96L1043.45 1055.25L1013.3 1107.18L1061.06 1134.89L1091.21 1082.96Z" fill="#D9D9D9"/>
<path d="M198.913 228.973H383.114V677.435H198.913V228.973Z" fill="#A8A8A8"/>
<path d="M365.288 490.328H435.107V502.208H365.288V490.328Z" fill="#A8A8A8"/>
<path d="M365.288 381.925H435.107V393.805H365.288V381.925Z" fill="#A8A8A8"/>
<path d="M995.138 113.145H1197.17V662.585H995.138V113.145Z" fill="#A8A8A8"/>
<path d="M1014.45 384.895H944.631V396.775H1014.45V384.895Z" fill="#A8A8A8"/>
<path d="M1014.45 276.492H944.631V288.372H1014.45V276.492Z" fill="#A8A8A8"/>
<path d="M1020.92 371.816C1018.55 371.816 1016.28 371.435 1014.12 370.675C1011.97 369.883 1010.26 368.838 1008.99 367.539L1010.65 364.83C1011.7 365.939 1013.13 366.858 1014.93 367.586C1016.77 368.315 1018.75 368.679 1020.87 368.679C1023.7 368.679 1025.83 368.062 1027.29 366.826C1028.78 365.559 1029.53 363.912 1029.53 361.884C1029.53 360.458 1029.18 359.239 1028.48 358.225C1027.81 357.18 1026.67 356.372 1025.06 355.802C1023.44 355.231 1021.22 354.946 1018.4 354.946H1011.32L1013.03 338.267H1031.24V341.308H1014.41L1016.17 339.645L1014.69 353.616L1012.94 351.905H1019.16C1022.52 351.905 1025.22 352.317 1027.24 353.14C1029.27 353.964 1030.73 355.12 1031.62 356.609C1032.54 358.067 1033 359.777 1033 361.741C1033 363.611 1032.55 365.321 1031.67 366.874C1030.78 368.394 1029.45 369.598 1027.67 370.485C1025.9 371.372 1023.65 371.816 1020.92 371.816Z" fill="black"/>
<path d="M1034.87 362.787V360.316L1052.51 338.267H1056.31L1038.81 360.316L1036.96 359.746H1063.72V362.787H1034.87ZM1053.65 371.53V362.787L1053.74 359.746V352.048H1057.07V371.53H1053.65Z" fill="black"/>
<path d="M1064.26 371.53V369.107L1078.09 355.564C1079.36 354.328 1080.31 353.251 1080.94 352.333C1081.57 351.382 1082 350.495 1082.22 349.672C1082.45 348.848 1082.56 348.072 1082.56 347.343C1082.56 345.411 1081.89 343.89 1080.56 342.781C1079.26 341.673 1077.33 341.118 1074.76 341.118C1072.8 341.118 1071.05 341.419 1069.53 342.021C1068.04 342.623 1066.76 343.557 1065.68 344.825L1063.26 342.734C1064.56 341.213 1066.22 340.041 1068.25 339.217C1070.28 338.394 1072.54 337.982 1075.05 337.982C1077.3 337.982 1079.24 338.346 1080.89 339.075C1082.54 339.772 1083.81 340.801 1084.7 342.164C1085.61 343.526 1086.07 345.126 1086.07 346.963C1086.07 348.04 1085.92 349.101 1085.6 350.147C1085.31 351.192 1084.77 352.301 1083.98 353.473C1083.22 354.614 1082.1 355.912 1080.61 357.37L1067.92 369.82L1066.96 368.489H1087.6V371.53H1064.26Z" fill="black"/>
<path d="M1090 360.126V357.18H1102.45V360.126H1090Z" fill="black"/>
<path d="M1116.37 371.816C1114 371.816 1111.73 371.435 1109.58 370.675C1107.42 369.883 1105.71 368.838 1104.44 367.539L1106.1 364.83C1107.15 365.939 1108.58 366.858 1110.38 367.586C1112.22 368.315 1114.2 368.679 1116.33 368.679C1119.15 368.679 1121.28 368.062 1122.74 366.826C1124.23 365.559 1124.98 363.912 1124.98 361.884C1124.98 360.458 1124.63 359.239 1123.93 358.225C1123.27 357.18 1122.12 356.372 1120.51 355.802C1118.89 355.231 1116.67 354.946 1113.85 354.946H1106.77L1108.48 338.267H1126.69V341.308H1109.86L1111.62 339.645L1110.15 353.616L1108.39 351.905H1114.61C1117.97 351.905 1120.67 352.317 1122.69 353.14C1124.72 353.964 1126.18 355.12 1127.07 356.609C1127.99 358.067 1128.45 359.777 1128.45 361.741C1128.45 363.611 1128 365.321 1127.12 366.874C1126.23 368.394 1124.9 369.598 1123.12 370.485C1121.35 371.372 1119.1 371.816 1116.37 371.816Z" fill="black"/>
<path d="M1141.16 371.816C1138.79 371.816 1136.52 371.435 1134.37 370.675C1132.21 369.883 1130.5 368.838 1129.23 367.539L1130.9 364.83C1131.94 365.939 1133.37 366.858 1135.17 367.586C1137.01 368.315 1138.99 368.679 1141.12 368.679C1143.94 368.679 1146.08 368.062 1147.53 366.826C1149.02 365.559 1149.77 363.912 1149.77 361.884C1149.77 360.458 1149.42 359.239 1148.72 358.225C1148.06 357.18 1146.92 356.372 1145.3 355.802C1143.68 355.231 1141.46 354.946 1138.64 354.946H1131.56L1133.27 338.267H1151.48V341.308H1134.65L1136.41 339.645L1134.94 353.616L1133.18 351.905H1139.4C1142.76 351.905 1145.46 352.317 1147.49 353.14C1149.51 353.964 1150.97 355.12 1151.86 356.609C1152.78 358.067 1153.24 359.777 1153.24 361.741C1153.24 363.611 1152.79 365.321 1151.91 366.874C1151.02 368.394 1149.69 369.598 1147.91 370.485C1146.14 371.372 1143.89 371.816 1141.16 371.816Z" fill="black"/>
<path d="M1165.95 371.816C1163.58 371.816 1161.31 371.435 1159.16 370.675C1157 369.883 1155.29 368.838 1154.02 367.539L1155.69 364.83C1156.73 365.939 1158.16 366.858 1159.97 367.586C1161.8 368.315 1163.78 368.679 1165.91 368.679C1168.73 368.679 1170.87 368.062 1172.32 366.826C1173.81 365.559 1174.56 363.912 1174.56 361.884C1174.56 360.458 1174.21 359.239 1173.51 358.225C1172.85 357.18 1171.71 356.372 1170.09 355.802C1168.47 355.231 1166.26 354.946 1163.44 354.946H1156.35L1158.06 338.267H1176.27V341.308H1159.44L1161.2 339.645L1159.73 353.616L1157.97 351.905H1164.2C1167.56 351.905 1170.25 352.317 1172.28 353.14C1174.31 353.964 1175.76 355.12 1176.65 356.609C1177.57 358.067 1178.03 359.777 1178.03 361.741C1178.03 363.611 1177.59 365.321 1176.7 366.874C1175.81 368.394 1174.48 369.598 1172.7 370.485C1170.93 371.372 1168.68 371.816 1165.95 371.816Z" fill="black"/>
</svg>
